<svg id="Layer_1" data-name="Layer 1" xmlns="http://www.w3.org/2000/svg" viewBox="0 0 804.13 178.23"><defs><style>.cls-1,.cls-10{fill:#fff;}.cls-11,.cls-2,.cls-7{fill:#d3cbcd;}.cls-10,.cls-12,.cls-13,.cls-14,.cls-15,.cls-16,.cls-2,.cls-7,.cls-9{stroke:#000;}.cls-10,.cls-11,.cls-12,.cls-13,.cls-14,.cls-15,.cls-16,.cls-2,.cls-4,.cls-5,.cls-6,.cls-7,.cls-9{stroke-miterlimit:10;}.cls-10,.cls-11,.cls-12,.cls-13,.cls-14,.cls-15,.cls-16,.cls-2,.cls-7,.cls-9{stroke-width:0.5px;}.cls-3{font-size:26px;fill:#8c8788;}.cls-3,.cls-8{font-family:Consolas;}.cls-15,.cls-16,.cls-4,.cls-5,.cls-6,.cls-9{fill:none;}.cls-4,.cls-5,.cls-6{stroke:#d3cbcd;stroke-width:2px;}.cls-5{stroke-dasharray:11.89 11.89;}.cls-6{stroke-dasharray:10.96 10.96;}.cls-7,.cls-9{stroke-linecap:round;}.cls-8{font-size:12px;fill:#231f20;}.cls-11{stroke:#6d6e71;}.cls-12{fill:#e2dede;}.cls-13{fill:#eeeaeb;}.cls-14{fill:#f8f7f8;}.cls-16{stroke-dasharray:12;}.cls-17{fill:#6d6e71;}</style></defs><rect class="cls-1" width="804.13" height="178.23"/><rect class="cls-2" x="371.77" y="62.78" width="31.02" height="10.97"/><text class="cls-3" transform="translate(43.93 27.43)">Giotto behavior</text><polyline class="cls-4" points="618.5 163.61 618.5 169.61 612.5 169.61"/><line class="cls-5" x1="600.61" y1="169.61" x2="35.61" y2="169.61"/><polyline class="cls-4" points="29.66 169.61 23.66 169.61 23.66 163.61"/><line class="cls-6" x1="23.66" y1="152.65" x2="23.66" y2="48.5"/><polyline class="cls-4" points="23.66 43.02 23.66 37.02 29.66 37.02"/><line class="cls-5" x1="41.56" y1="37.01" x2="606.56" y2="37.01"/><polyline class="cls-4" points="612.5 37.02 618.5 37.02 618.5 43.02"/><line class="cls-6" x1="618.5" y1="53.98" x2="618.5" y2="158.13"/><path class="cls-2" d="M262.91,72.86l10-1.37v9.68l-10,0V72.86Zm10,9.42V92l-10-1.37V82.22l10,.06Zm1.22-11,13.3-1.94V81l-13.3.11V71.31Zm13.3,11.06V94l-13.3-1.88,0-9.76Z"/><path class="cls-2" d="M249.53,73a7.06,7.06,0,0,0-3.37,5.94,6.88,6.88,0,0,0,4.18,6.3,16.56,16.56,0,0,1-2.14,4.42c-1.33,1.92-2.73,3.83-4.85,3.83s-2.66-1.23-5.11-1.23-3.23,1.27-5.16,1.27-3.29-1.77-4.85-3.95A19.09,19.09,0,0,1,225,79.22c0-6.06,3.94-9.27,7.82-9.27,2.06,0,3.77,1.35,5.07,1.35s3.15-1.43,5.49-1.43A7.34,7.34,0,0,1,249.53,73Zm-7.29-5.65A7,7,0,0,0,243.89,63a3,3,0,0,0-.06-.63,7,7,0,0,0-4.58,2.36,6.78,6.78,0,0,0-1.72,4.22,2.77,2.77,0,0,0,.06.57,2.33,2.33,0,0,0,.43,0A6.06,6.06,0,0,0,242.24,67.31Z"/><path class="cls-7" d="M200.09,72.85l1-.72c.1,0,.1-.19.1-.57a1.46,1.46,0,0,0-.19-.87.85.85,0,0,0-.77-.47.72.72,0,0,0-.67.47,2.28,2.28,0,0,0-.23,1.15,1.57,1.57,0,0,0,.52,1.15c.09-.09.19-.09.29-.19m3-.41,1.07.41a.31.31,0,0,0,.19.1c.19,0,.28.09.48.19a9.22,9.22,0,0,0,.19-1.44,2.16,2.16,0,0,0-.29-1.24,1.23,1.23,0,0,0-1-.39,1.58,1.58,0,0,0-.86.29,1.3,1.3,0,0,0-.29.77,2.64,2.64,0,0,0,.29,1.24c.1,0,.19.1.29.1M204.46,74m-4.93.29a4.65,4.65,0,0,0,.33.67l.57.57a1.9,1.9,0,0,0,1.35.58,4.56,4.56,0,0,0,2.39-1l.86-.58a1,1,0,0,0,.39-.67c0-.1,0-.19-.1-.19-.1-.19-.57-.48-1.53-.77a5.71,5.71,0,0,0-1.92-.57,3.58,3.58,0,0,0-1.44.57c-.57.39-1,.77-1,1.15,0,0,0,.1.05.29m7.13,19.06,1.19-6.24a2.31,2.31,0,0,0,.33-1,14,14,0,0,0,.1-2,8.33,8.33,0,0,0-.19-2.26,5.4,5.4,0,0,0-.48-1.44l-.58-.86c-.19-.29-.28-.57-.47-.86a3.94,3.94,0,0,1-.2-1.15c-.28-.48-.47-1-.76-1.44s-.38-1.27-.57-1.65l-1.14.76a3.92,3.92,0,0,1-2.11.87,1.5,1.5,0,0,1-1.13-.39L200,75a4.87,4.87,0,0,1-.4,1.46l-.6,1.15a5.75,5.75,0,0,0-.44,1.34,1.82,1.82,0,0,1-.09.38l-.72,1.44a8.53,8.53,0,0,0-1.17,3.87l.65,1.62.27.2,1,.66c1.08.94,1.66,1.59,1.66,2a.81.81,0,0,1-.39.63.9.9,0,0,1-.67.34s0,0,0,.07.1.2.3.57a2.94,2.94,0,0,0,2.42.82,5.83,5.83,0,0,0,5-2.59c.36-.46.55-.67.45-.8L208,86.9m-9.66,6.44L194.18,86a2.34,2.34,0,0,1-.3-.68,1,1,0,0,1,0-.26,3.39,3.39,0,0,1,.51-1.47l.33-.61a14.17,14.17,0,0,0,.65-1.28,12.94,12.94,0,0,0,.52-1.72A4.92,4.92,0,0,1,197,78l.72-.86a6.62,6.62,0,0,0,1-1.43,3.18,3.18,0,0,0,.28-1.25c0-.19,0-.77-.16-1.72s-.14-1.92-.14-2.78a6.38,6.38,0,0,1,.18-1.63,3.53,3.53,0,0,1,.67-1.34,2.53,2.53,0,0,1,1.25-1,6.36,6.36,0,0,1,2-.29,2.53,2.53,0,0,1,.86.1,3.3,3.3,0,0,1,1.15.28,4.27,4.27,0,0,1,1.06.68,4.08,4.08,0,0,1,1,1.24,9.12,9.12,0,0,1,.48,1.92c.1.48.1,1,.19,1.63s.1,1,.1,1.24A10.94,10.94,0,0,1,207.8,74a3.52,3.52,0,0,0,.38,1,8,8,0,0,0,.67,1.15c.29.48.68,1,1.06,1.54a9.5,9.5,0,0,1,1.91,3.06,8.07,8.07,0,0,1,.77,3.54,14.24,14.24,0,0,1-.51,2.83l-5.18,6.39c-1.53-.19-3.31-.39-4.08-.39m-9.71-6.24-2,1.36,11.74,4.89a8.87,8.87,0,0,0-3.27.38"/><text class="cls-8" transform="translate(198.05 122.14)">@OS_platform</text><path class="cls-2" d="M85.56,72.12h1.27a.44.44,0,0,1,.43.35,10,10,0,0,0,1.2,2.89.44.44,0,0,1-.06.55l-.89.9a1,1,0,0,0,0,1.48l1.24,1.24a1,1,0,0,0,1.48,0l.9-.89a.44.44,0,0,1,.55-.06,9.82,9.82,0,0,0,2.89,1.2.44.44,0,0,1,.35.43v1.26a1,1,0,0,0,1,1h1.77a1,1,0,0,0,1-1V80.21a.44.44,0,0,1,.35-.43,10,10,0,0,0,2.89-1.2.44.44,0,0,1,.55.06l.9.89a1,1,0,0,0,1.48,0l1.24-1.24a1,1,0,0,0,0-1.48l-.89-.9a.44.44,0,0,1-.06-.55,9.82,9.82,0,0,0,1.2-2.89.44.44,0,0,1,.43-.35h1.26a1,1,0,0,0,1-1V69.32a1,1,0,0,0-1-1h-1.26a.45.45,0,0,1-.43-.35,10,10,0,0,0-1.2-2.89.44.44,0,0,1,.06-.55l.89-.9a1,1,0,0,0,0-1.48l-1.25-1.25a1.05,1.05,0,0,0-1.48,0l-.9.9a.44.44,0,0,1-.55.06,9.71,9.71,0,0,0-2.89-1.2.45.45,0,0,1-.35-.43V58.93a1,1,0,0,0-1-1H96a1,1,0,0,0-1,1v1.26a.45.45,0,0,1-.35.43,10,10,0,0,0-2.89,1.2.45.45,0,0,1-.55-.06l-.89-.9a1,1,0,0,0-1.48,0l-1.24,1.25a1,1,0,0,0,0,1.48l.89.9a.44.44,0,0,1,.06.55,9.71,9.71,0,0,0-1.2,2.89.44.44,0,0,1-.43.35H85.57a1,1,0,0,0-1,1v1.77A1,1,0,0,0,85.56,72.12Zm11.28-6.38a4.47,4.47,0,1,1-4.47,4.46A4.46,4.46,0,0,1,96.84,65.74Z"/><path class="cls-9" d="M79.56,70.33l-.66-1.6a1.46,1.46,0,0,0-1.9-.79l-2.25,1a1.45,1.45,0,0,0-.78,1.9l.67,1.61a.62.62,0,0,1-.21.74,13.27,13.27,0,0,0-3.05,3.07.61.61,0,0,1-.74.22L69,75.77a1.44,1.44,0,0,0-1.89.79l-.93,2.26A1.44,1.44,0,0,0,67,80.69l1.63.67A.61.61,0,0,1,69,82a13.67,13.67,0,0,0,0,4.33.62.62,0,0,1-.37.67L67,87.72a1.44,1.44,0,0,0-.78,1.89l.94,2.26a1.45,1.45,0,0,0,1.9.78L70.69,92a.61.61,0,0,1,.74.22,13.47,13.47,0,0,0,3.07,3,.63.63,0,0,1,.22.74l-.66,1.61a1.44,1.44,0,0,0,.78,1.89l2.27.93A1.45,1.45,0,0,0,79,99.62L79.66,98a.64.64,0,0,1,.68-.37,13.38,13.38,0,0,0,4.33,0,.61.61,0,0,1,.67.37L86,99.6a1.44,1.44,0,0,0,1.89.78l2.26-.94a1.45,1.45,0,0,0,.78-1.9l-.68-1.61a.61.61,0,0,1,.22-.74,13.67,13.67,0,0,0,3.05-3.07.61.61,0,0,1,.74-.22l1.61.66a1.44,1.44,0,0,0,1.89-.79l.93-2.25a1.45,1.45,0,0,0-.79-1.89L96.3,87m-7.67-2.8A6.19,6.19,0,1,1,82.44,78"/><text class="cls-8" transform="translate(49.06 122.14)">@instructions</text><text class="cls-8" transform="translate(362.25 122.14)">@join_info</text><path d="M203.85,71c-.22,0-.36.43-.36.84a.79.79,0,0,0,.54.76c.37,0,.6-.53.52-1"/><path d="M200.32,71c-.22,0-.36.38-.36.8a.87.87,0,0,0,.59.8c.28,0,.69-.41.52-.93"/><path class="cls-10" d="M193,92.72a16.11,16.11,0,0,1,3.08.83,10.27,10.27,0,0,0,2.12.64,2.08,2.08,0,0,0,1.69-.87,1.47,1.47,0,0,0,.09-.65,6.16,6.16,0,0,0-1.63-3.44l-.65-.87a7.15,7.15,0,0,1-.51-.84,8.78,8.78,0,0,0-.53-.86,2.64,2.64,0,0,0-.58-.66,2,2,0,0,0-.86-.44,1.3,1.3,0,0,0-.81.39,1.23,1.23,0,0,0-.23.6.6.6,0,0,1-.18.4,1.82,1.82,0,0,1-.48.15H193a2.33,2.33,0,0,0-1,.16,1.38,1.38,0,0,0-.37.92,4.11,4.11,0,0,0,.12.78,4.71,4.71,0,0,1,.11.84,2.21,2.21,0,0,1-.35,1.18,2.16,2.16,0,0,0-.37.94c.1.37.73.63,1.89.79"/><path class="cls-10" d="M206.66,93.48a1.9,1.9,0,0,0,1.82,1,2.38,2.38,0,0,0,.58-.08,1.26,1.26,0,0,0,.48-.19,2.55,2.55,0,0,0,.28-.21c.19-.06.19-.11.29-.16l1.63-1.41a6.44,6.44,0,0,1,1.24-.8,7.91,7.91,0,0,1,1-.47,1.64,1.64,0,0,0,.67-.35.93.93,0,0,0,.19-.55.85.85,0,0,0-.38-.64,1.87,1.87,0,0,0-.57-.33,2.07,2.07,0,0,1-.67-.48,2.4,2.4,0,0,1-.48-1l-.1-.56c-.1-.26-.1-.45-.19-.55s0,0-.1,0a.52.52,0,0,0-.38.25c-.19.16-.38.34-.57.53a2.49,2.49,0,0,1-.58.53,1.75,1.75,0,0,1-.77.25,1.51,1.51,0,0,1-1.43-.62,3.76,3.76,0,0,1-.39-1.07c-.19-.16-.28-.25-.48-.25-.47,0-.67.5-.67,1.51v3a3,3,0,0,0-.09.57,3.27,3.27,0,0,0-.1,1l-.19,1.08Z"/><path class="cls-9" d="M199.68,74.14a19.66,19.66,0,0,0,1.78.88,10.77,10.77,0,0,0,2.67-.76"/><rect class="cls-11" x="402.78" y="62.78" width="15.51" height="10.97"/><rect class="cls-2" x="371.77" y="73.75" width="15.51" height="10.97"/><rect class="cls-12" x="387.28" y="74.61" width="15.51" height="10.97"/><rect class="cls-13" x="404.54" y="76.02" width="15.51" height="10.97"/><rect class="cls-14" x="368.09" y="90.18" width="15.51" height="10.97"/><rect class="cls-10" x="387.28" y="90.18" width="15.51" height="10.97"/><rect class="cls-10" x="405.96" y="90.18" width="15.51" height="10.97"/><polyline class="cls-15" points="402.35 62.78 418.29 62.78 418.29 73.75"/><circle class="cls-2" cx="510.48" cy="70.91" r="1.65"/><line class="cls-9" x1="516.65" y1="70.91" x2="544.93" y2="70.91"/><circle class="cls-12" cx="515.33" cy="79.23" r="1.65"/><circle class="cls-13" cx="515.33" cy="86.99" r="1.65"/><circle class="cls-16" cx="515.33" cy="94.75" r="1.65"/><line class="cls-9" x1="521.06" y1="79.23" x2="544.93" y2="79.23"/><line class="cls-9" x1="521.06" y1="86.99" x2="544.93" y2="86.99"/><line class="cls-9" x1="521.06" y1="94.75" x2="544.93" y2="94.75"/><text class="cls-8" transform="translate(493.52 122.14)">@parameters</text><path class="cls-17" d="M62.87,129.2v5.93c0,.48,0,.94,0,1.44H62.4c0-.12,0-.59,0-.84a1.64,1.64,0,0,1-1.68,1c-1.3,0-2.08-1.06-2.08-2.56s.85-2.68,2.21-2.68a1.54,1.54,0,0,1,1.55.75v-3Zm-3.73,4.91c0,1.37.71,2.11,1.57,2.11,1.32,0,1.67-.91,1.67-2.27s-.3-2-1.58-2C59.81,131.92,59.14,132.71,59.14,134.11Z"/><path class="cls-17" d="M64.62,134.13c0,1.29.66,2.09,1.62,2.09a1.41,1.41,0,0,0,1.44-.94h.5a1.9,1.9,0,0,1-2,1.41c-1.52,0-2.11-1.31-2.11-2.58,0-1.43.71-2.66,2.17-2.66a2.06,2.06,0,0,1,2,2.27c0,.14,0,.28,0,.41Zm3.17-.44a1.58,1.58,0,0,0-1.53-1.77c-1,0-1.5.72-1.61,1.77Z"/><path class="cls-17" d="M69.79,136.57V132h-.86v-.47h.86v-.71c0-.84.24-1.76,1.36-1.76a1.87,1.87,0,0,1,.49.07v.48a2.48,2.48,0,0,0-.54-.06c-.59,0-.81.42-.81,1.29v.69h1.09V132H70.29v4.53Z"/><path class="cls-17" d="M72.3,129.2h.5v1h-.5Zm0,2.37h.5v5h-.5Z"/><path class="cls-17" d="M74.44,132.83c0-.44,0-.86,0-1.26h.49c0,.16,0,.81,0,1a1.63,1.63,0,0,1,1.66-1.07c.89,0,1.67.5,1.67,1.88v3.24h-.5v-3.16c0-.89-.36-1.47-1.23-1.47-1.19,0-1.6,1-1.6,2.08v2.55h-.5Z"/><path class="cls-17" d="M80,134.13c0,1.29.66,2.09,1.62,2.09a1.4,1.4,0,0,0,1.43-.94h.51a1.91,1.91,0,0,1-2,1.41c-1.52,0-2.11-1.31-2.11-2.58,0-1.43.71-2.66,2.17-2.66a2.07,2.07,0,0,1,2,2.27c0,.14,0,.28,0,.41Zm3.16-.44c0-1-.55-1.77-1.52-1.77s-1.5.72-1.61,1.77Z"/><path class="cls-17" d="M91.39,129.2v5.93c0,.48,0,.94,0,1.44h-.48c0-.12,0-.59,0-.84a1.63,1.63,0,0,1-1.67,1c-1.3,0-2.08-1.06-2.08-2.56s.85-2.68,2.21-2.68c1,0,1.39.43,1.54.75v-3Zm-3.72,4.91c0,1.37.71,2.11,1.57,2.11,1.31,0,1.67-.91,1.67-2.27s-.31-2-1.58-2C88.34,131.92,87.67,132.71,87.67,134.11Z"/><path class="cls-17" d="M93.15,134.13c0,1.29.66,2.09,1.62,2.09a1.42,1.42,0,0,0,1.44-.94h.5a1.91,1.91,0,0,1-2,1.41c-1.52,0-2.11-1.31-2.11-2.58,0-1.43.71-2.66,2.17-2.66a2.07,2.07,0,0,1,2,2.27c0,.14,0,.28,0,.41Zm3.16-.44c0-1-.55-1.77-1.52-1.77s-1.5.72-1.61,1.77Z"/><path class="cls-17" d="M98.32,136.57V132h-.86v-.47h.86v-.71c0-.84.24-1.76,1.35-1.76a2,2,0,0,1,.5.07v.48a2.62,2.62,0,0,0-.54-.06c-.59,0-.81.42-.81,1.29v.69h1.09V132H98.82v4.53Z"/><path class="cls-17" d="M104.07,135.62a5.72,5.72,0,0,0,.07.95h-.48a3.29,3.29,0,0,1-.09-.77,1.64,1.64,0,0,1-1.64.89,1.49,1.49,0,0,1-1.65-1.5c0-1.1.85-1.6,2.35-1.6h.94v-.51c0-.5-.15-1.17-1.28-1.17s-1.16.53-1.27.94h-.5a1.55,1.55,0,0,1,1.77-1.4c1.14,0,1.78.48,1.78,1.58Zm-.49-1.6h-1c-1.1,0-1.79.29-1.79,1.15a1,1,0,0,0,1.15,1.06c1.42,0,1.62-.95,1.62-2Z"/><path class="cls-17" d="M109.4,135.11c0,.49,0,1.27,0,1.46h-.48a8,8,0,0,1,0-.87,1.53,1.53,0,0,1-1.61,1c-.71,0-1.63-.28-1.63-1.81v-3.31h.49v3.19c0,.73.23,1.44,1.22,1.44s1.53-.63,1.53-2.06v-2.57h.5Z"/><path class="cls-17" d="M111.05,136.57V129.2h.5v7.37Z"/><path class="cls-17" d="M112.51,131.57h.93V130h.5v1.56h1.19V132h-1.19v3.25c0,.56.12.88.6.88a1.78,1.78,0,0,0,.51-.06v.44a1.7,1.7,0,0,1-.61.09c-.64,0-1-.32-1-1.12V132h-.93Z"/><path class="cls-17" d="M116.32,135.19a1.32,1.32,0,0,0,1.42,1c.88,0,1.24-.41,1.24-1s-.24-.85-1.35-1.12c-1.29-.31-1.61-.7-1.61-1.36s.52-1.33,1.65-1.33a1.59,1.59,0,0,1,1.74,1.4h-.5a1.18,1.18,0,0,0-1.27-.94c-.86,0-1.11.43-1.11.83s.24.69,1.22.93c1.41.34,1.76.8,1.76,1.55,0,.91-.74,1.47-1.79,1.47a1.73,1.73,0,0,1-1.91-1.5Z"/><path class="cls-17" d="M59.51,147.83v2.74H59V144.8c0-.41,0-.85,0-1.23h.49c0,.19,0,.49,0,.9a1.84,1.84,0,0,1,1.76-1c1.18,0,2,1,2,2.49,0,1.8-.95,2.75-2.16,2.75A1.64,1.64,0,0,1,59.51,147.83ZM62.74,146c0-1.16-.56-2-1.55-2-1.21,0-1.71.76-1.71,2.12s.39,2.17,1.64,2.17C62.16,148.22,62.74,147.34,62.74,146Z"/><path class="cls-17" d="M64.48,143.57c1,2.86,1.45,4,1.62,4.58h0c.2-.61.6-1.77,1.56-4.58h.52l-1.87,5.29c-.53,1.48-.89,1.81-1.79,1.81a3.33,3.33,0,0,1-.46,0v-.5a3.29,3.29,0,0,0,.45,0c.72,0,1-.35,1.32-1.38l-1.91-5.22Z"/><path class="cls-17" d="M68.77,143.57h.93V142h.5v1.56h1.19V144H70.2v3.25c0,.56.12.88.6.88a1.89,1.89,0,0,0,.52-.06v.44a1.76,1.76,0,0,1-.62.09c-.64,0-1-.32-1-1.12V144h-.93Z"/><path class="cls-17" d="M72.88,141.2v3.21a1.74,1.74,0,0,1,1.65-1c.7,0,1.68.36,1.68,1.94v3.18h-.5v-3.08c0-1-.45-1.55-1.28-1.55-1,0-1.55.61-1.55,1.84v2.79h-.5V141.2Z"/><path class="cls-17" d="M81.9,146.06a2.35,2.35,0,0,1-2.25,2.63c-1.35,0-2.19-1.11-2.19-2.62a2.33,2.33,0,0,1,2.24-2.62C81,143.45,81.9,144.49,81.9,146.06Zm-3.91,0c0,1.19.64,2.15,1.7,2.15s1.69-.89,1.69-2.15-.6-2.15-1.71-2.15S78,144.87,78,146.07Z"/><path class="cls-17" d="M83.15,144.83c0-.44,0-.86,0-1.26h.49c0,.16,0,.81,0,1a1.63,1.63,0,0,1,1.66-1.07c.89,0,1.67.5,1.67,1.88v3.24h-.49v-3.16c0-.89-.37-1.47-1.24-1.47-1.19,0-1.6,1-1.6,2.08v2.55h-.5Z"/><path class="cls-17" d="M91.73,147.83v2.74h-.5V144.8c0-.41,0-.85,0-1.23h.49c0,.19,0,.49,0,.9a1.84,1.84,0,0,1,1.76-1c1.18,0,2,1,2,2.49,0,1.8-1,2.75-2.16,2.75A1.64,1.64,0,0,1,91.73,147.83ZM95,146c0-1.16-.56-2-1.55-2-1.21,0-1.71.76-1.71,2.12s.39,2.17,1.64,2.17C94.38,148.22,95,147.34,95,146Z"/><path class="cls-17" d="M100.17,147.62a7.65,7.65,0,0,0,.06.95h-.48a3,3,0,0,1-.08-.77,1.64,1.64,0,0,1-1.64.89,1.49,1.49,0,0,1-1.66-1.5c0-1.1.85-1.6,2.35-1.6h1v-.51c0-.5-.16-1.17-1.29-1.17s-1.16.53-1.27.94h-.5a1.55,1.55,0,0,1,1.78-1.4c1.14,0,1.78.48,1.78,1.58Zm-.5-1.6h-1c-1.11,0-1.8.29-1.8,1.15a1,1,0,0,0,1.15,1.06c1.42,0,1.62-.95,1.62-2Z"/><path class="cls-17" d="M101,143.57H102V142h.5v1.56h1.18V144h-1.18v3.25c0,.56.12.88.59.88a1.81,1.81,0,0,0,.52-.06v.44a1.7,1.7,0,0,1-.61.09c-.64,0-1-.32-1-1.12V144H101Z"/><path class="cls-17" d="M105.13,141.2v3.21a1.74,1.74,0,0,1,1.65-1c.7,0,1.68.36,1.68,1.94v3.18H108v-3.08c0-1-.45-1.55-1.28-1.55-1,0-1.55.61-1.55,1.84v2.79h-.5V141.2Z"/><path class="cls-17" d="M59,159.19a1.32,1.32,0,0,0,1.42,1c.89,0,1.25-.41,1.25-1s-.24-.85-1.36-1.12c-1.29-.31-1.61-.7-1.61-1.36s.52-1.33,1.65-1.33a1.59,1.59,0,0,1,1.75,1.4h-.5a1.18,1.18,0,0,0-1.27-.94c-.87,0-1.12.43-1.12.83s.24.69,1.23.93c1.41.34,1.76.8,1.76,1.55,0,.91-.74,1.47-1.79,1.47a1.74,1.74,0,0,1-1.92-1.5Z"/><path class="cls-17" d="M66.92,159.62a7.65,7.65,0,0,0,.06.95H66.5a3,3,0,0,1-.08-.77,1.64,1.64,0,0,1-1.64.89,1.49,1.49,0,0,1-1.66-1.5c0-1.1.85-1.6,2.35-1.6h1v-.51c0-.5-.16-1.17-1.29-1.17s-1.16.53-1.27.94h-.5a1.55,1.55,0,0,1,1.78-1.4c1.14,0,1.78.48,1.78,1.58Zm-.5-1.6h-1c-1.11,0-1.8.29-1.8,1.15a1,1,0,0,0,1.15,1.06c1.42,0,1.62-.95,1.62-2Z"/><path class="cls-17" d="M68.3,155.57c.81,2.29,1.37,3.85,1.56,4.49h0c.11-.37.67-1.86,1.63-4.49H72l-1.89,5h-.6l-1.78-5Z"/><path class="cls-17" d="M73.13,158.13c0,1.29.66,2.09,1.62,2.09a1.42,1.42,0,0,0,1.44-.94h.5a1.9,1.9,0,0,1-2,1.41c-1.52,0-2.11-1.31-2.11-2.58,0-1.43.71-2.66,2.17-2.66a2.06,2.06,0,0,1,2,2.27c0,.14,0,.28,0,.41Zm3.16-.44a1.57,1.57,0,0,0-1.52-1.77c-1,0-1.5.72-1.61,1.77Z"/><path class="cls-17" d="M84.5,153.2v7.37H84a6.72,6.72,0,0,1,0-.84,1.64,1.64,0,0,1-1.68,1c-1.3,0-2.08-1.06-2.08-2.56s.85-2.68,2.21-2.68a1.54,1.54,0,0,1,1.55.75v-3Zm-3.73,4.91c0,1.37.71,2.11,1.57,2.11,1.32,0,1.67-.91,1.67-2.27s-.3-2-1.58-2C81.44,155.92,80.77,156.71,80.77,158.11Z"/><path class="cls-17" d="M86.14,153.2h.5v1h-.5Zm0,2.37h.5v5h-.5Z"/><path class="cls-17" d="M88.28,156.93c0-.84,0-1.2,0-1.36h.49c0,.16,0,.48,0,1.12a1.89,1.89,0,0,1,1.74-1.24V156a1.81,1.81,0,0,0-1.74,2v2.6h-.5Z"/><path class="cls-17" d="M91.55,158.13c0,1.29.66,2.09,1.62,2.09a1.42,1.42,0,0,0,1.44-.94h.5a1.9,1.9,0,0,1-2,1.41c-1.52,0-2.11-1.31-2.11-2.58,0-1.43.71-2.66,2.17-2.66a2.06,2.06,0,0,1,2,2.27c0,.14,0,.28,0,.41Zm3.16-.44a1.57,1.57,0,0,0-1.52-1.77c-1,0-1.5.72-1.61,1.77Z"/><path class="cls-17" d="M100.18,159.1a1.92,1.92,0,0,1-1.93,1.59c-1.25,0-2.14-.93-2.14-2.6,0-1.37.73-2.64,2.19-2.64a1.79,1.79,0,0,1,1.88,1.6h-.51a1.35,1.35,0,0,0-1.38-1.13c-1.05,0-1.65.9-1.65,2.15s.56,2.15,1.61,2.15a1.41,1.41,0,0,0,1.42-1.12Z"/><path class="cls-17" d="M100.72,155.57h.93V154h.5v1.56h1.18V156h-1.18v3.25c0,.56.12.88.6.88a1.78,1.78,0,0,0,.51-.06v.44a1.7,1.7,0,0,1-.61.09c-.64,0-1-.32-1-1.12V156h-.93Z"/><path class="cls-17" d="M108.34,158.06a2.35,2.35,0,0,1-2.26,2.63c-1.34,0-2.18-1.11-2.18-2.62s.79-2.62,2.23-2.62S108.34,156.49,108.34,158.06Zm-3.91,0c0,1.19.64,2.15,1.7,2.15s1.68-.89,1.68-2.15-.6-2.15-1.7-2.15S104.43,156.87,104.43,158.07Z"/><path class="cls-17" d="M109.59,156.93c0-.84,0-1.2,0-1.36h.49c0,.16,0,.48,0,1.12a1.89,1.89,0,0,1,1.74-1.24V156a1.81,1.81,0,0,0-1.74,2v2.6h-.5Z"/><path class="cls-17" d="M113,155.57c1,2.86,1.45,4,1.62,4.58h0c.2-.61.6-1.77,1.57-4.58h.52l-1.88,5.29c-.52,1.48-.88,1.81-1.78,1.81a3.33,3.33,0,0,1-.46,0v-.5a3.29,3.29,0,0,0,.45,0c.72,0,1-.35,1.32-1.38l-1.91-5.22Z"/><path class="cls-17" d="M361.7,132.93c0-.84,0-1.2,0-1.36h.49c0,.16,0,.48,0,1.12a1.89,1.89,0,0,1,1.74-1.24V132a1.81,1.81,0,0,0-1.74,2v2.6h-.5Z"/><path class="cls-17" d="M365,134.13c0,1.29.66,2.09,1.62,2.09a1.41,1.41,0,0,0,1.44-.94h.51a1.92,1.92,0,0,1-2,1.41c-1.52,0-2.11-1.31-2.11-2.58,0-1.43.71-2.66,2.17-2.66a2.07,2.07,0,0,1,2,2.27c0,.14,0,.28,0,.41Zm3.17-.44a1.58,1.58,0,0,0-1.53-1.77c-1,0-1.5.72-1.61,1.77Z"/><path class="cls-17" d="M373.61,135.1a1.92,1.92,0,0,1-1.94,1.59c-1.25,0-2.14-.93-2.14-2.6,0-1.37.73-2.64,2.2-2.64a1.79,1.79,0,0,1,1.88,1.6h-.51a1.35,1.35,0,0,0-1.38-1.13c-1.06,0-1.66.9-1.66,2.15s.56,2.15,1.61,2.15a1.41,1.41,0,0,0,1.43-1.12Z"/><path class="cls-17" d="M378.87,134.06a2.35,2.35,0,0,1-2.26,2.63c-1.35,0-2.19-1.11-2.19-2.62a2.33,2.33,0,0,1,2.24-2.62C378,131.45,378.87,132.49,378.87,134.06Zm-3.92,0c0,1.19.64,2.15,1.7,2.15s1.69-.89,1.69-2.15-.6-2.15-1.71-2.15S375,132.87,375,134.07Z"/><path class="cls-17" d="M380.11,132.93c0-.84,0-1.2,0-1.36h.49c0,.16,0,.48,0,1.12a1.89,1.89,0,0,1,1.74-1.24V132a1.81,1.81,0,0,0-1.74,2v2.6h-.5Z"/><path class="cls-17" d="M387.13,129.2v5.93c0,.48,0,.94,0,1.44h-.48c0-.12,0-.59,0-.84a1.64,1.64,0,0,1-1.68,1c-1.3,0-2.08-1.06-2.08-2.56s.85-2.68,2.21-2.68c1,0,1.4.43,1.55.75v-3Zm-3.73,4.91c0,1.37.71,2.11,1.57,2.11,1.32,0,1.68-.91,1.68-2.27s-.31-2-1.59-2C384.07,131.92,383.4,132.71,383.4,134.11Z"/><path class="cls-17" d="M395.42,134.06a2.35,2.35,0,0,1-2.26,2.63c-1.35,0-2.19-1.11-2.19-2.62a2.33,2.33,0,0,1,2.24-2.62C394.54,131.45,395.42,132.49,395.42,134.06Zm-3.92,0c0,1.19.64,2.15,1.7,2.15s1.69-.89,1.69-2.15-.6-2.15-1.71-2.15S391.5,132.87,391.5,134.07Z"/><path class="cls-17" d="M396.87,136.57V132H396v-.47h.86v-.71c0-.84.24-1.76,1.36-1.76a1.87,1.87,0,0,1,.49.07v.48a2.48,2.48,0,0,0-.54-.06c-.59,0-.81.42-.81,1.29v.69h1.09V132h-1.09v4.53Z"/><path class="cls-17" d="M401.85,135.19a1.32,1.32,0,0,0,1.42,1c.89,0,1.25-.41,1.25-1s-.24-.85-1.36-1.12c-1.29-.31-1.61-.7-1.61-1.36s.52-1.33,1.65-1.33a1.59,1.59,0,0,1,1.75,1.4h-.5a1.18,1.18,0,0,0-1.27-.94c-.87,0-1.12.43-1.12.83s.24.69,1.23.93c1.41.34,1.76.8,1.76,1.55,0,.91-.74,1.47-1.79,1.47a1.74,1.74,0,0,1-1.92-1.5Z"/><path class="cls-17" d="M406.72,135.83v2.74h-.5V132.8c0-.41,0-.85,0-1.23h.49c0,.19,0,.49,0,.9a1.84,1.84,0,0,1,1.76-1c1.18,0,2,1,2,2.49,0,1.8-1,2.75-2.17,2.75A1.64,1.64,0,0,1,406.72,135.83ZM410,134c0-1.16-.56-2-1.55-2-1.21,0-1.71.76-1.71,2.12s.39,2.17,1.64,2.17C409.37,136.22,410,135.34,410,134Z"/><path class="cls-17" d="M415.16,135.62a5.72,5.72,0,0,0,.07.95h-.48a3.29,3.29,0,0,1-.09-.77,1.64,1.64,0,0,1-1.64.89,1.49,1.49,0,0,1-1.66-1.5c0-1.1.85-1.6,2.35-1.6h1v-.51c0-.5-.15-1.17-1.29-1.17s-1.16.53-1.27.94h-.5a1.55,1.55,0,0,1,1.78-1.4c1.14,0,1.78.48,1.78,1.58Zm-.49-1.6h-1c-1.11,0-1.8.29-1.8,1.15a1,1,0,0,0,1.15,1.06c1.43,0,1.63-.95,1.63-2Z"/><path class="cls-17" d="M416,131.57h.93V130h.5v1.56h1.19V132h-1.19v3.25c0,.56.12.88.6.88a1.89,1.89,0,0,0,.52-.06v.44a1.76,1.76,0,0,1-.62.09c-.64,0-1-.32-1-1.12V132H416Z"/><path class="cls-17" d="M419.65,129.2h.5v1h-.5Zm0,2.37h.5v5h-.5Z"/><path class="cls-17" d="M425.15,135.62a5.72,5.72,0,0,0,.07.95h-.48a3.29,3.29,0,0,1-.09-.77,1.64,1.64,0,0,1-1.64.89,1.49,1.49,0,0,1-1.66-1.5c0-1.1.85-1.6,2.35-1.6h.95v-.51c0-.5-.15-1.17-1.29-1.17s-1.16.53-1.27.94h-.5a1.55,1.55,0,0,1,1.78-1.4c1.14,0,1.78.48,1.78,1.58Zm-.49-1.6h-1c-1.11,0-1.8.29-1.8,1.15a1,1,0,0,0,1.15,1.06c1.43,0,1.63-.95,1.63-2Z"/><path class="cls-17" d="M426.8,136.57V129.2h.5v7.37Z"/><path class="cls-17" d="M361,143.57h.93V142h.5v1.56h1.19V144h-1.19v3.25c0,.56.12.88.6.88a1.89,1.89,0,0,0,.52-.06v.44a1.76,1.76,0,0,1-.62.09c-.64,0-1-.32-1-1.12V144H361Z"/><path class="cls-17" d="M364.5,144.93c0-.84,0-1.2,0-1.36H365c0,.16,0,.48,0,1.12a1.89,1.89,0,0,1,1.74-1.24V144a1.81,1.81,0,0,0-1.74,2v2.6h-.5Z"/><path class="cls-17" d="M371,147.62a5.72,5.72,0,0,0,.07.95h-.48a3.29,3.29,0,0,1-.09-.77,1.64,1.64,0,0,1-1.64.89,1.49,1.49,0,0,1-1.66-1.5c0-1.1.85-1.6,2.35-1.6h.95v-.51c0-.5-.15-1.17-1.29-1.17s-1.16.53-1.27.94h-.5a1.55,1.55,0,0,1,1.78-1.4c1.14,0,1.78.48,1.78,1.58Zm-.49-1.6h-1c-1.11,0-1.8.29-1.8,1.15a1,1,0,0,0,1.15,1.06c1.43,0,1.63-.95,1.63-2Z"/><path class="cls-17" d="M372.65,144.83c0-.44,0-.86,0-1.26h.49c0,.16,0,.81,0,1a1.63,1.63,0,0,1,1.66-1.07c.89,0,1.68.5,1.68,1.88v3.24H376v-3.16c0-.89-.37-1.47-1.24-1.47-1.19,0-1.6,1-1.6,2.08v2.55h-.5Z"/><path class="cls-17" d="M378.1,147.19a1.32,1.32,0,0,0,1.42,1c.89,0,1.25-.41,1.25-1s-.24-.85-1.36-1.12c-1.29-.31-1.61-.7-1.61-1.36s.52-1.33,1.65-1.33a1.59,1.59,0,0,1,1.75,1.4h-.5a1.18,1.18,0,0,0-1.27-.94c-.87,0-1.12.43-1.12.83s.24.69,1.23.93c1.41.34,1.76.8,1.76,1.55,0,.91-.74,1.47-1.79,1.47a1.74,1.74,0,0,1-1.92-1.5Z"/><path class="cls-17" d="M382.46,148.57V141.2h.5v7.37Z"/><path class="cls-17" d="M388,147.62a5.72,5.72,0,0,0,.07.95h-.48a3.29,3.29,0,0,1-.09-.77,1.64,1.64,0,0,1-1.64.89,1.49,1.49,0,0,1-1.66-1.5c0-1.1.85-1.6,2.35-1.6h.95v-.51c0-.5-.15-1.17-1.29-1.17s-1.16.53-1.27.94h-.5a1.55,1.55,0,0,1,1.78-1.4c1.14,0,1.78.48,1.78,1.58Zm-.49-1.6h-1c-1.11,0-1.8.29-1.8,1.15a1,1,0,0,0,1.15,1.06c1.43,0,1.63-.95,1.63-2Z"/><path class="cls-17" d="M388.81,143.57h.93V142h.5v1.56h1.19V144h-1.19v3.25c0,.56.12.88.6.88a1.89,1.89,0,0,0,.52-.06v.44a1.76,1.76,0,0,1-.62.09c-.64,0-1-.32-1-1.12V144h-.93Z"/><path class="cls-17" d="M392.45,141.2h.5v1h-.5Zm0,2.37h.5v5h-.5Z"/><path class="cls-17" d="M398.64,146.06a2.35,2.35,0,0,1-2.26,2.63c-1.35,0-2.19-1.11-2.19-2.62a2.33,2.33,0,0,1,2.24-2.62C397.76,143.45,398.64,144.49,398.64,146.06Zm-3.92,0c0,1.19.64,2.15,1.7,2.15s1.69-.89,1.69-2.15-.6-2.15-1.71-2.15S394.72,144.87,394.72,146.07Z"/><path class="cls-17" d="M399.88,144.83c0-.44,0-.86,0-1.26h.49c0,.16,0,.81,0,1a1.63,1.63,0,0,1,1.66-1.07c.89,0,1.68.5,1.68,1.88v3.24h-.5v-3.16c0-.89-.37-1.47-1.24-1.47-1.19,0-1.6,1-1.6,2.08v2.55h-.5Z"/><path class="cls-17" d="M405.33,147.19a1.32,1.32,0,0,0,1.42,1c.89,0,1.25-.41,1.25-1s-.24-.85-1.36-1.12c-1.29-.31-1.61-.7-1.61-1.36s.52-1.33,1.65-1.33a1.59,1.59,0,0,1,1.75,1.4h-.5a1.18,1.18,0,0,0-1.27-.94c-.87,0-1.12.43-1.12.83s.24.69,1.23.93c1.41.34,1.76.8,1.76,1.55,0,.91-.74,1.47-1.79,1.47a1.74,1.74,0,0,1-1.92-1.5Z"/><path class="cls-17" d="M411.62,143.57h.93V142h.5v1.56h1.19V144h-1.19v3.25c0,.56.12.88.6.88a1.89,1.89,0,0,0,.52-.06v.44a1.76,1.76,0,0,1-.62.09c-.64,0-1-.32-1-1.12V144h-.93Z"/><path class="cls-17" d="M419.25,146.06a2.35,2.35,0,0,1-2.26,2.63c-1.35,0-2.19-1.11-2.19-2.62a2.33,2.33,0,0,1,2.24-2.62C418.37,143.45,419.25,144.49,419.25,146.06Zm-3.92,0c0,1.19.64,2.15,1.7,2.15s1.69-.89,1.69-2.15-.6-2.15-1.71-2.15S415.33,144.87,415.33,146.07Z"/><path class="cls-17" d="M423.59,143.57v5.35c0,1.35-.34,1.75-1.22,1.75l-.28,0v-.47h.23c.71,0,.77-.4.77-1.21v-5.41Zm-.5-1.4v-1h.5v1Z"/><path class="cls-17" d="M429.28,146.06a2.35,2.35,0,0,1-2.26,2.63c-1.35,0-2.19-1.11-2.19-2.62a2.33,2.33,0,0,1,2.24-2.62C428.4,143.45,429.28,144.49,429.28,146.06Zm-3.92,0c0,1.19.64,2.15,1.7,2.15s1.69-.89,1.69-2.15-.6-2.15-1.71-2.15S425.36,144.87,425.36,146.07Z"/><path class="cls-17" d="M430.56,141.2h.5v1h-.5Zm0,2.37h.5v5h-.5Z"/><path class="cls-17" d="M432.7,144.83c0-.44,0-.86,0-1.26h.49c0,.16,0,.81,0,1a1.63,1.63,0,0,1,1.66-1.07c.89,0,1.68.5,1.68,1.88v3.24H436v-3.16c0-.89-.37-1.47-1.24-1.47-1.19,0-1.6,1-1.6,2.08v2.55h-.5Z"/><path class="cls-17" d="M362.41,157.3v3.27h-.55v-7h2.51c1.38,0,2.11.74,2.11,1.84a1.58,1.58,0,0,1-1.31,1.64c.72.17,1.2.64,1.2,1.83v.27a4.67,4.67,0,0,0,.09,1.42h-.55a4.68,4.68,0,0,1-.1-1.46v-.18c0-1.15-.34-1.63-1.68-1.63Zm0-.5h1.69c1.23,0,1.8-.46,1.8-1.38s-.56-1.35-1.65-1.35h-1.84Z"/><path class="cls-17" d="M374,157c0,1.91-1,3.65-3.18,3.65-2,0-3.12-1.59-3.12-3.6s1.11-3.6,3.19-3.6C372.83,153.47,374,155,374,157Zm-5.72,0c0,1.61.89,3.13,2.57,3.13s2.57-1.48,2.57-3.14-.86-3.06-2.55-3.06S368.3,155.46,368.3,157Z"/><path class="cls-17" d="M376.1,153.57v7h-.54v-7Z"/><path class="cls-17" d="M377.82,159.19a1.32,1.32,0,0,0,1.42,1c.89,0,1.25-.41,1.25-1s-.24-.85-1.36-1.12c-1.29-.31-1.61-.7-1.61-1.36s.52-1.33,1.65-1.33a1.59,1.59,0,0,1,1.75,1.4h-.5a1.18,1.18,0,0,0-1.27-.94c-.87,0-1.12.43-1.12.83s.24.69,1.23.93c1.41.34,1.76.8,1.76,1.55,0,.91-.74,1.47-1.79,1.47a1.74,1.74,0,0,1-1.92-1.5Z"/><path class="cls-17" d="M479,129.2v3.21a1.74,1.74,0,0,1,1.65-1c.71,0,1.69.36,1.69,1.94v3.18h-.5v-3.08c0-1-.45-1.55-1.28-1.55-1,0-1.56.61-1.56,1.84v2.79h-.5V129.2Z"/><path class="cls-17" d="M484,129.2h.5v1H484Zm0,2.37h.5v5H484Z"/><path class="cls-17" d="M486.11,135.19a1.32,1.32,0,0,0,1.42,1c.89,0,1.25-.41,1.25-1s-.24-.85-1.36-1.12c-1.29-.31-1.61-.7-1.61-1.36s.52-1.33,1.65-1.33a1.59,1.59,0,0,1,1.75,1.4h-.5a1.18,1.18,0,0,0-1.27-.94c-.87,0-1.12.43-1.12.83s.24.69,1.23.93c1.41.34,1.76.8,1.76,1.55,0,.91-.74,1.47-1.79,1.47a1.74,1.74,0,0,1-1.92-1.5Z"/><path class="cls-17" d="M489.77,131.57h.93V130h.5v1.56h1.19V132H491.2v3.25c0,.56.12.88.6.88a1.89,1.89,0,0,0,.52-.06v.44a1.76,1.76,0,0,1-.62.09c-.64,0-1-.32-1-1.12V132h-.93Z"/><path class="cls-17" d="M497.4,134.06a2.35,2.35,0,0,1-2.26,2.63c-1.35,0-2.19-1.11-2.19-2.62a2.33,2.33,0,0,1,2.24-2.62C496.52,131.45,497.4,132.49,497.4,134.06Zm-3.92,0c0,1.19.64,2.15,1.7,2.15s1.69-.89,1.69-2.15-.6-2.15-1.71-2.15S493.48,132.87,493.48,134.07Z"/><path class="cls-17" d="M498.64,132.93c0-.84,0-1.2,0-1.36h.49c0,.16,0,.48,0,1.12a1.89,1.89,0,0,1,1.74-1.24V132a1.81,1.81,0,0,0-1.74,2v2.6h-.5Z"/><path class="cls-17" d="M502.06,131.57c1,2.86,1.45,4,1.62,4.58h0c.2-.61.6-1.77,1.57-4.58h.52l-1.88,5.29c-.53,1.48-.89,1.81-1.79,1.81a3.33,3.33,0,0,1-.46,0v-.5a3.29,3.29,0,0,0,.45,0c.72,0,.95-.35,1.32-1.38l-1.91-5.22Z"/><path class="cls-17" d="M513.39,134.06a2.35,2.35,0,0,1-2.26,2.63c-1.35,0-2.19-1.11-2.19-2.62a2.33,2.33,0,0,1,2.24-2.62C512.51,131.45,513.39,132.49,513.39,134.06Zm-3.92,0c0,1.19.64,2.15,1.7,2.15s1.69-.89,1.69-2.15-.6-2.15-1.71-2.15S509.47,132.87,509.47,134.07Z"/><path class="cls-17" d="M514.84,136.57V132H514v-.47h.86v-.71c0-.84.24-1.76,1.36-1.76a1.87,1.87,0,0,1,.49.07v.48a2.48,2.48,0,0,0-.54-.06c-.59,0-.81.42-.81,1.29v.69h1.09V132h-1.09v4.53Z"/><path class="cls-17" d="M525.38,136.57h-.45a5.26,5.26,0,0,1-.07-1.12,2.27,2.27,0,0,1-2.26,1.2c-2,0-3-1.53-3-3.52s1.1-3.66,3.15-3.66a2.51,2.51,0,0,1,2.73,2.08h-.54a2.08,2.08,0,0,0-2.21-1.58c-1.75,0-2.55,1.36-2.55,3.13,0,1.6.77,3.05,2.48,3.05s2.24-1.14,2.24-2.69v-.08H522.6v-.5h2.78Z"/><path class="cls-17" d="M527.06,129.2h.5v1h-.5Zm0,2.37h.5v5h-.5Z"/><path class="cls-17" d="M533.25,134.06a2.35,2.35,0,0,1-2.26,2.63c-1.35,0-2.19-1.11-2.19-2.62a2.33,2.33,0,0,1,2.24-2.62C532.37,131.45,533.25,132.49,533.25,134.06Zm-3.92,0c0,1.19.64,2.15,1.7,2.15s1.69-.89,1.69-2.15-.6-2.15-1.71-2.15S529.33,132.87,529.33,134.07Z"/><path class="cls-17" d="M533.74,131.57h.93V130h.5v1.56h1.19V132h-1.19v3.25c0,.56.12.88.6.88a1.89,1.89,0,0,0,.52-.06v.44a1.76,1.76,0,0,1-.62.09c-.64,0-1-.32-1-1.12V132h-.93Z"/><path class="cls-17" d="M536.67,131.57h.93V130h.5v1.56h1.19V132H538.1v3.25c0,.56.12.88.6.88a1.89,1.89,0,0,0,.52-.06v.44a1.76,1.76,0,0,1-.62.09c-.64,0-1-.32-1-1.12V132h-.93Z"/><path class="cls-17" d="M544.3,134.06a2.35,2.35,0,0,1-2.26,2.63c-1.35,0-2.19-1.11-2.19-2.62a2.33,2.33,0,0,1,2.24-2.62C543.42,131.45,544.3,132.49,544.3,134.06Zm-3.92,0c0,1.19.64,2.15,1.7,2.15s1.69-.89,1.69-2.15-.6-2.15-1.71-2.15S540.38,132.87,540.38,134.07Z"/><path class="cls-17" d="M548.27,136.57V132h-.86v-.47h.86v-.71c0-.84.24-1.76,1.36-1.76a1.87,1.87,0,0,1,.49.07v.48a2.48,2.48,0,0,0-.54-.06c-.59,0-.81.42-.81,1.29v.69h1.09V132h-1.09v4.53Z"/><path class="cls-17" d="M554.43,135.11c0,.49,0,1.27,0,1.46H554a8,8,0,0,1,0-.87,1.53,1.53,0,0,1-1.61,1c-.72,0-1.64-.28-1.64-1.81v-3.31h.49v3.19c0,.73.23,1.44,1.22,1.44s1.54-.63,1.54-2.06v-2.57h.5Z"/><path class="cls-17" d="M556.07,132.83c0-.44,0-.86,0-1.26h.49c0,.16,0,.81,0,1a1.63,1.63,0,0,1,1.66-1.07c.89,0,1.68.5,1.68,1.88v3.24h-.5v-3.16c0-.89-.37-1.47-1.24-1.47-1.19,0-1.6,1-1.6,2.08v2.55h-.5Z"/><path class="cls-17" d="M565.23,135.1a1.92,1.92,0,0,1-1.94,1.59c-1.25,0-2.14-.93-2.14-2.6,0-1.37.73-2.64,2.2-2.64a1.79,1.79,0,0,1,1.88,1.6h-.51a1.35,1.35,0,0,0-1.38-1.13c-1.06,0-1.66.9-1.66,2.15s.56,2.15,1.61,2.15a1.41,1.41,0,0,0,1.43-1.12Z"/><path class="cls-17" d="M565.76,131.57h.93V130h.5v1.56h1.19V132h-1.19v3.25c0,.56.12.88.6.88a1.89,1.89,0,0,0,.52-.06v.44a1.76,1.76,0,0,1-.62.09c-.64,0-1-.32-1-1.12V132h-.93Z"/><path class="cls-17" d="M569.4,129.2h.5v1h-.5Zm0,2.37h.5v5h-.5Z"/><path class="cls-17" d="M575.59,134.06a2.35,2.35,0,0,1-2.26,2.63c-1.35,0-2.19-1.11-2.19-2.62a2.33,2.33,0,0,1,2.24-2.62C574.71,131.45,575.59,132.49,575.59,134.06Zm-3.92,0c0,1.19.64,2.15,1.7,2.15s1.69-.89,1.69-2.15-.6-2.15-1.71-2.15S571.67,132.87,571.67,134.07Z"/><path class="cls-17" d="M576.83,132.83c0-.44,0-.86,0-1.26h.49c0,.16,0,.81,0,1a1.63,1.63,0,0,1,1.66-1.07c.89,0,1.68.5,1.68,1.88v3.24h-.5v-3.16c0-.89-.37-1.47-1.24-1.47-1.19,0-1.6,1-1.6,2.08v2.55h-.5Z"/><path class="cls-17" d="M582.28,135.19a1.32,1.32,0,0,0,1.42,1c.89,0,1.25-.41,1.25-1s-.24-.85-1.36-1.12c-1.29-.31-1.61-.7-1.61-1.36s.52-1.33,1.65-1.33a1.59,1.59,0,0,1,1.75,1.4h-.5a1.18,1.18,0,0,0-1.27-.94c-.87,0-1.12.43-1.12.83s.24.69,1.23.93c1.41.34,1.76.8,1.76,1.55,0,.91-.74,1.47-1.79,1.47a1.74,1.74,0,0,1-1.92-1.5Z"/><path class="cls-17" d="M479,147.83v2.74h-.5V144.8c0-.41,0-.85,0-1.23H479c0,.19,0,.49,0,.9a1.84,1.84,0,0,1,1.76-1c1.18,0,2,1,2,2.49,0,1.8-1,2.75-2.17,2.75A1.64,1.64,0,0,1,479,147.83Zm3.23-1.87c0-1.16-.56-2-1.55-2-1.21,0-1.71.76-1.71,2.12s.39,2.17,1.64,2.17C481.69,148.22,482.27,147.34,482.27,146Z"/><path class="cls-17" d="M484.22,146.13c0,1.29.66,2.09,1.62,2.09a1.41,1.41,0,0,0,1.44-.94h.51a1.92,1.92,0,0,1-2,1.41c-1.52,0-2.11-1.31-2.11-2.58,0-1.43.71-2.66,2.17-2.66a2.07,2.07,0,0,1,2,2.27c0,.14,0,.28,0,.41Zm3.17-.44a1.58,1.58,0,0,0-1.53-1.77c-1,0-1.5.72-1.61,1.77Z"/><path class="cls-17" d="M489.13,144.93c0-.84,0-1.2,0-1.36h.49c0,.16,0,.48,0,1.12a1.89,1.89,0,0,1,1.74-1.24V144a1.81,1.81,0,0,0-1.74,2v2.6h-.5Z"/><path class="cls-17" d="M492.77,148.57V144h-.86v-.47h.86v-.71c0-.84.24-1.76,1.36-1.76a1.87,1.87,0,0,1,.49.07v.48a2.48,2.48,0,0,0-.54-.06c-.59,0-.81.42-.81,1.29v.69h1.09V144h-1.09v4.53Z"/><path class="cls-17" d="M499.2,146.06a2.35,2.35,0,0,1-2.26,2.63c-1.35,0-2.19-1.11-2.19-2.62a2.33,2.33,0,0,1,2.24-2.62C498.32,143.45,499.2,144.49,499.2,146.06Zm-3.92,0c0,1.19.64,2.15,1.7,2.15s1.69-.89,1.69-2.15-.6-2.15-1.71-2.15S495.28,144.87,495.28,146.07Z"/><path class="cls-17" d="M500.44,144.93c0-.84,0-1.2,0-1.36h.49c0,.16,0,.48,0,1.12a1.89,1.89,0,0,1,1.74-1.24V144a1.81,1.81,0,0,0-1.74,2v2.6h-.5Z"/><path class="cls-17" d="M503.57,144.86c0-.43,0-.9,0-1.29h.49c0,.17,0,.6,0,.89a1.56,1.56,0,0,1,1.5-1,1.42,1.42,0,0,1,1.45,1,1.7,1.7,0,0,1,1.63-1c.77,0,1.57.44,1.57,1.83v3.29h-.5v-3.23c0-.67-.24-1.4-1.17-1.4s-1.41.78-1.41,1.75v2.88h-.49v-3.22c0-.73-.22-1.41-1.14-1.41s-1.44.86-1.44,1.88v2.75h-.5Z"/><path class="cls-17" d="M512,146.13c0,1.29.66,2.09,1.62,2.09a1.41,1.41,0,0,0,1.44-.94h.51a1.92,1.92,0,0,1-2,1.41c-1.52,0-2.11-1.31-2.11-2.58,0-1.43.71-2.66,2.17-2.66a2.07,2.07,0,0,1,2,2.27c0,.14,0,.28,0,.41Zm3.17-.44a1.58,1.58,0,0,0-1.53-1.77c-1,0-1.5.72-1.61,1.77Z"/><path class="cls-17" d="M520.79,141.2v5.93c0,.48,0,.94,0,1.44h-.48c0-.12,0-.59,0-.84a1.64,1.64,0,0,1-1.68,1c-1.3,0-2.08-1.06-2.08-2.56s.85-2.68,2.21-2.68c1,0,1.4.43,1.55.75v-3Zm-3.73,4.91c0,1.37.71,2.11,1.57,2.11,1.32,0,1.68-.91,1.68-2.27s-.31-2-1.59-2C517.73,143.92,517.06,144.71,517.06,146.11Z"/><path class="cls-17" d="M529.08,146.06a2.35,2.35,0,0,1-2.26,2.63c-1.35,0-2.19-1.11-2.19-2.62a2.33,2.33,0,0,1,2.24-2.62C528.2,143.45,529.08,144.49,529.08,146.06Zm-3.92,0c0,1.19.64,2.15,1.7,2.15s1.69-.89,1.69-2.15-.6-2.15-1.71-2.15S525.16,144.87,525.16,146.07Z"/><path class="cls-17" d="M530.32,144.83c0-.44,0-.86,0-1.26h.49c0,.16,0,.81,0,1a1.63,1.63,0,0,1,1.66-1.07c.89,0,1.68.5,1.68,1.88v3.24h-.5v-3.16c0-.89-.37-1.47-1.24-1.47-1.19,0-1.6,1-1.6,2.08v2.55h-.5Z"/><path class="cls-17" d="M544,148.57h-.45a5.26,5.26,0,0,1-.07-1.12,2.27,2.27,0,0,1-2.26,1.2c-2,0-3-1.53-3-3.52s1.1-3.66,3.15-3.66a2.51,2.51,0,0,1,2.73,2.08h-.54a2.08,2.08,0,0,0-2.21-1.58c-1.75,0-2.55,1.36-2.55,3.13,0,1.6.77,3.05,2.48,3.05s2.24-1.14,2.24-2.69v-.08h-2.26v-.5H544Z"/><path class="cls-17" d="M545.64,141.2h.5v1h-.5Zm0,2.37h.5v5h-.5Z"/><path class="cls-17" d="M551.83,146.06a2.35,2.35,0,0,1-2.26,2.63c-1.35,0-2.19-1.11-2.19-2.62a2.33,2.33,0,0,1,2.24-2.62C551,143.45,551.83,144.49,551.83,146.06Zm-3.92,0c0,1.19.64,2.15,1.7,2.15s1.69-.89,1.69-2.15-.6-2.15-1.71-2.15S547.91,144.87,547.91,146.07Z"/><path class="cls-17" d="M552.32,143.57h.93V142h.5v1.56h1.19V144h-1.19v3.25c0,.56.12.88.6.88a1.89,1.89,0,0,0,.52-.06v.44a1.76,1.76,0,0,1-.62.09c-.64,0-1-.32-1-1.12V144h-.93Z"/><path class="cls-17" d="M555.25,143.57h.93V142h.5v1.56h1.19V144h-1.19v3.25c0,.56.12.88.6.88a1.89,1.89,0,0,0,.52-.06v.44a1.76,1.76,0,0,1-.62.09c-.64,0-1-.32-1-1.12V144h-.93Z"/><path class="cls-17" d="M562.88,146.06a2.35,2.35,0,0,1-2.26,2.63c-1.35,0-2.19-1.11-2.19-2.62a2.33,2.33,0,0,1,2.24-2.62C562,143.45,562.88,144.49,562.88,146.06Zm-3.92,0c0,1.19.64,2.15,1.7,2.15s1.69-.89,1.69-2.15-.6-2.15-1.71-2.15S559,144.87,559,146.07Z"/><path class="cls-17" d="M570.77,146.06a2.35,2.35,0,0,1-2.26,2.63c-1.35,0-2.19-1.11-2.19-2.62a2.33,2.33,0,0,1,2.24-2.62C569.89,143.45,570.77,144.49,570.77,146.06Zm-3.92,0c0,1.19.64,2.15,1.7,2.15s1.69-.89,1.69-2.15-.6-2.15-1.71-2.15S566.85,144.87,566.85,146.07Z"/><path class="cls-17" d="M572,141.2h.5v3.21a1.72,1.72,0,0,1,1.71-1c1.18,0,2,1,2,2.51s-.78,2.73-2.18,2.73a1.55,1.55,0,0,1-1.58-.91c0,.32,0,.65,0,.79H572c0-.57,0-1.14,0-1.71Zm3.73,4.77c0-1.25-.62-2.05-1.57-2.05-1.25,0-1.69.85-1.69,2.16s.39,2.14,1.63,2.14C575.12,148.22,575.74,147.38,575.74,146Z"/><path class="cls-17" d="M578.1,143.57v5.35c0,1.35-.34,1.75-1.22,1.75l-.28,0v-.47h.23c.71,0,.77-.4.77-1.21v-5.41Zm-.5-1.4v-1h.5v1Z"/><path class="cls-17" d="M579.85,146.13c0,1.29.66,2.09,1.62,2.09a1.41,1.41,0,0,0,1.44-.94h.51a1.92,1.92,0,0,1-2,1.41c-1.52,0-2.11-1.31-2.11-2.58,0-1.43.71-2.66,2.17-2.66a2.07,2.07,0,0,1,2,2.27c0,.14,0,.28,0,.41Zm3.17-.44a1.58,1.58,0,0,0-1.53-1.77c-1,0-1.5.72-1.61,1.77Z"/><path class="cls-17" d="M588.49,147.1a1.92,1.92,0,0,1-1.94,1.59c-1.25,0-2.14-.93-2.14-2.6,0-1.37.73-2.64,2.2-2.64a1.79,1.79,0,0,1,1.88,1.6H588a1.35,1.35,0,0,0-1.38-1.13c-1.06,0-1.66.9-1.66,2.15s.56,2.15,1.61,2.15A1.41,1.41,0,0,0,588,147.1Z"/><path class="cls-17" d="M589,143.57H590V142h.5v1.56h1.19V144h-1.19v3.25c0,.56.12.88.6.88a1.89,1.89,0,0,0,.52-.06v.44a1.76,1.76,0,0,1-.62.09c-.64,0-1-.32-1-1.12V144H589Z"/></svg>