<svg id="Layer_1" data-name="Layer 1" xmlns="http://www.w3.org/2000/svg" viewBox="0 0 804.13 302.94"><defs><style>.cls-1,.cls-2,.cls-3,.cls-5{fill:#fff;}.cls-17,.cls-18,.cls-2,.cls-21,.cls-22,.cls-23,.cls-3,.cls-5,.cls-6{stroke:#231f20;}.cls-11,.cls-12,.cls-13,.cls-14,.cls-16,.cls-17,.cls-18,.cls-19,.cls-2,.cls-21,.cls-22,.cls-23,.cls-3,.cls-5,.cls-6,.cls-7,.cls-8{stroke-miterlimit:10;}.cls-17,.cls-2,.cls-22{opacity:0.75;}.cls-4{font-size:12px;}.cls-4,.cls-9{fill:#231f20;}.cls-15,.cls-4{font-family:Consolas;}.cls-11,.cls-19,.cls-5,.cls-6,.cls-7{stroke-width:0.5px;}.cls-12,.cls-13,.cls-14,.cls-16,.cls-6{fill:none;}.cls-7{fill:#d3cbcd;}.cls-7,.cls-8{stroke:#fff;}.cls-8{fill:#e88dbb;stroke-width:0.2px;}.cls-10{fill:#6d6e71;}.cls-11{fill:#eae4e8;stroke:#a89ea0;}.cls-11,.cls-19{fill-rule:evenodd;}.cls-11,.cls-21{opacity:0.5;}.cls-12,.cls-13,.cls-14,.cls-16{stroke:#d3cbcd;stroke-width:2px;}.cls-13{stroke-dasharray:12.06 12.06;}.cls-14{stroke-dasharray:12.48 12.48;}.cls-15{font-size:26px;fill:#8c8788;}.cls-16{stroke-dasharray:12.06 12.06;}.cls-17,.cls-18{fill:#e88ebb;}.cls-19{fill:#dfedf1;stroke:#4c94a0;}.cls-20{fill:#e63c76;}.cls-21,.cls-22,.cls-23{fill:#9ddaeb;}</style></defs><rect class="cls-1" width="804.13" height="302.94"/><rect class="cls-2" x="467.59" y="145.42" width="110.58" height="78.59" transform="translate(707.6 -338.16) rotate(90)"/><rect class="cls-3" x="463.73" y="141.07" width="110.58" height="78.59" transform="translate(699.38 -338.65) rotate(90)"/><text class="cls-4" transform="translate(497.6 254.95)">@images</text><polygon class="cls-5" points="527.39 70.43 501.06 70.43 501.06 117.35 535.97 117.35 535.97 79 527.39 70.43"/><polyline class="cls-6" points="527.39 70.43 527.39 79 535.97 79"/><rect class="cls-7" x="506.7" y="101.13" width="34.14" height="14.57"/><path class="cls-8" d="M515.38,93.17h-5.55a9.71,9.71,0,0,1,.18-9.31l2.78,4.82h0Z"/><path class="cls-8" d="M513,88.3l-2.78-4.81A9.7,9.7,0,0,1,518.38,79l-2.78,4.82Z"/><path class="cls-8" d="M520.78,93.54,518,98.35a9.66,9.66,0,0,1-8-4.81Z"/><path class="cls-8" d="M523.81,89.06l2.78,4.81a9.7,9.7,0,0,1-8.15,4.49l2.78-4.82Z"/><path class="cls-8" d="M516,83.82,518.81,79a9.7,9.7,0,0,1,8,4.81Z"/><path class="cls-8" d="M528.09,88.68a9.59,9.59,0,0,1-1.28,4.82l-5.37-9.31H527A9.56,9.56,0,0,1,528.09,88.68Z"/><path class="cls-9" d="M512.65,112.57v-1.29h.5v1.29Z"/><path class="cls-9" d="M514.63,105.57h2.5a1.92,1.92,0,0,1,2.16,2,2,2,0,0,1-2.23,2h-1.88v3h-.55Zm.55,3.45h1.93c1.13,0,1.6-.6,1.6-1.48a1.4,1.4,0,0,0-1.56-1.47h-2Z"/><path class="cls-9" d="M520.71,112.57v-7h.8c1.09,1.68,3.65,5.59,4.09,6.35h0c-.06-1-.05-2-.05-3.18v-3.17h.55v7h-.74c-1-1.62-3.64-5.69-4.14-6.46h0c0,.92,0,1.94,0,3.21v3.25Z"/><path class="cls-9" d="M533.47,112.57H533a5.26,5.26,0,0,1-.07-1.12,2.27,2.27,0,0,1-2.26,1.2c-2,0-3-1.53-3-3.52s1.1-3.66,3.15-3.66a2.51,2.51,0,0,1,2.73,2.08H533a2.08,2.08,0,0,0-2.21-1.58c-1.75,0-2.55,1.36-2.55,3.13,0,1.6.77,3.05,2.48,3.05S533,111,533,109.46v-.08h-2.26v-.5h2.78Z"/><path class="cls-10" d="M485.26,268.47V261.1h.5v7.37Z"/><path class="cls-10" d="M491.45,266a2.35,2.35,0,0,1-2.26,2.63c-1.35,0-2.19-1.11-2.19-2.62a2.33,2.33,0,0,1,2.24-2.62C490.57,263.35,491.45,264.39,491.45,266Zm-3.92,0c0,1.19.64,2.15,1.7,2.15s1.69-.89,1.69-2.15-.6-2.15-1.71-2.15S487.53,264.77,487.53,266Z"/><path class="cls-10" d="M492.67,263.47c.74,2.58,1.17,4.06,1.25,4.5h0c.08-.4.58-2,1.36-4.5h.54c.93,3.09,1.21,4,1.3,4.37h0c.14-.55.37-1.3,1.29-4.37H499l-1.58,5h-.55c-.54-1.77-1.19-3.94-1.29-4.4h0c-.1.49-.67,2.28-1.32,4.4h-.6l-1.47-5Z"/><path class="cls-10" d="M502.68,264.83c0-.84,0-1.2,0-1.36h.49c0,.16,0,.48,0,1.12a1.89,1.89,0,0,1,1.74-1.24v.54a1.81,1.81,0,0,0-1.74,2v2.6h-.5Z"/><path class="cls-10" d="M506,266c0,1.29.66,2.09,1.62,2.09a1.41,1.41,0,0,0,1.44-.94h.51a1.92,1.92,0,0,1-2,1.41c-1.52,0-2.11-1.31-2.11-2.58,0-1.43.71-2.66,2.17-2.66a2.07,2.07,0,0,1,2,2.27c0,.14,0,.28,0,.41Zm3.17-.44a1.58,1.58,0,0,0-1.53-1.77c-1,0-1.5.72-1.61,1.77Z"/><path class="cls-10" d="M511,267.09a1.32,1.32,0,0,0,1.42,1c.89,0,1.25-.41,1.25-1s-.24-.85-1.36-1.12c-1.29-.31-1.61-.7-1.61-1.36s.52-1.33,1.65-1.33a1.59,1.59,0,0,1,1.75,1.4h-.5a1.18,1.18,0,0,0-1.27-.94c-.87,0-1.12.43-1.12.83s.24.69,1.23.93c1.41.34,1.76.8,1.76,1.55,0,.91-.74,1.47-1.79,1.47a1.74,1.74,0,0,1-1.92-1.5Z"/><path class="cls-10" d="M518,261.1h.5v1H518Zm0,2.37h.5v5H518Z"/><path class="cls-10" d="M520.16,264.76c0-.43,0-.9,0-1.29h.49c0,.17,0,.6,0,.89a1.56,1.56,0,0,1,1.5-1,1.42,1.42,0,0,1,1.45,1,1.7,1.7,0,0,1,1.63-1c.77,0,1.57.44,1.57,1.83v3.29h-.5v-3.23c0-.67-.24-1.4-1.17-1.4s-1.41.78-1.41,1.75v2.88h-.49v-3.22c0-.73-.22-1.41-1.14-1.41s-1.44.86-1.44,1.88v2.75h-.5Z"/><path class="cls-10" d="M531.82,267.52a5.72,5.72,0,0,0,.07,1h-.48a3.29,3.29,0,0,1-.09-.77,1.64,1.64,0,0,1-1.64.89,1.49,1.49,0,0,1-1.66-1.5c0-1.1.85-1.6,2.35-1.6h1V265c0-.5-.15-1.17-1.29-1.17s-1.16.53-1.27.94h-.5a1.55,1.55,0,0,1,1.78-1.4c1.14,0,1.78.48,1.78,1.58Zm-.49-1.6h-1c-1.11,0-1.8.29-1.8,1.15a1,1,0,0,0,1.15,1.06c1.43,0,1.63-.95,1.63-2Z"/><path class="cls-10" d="M537.29,268.13c0,1.59-.71,2.43-2.16,2.43a1.75,1.75,0,0,1-2-1.48h.51a1.39,1.39,0,0,0,1.47,1c1.3,0,1.66-.83,1.66-2.1v-.52a1.58,1.58,0,0,1-1.67,1c-1.17,0-2.07-1-2.07-2.5s1-2.62,2.14-2.62c1,0,1.46.48,1.6.88,0-.29,0-.64,0-.76h.47c0,.18,0,1,0,1.45ZM533.6,266c0,1.19.63,2.05,1.59,2.05,1.25,0,1.63-.83,1.63-2.13s-.4-2.05-1.6-2.05S533.6,264.81,533.6,266Z"/><path class="cls-10" d="M539,266c0,1.29.66,2.09,1.62,2.09a1.41,1.41,0,0,0,1.44-.94h.51a1.92,1.92,0,0,1-2,1.41c-1.52,0-2.11-1.31-2.11-2.58,0-1.43.71-2.66,2.17-2.66a2.07,2.07,0,0,1,2,2.27c0,.14,0,.28,0,.41Zm3.17-.44a1.58,1.58,0,0,0-1.53-1.77c-1,0-1.5.72-1.61,1.77Z"/><path class="cls-10" d="M550.41,261.1V267c0,.48,0,.94,0,1.44h-.48c0-.12,0-.59,0-.84a1.64,1.64,0,0,1-1.68,1c-1.3,0-2.08-1.06-2.08-2.56s.85-2.68,2.21-2.68c1,0,1.4.43,1.55.75v-3ZM546.68,266c0,1.37.71,2.11,1.57,2.11,1.32,0,1.68-.91,1.68-2.27s-.31-2-1.59-2C547.35,263.82,546.68,264.61,546.68,266Z"/><path class="cls-10" d="M555.41,267.52a5.72,5.72,0,0,0,.07,1H555a3.29,3.29,0,0,1-.09-.77,1.64,1.64,0,0,1-1.64.89,1.49,1.49,0,0,1-1.66-1.5c0-1.1.85-1.6,2.35-1.6h.95V265c0-.5-.15-1.17-1.29-1.17s-1.16.53-1.27.94h-.5a1.55,1.55,0,0,1,1.78-1.4c1.14,0,1.78.48,1.78,1.58Zm-.49-1.6h-1c-1.11,0-1.8.29-1.8,1.15a1,1,0,0,0,1.15,1.06c1.43,0,1.63-.95,1.63-2Z"/><path class="cls-10" d="M556.26,263.47h.93v-1.56h.5v1.56h1.19v.47h-1.19v3.25c0,.56.12.88.6.88a1.89,1.89,0,0,0,.52-.06v.44a1.76,1.76,0,0,1-.62.09c-.64,0-1-.32-1-1.12v-3.48h-.93Z"/><path class="cls-10" d="M563.33,267.52a5.72,5.72,0,0,0,.07,1h-.48a3.29,3.29,0,0,1-.09-.77,1.64,1.64,0,0,1-1.64.89,1.49,1.49,0,0,1-1.66-1.5c0-1.1.85-1.6,2.35-1.6h1V265c0-.5-.15-1.17-1.29-1.17s-1.16.53-1.27.94h-.5a1.55,1.55,0,0,1,1.78-1.4c1.14,0,1.78.48,1.78,1.58Zm-.49-1.6h-1c-1.11,0-1.8.29-1.8,1.15a1,1,0,0,0,1.15,1.06c1.43,0,1.63-.95,1.63-2Z"/><path class="cls-11" d="M280.75,111.25c.62-.57,2.1-1.51,2.72-2.09a3.51,3.51,0,0,0,0-2.71c-.31-1.06-1.12-2.21-1.65-3.48-.8-1.14-1.33-2.41-2.13-3.55C277.28,96,274.22,92,269.23,90c-2.13-.85-5.19-2.19-7.52-2.08a17.23,17.23,0,0,0-4,.52,27.57,27.57,0,0,0-4.37,1.28c-7.12,3.35-.24,9.88,4.15,13.65a45.29,45.29,0,0,0,8.29,6.29c1.87,1,4.89,2.68,7.46,2.77a12.82,12.82,0,0,0,7.47-1.15"/><polyline class="cls-12" points="385.54 284.22 385.54 290.22 379.54 290.22"/><line class="cls-13" x1="367.47" y1="290.22" x2="35.7" y2="290.22"/><polyline class="cls-12" points="29.66 290.22 23.66 290.22 23.66 284.22"/><line class="cls-14" x1="23.66" y1="271.73" x2="23.66" y2="53.28"/><polyline class="cls-12" points="23.66 47.04 23.66 41.04 29.66 41.04"/><line class="cls-13" x1="41.73" y1="41.04" x2="373.5" y2="41.04"/><polyline class="cls-12" points="379.54 41.04 385.54 41.04 385.54 47.04"/><line class="cls-14" x1="385.54" y1="59.52" x2="385.54" y2="277.98"/><text class="cls-15" transform="translate(43.39 25.07)">subcellular data</text><polyline class="cls-12" points="784.34 284.22 784.34 290.22 778.34 290.22"/><line class="cls-16" x1="766.28" y1="290.22" x2="434.5" y2="290.22"/><polyline class="cls-12" points="428.47 290.22 422.47 290.22 422.47 284.22"/><line class="cls-14" x1="422.47" y1="271.73" x2="422.47" y2="53.28"/><polyline class="cls-12" points="422.47 47.04 422.47 41.04 428.47 41.04"/><line class="cls-16" x1="440.53" y1="41.04" x2="772.31" y2="41.04"/><polyline class="cls-12" points="778.34 41.04 784.34 41.04 784.34 47.04"/><line class="cls-14" x1="784.34" y1="59.52" x2="784.34" y2="277.98"/><text class="cls-15" transform="translate(442.5 25.07)">image data</text><text class="cls-4" transform="translate(85.26 254.95)">@spatial_info</text><path class="cls-10" d="M87.65,267.73v2.73h-.5V264.7c0-.41,0-.85,0-1.23h.49c0,.19,0,.49,0,.9a1.84,1.84,0,0,1,1.76-1c1.18,0,2,1,2,2.49,0,1.8-1,2.75-2.17,2.75A1.64,1.64,0,0,1,87.65,267.73Zm3.23-1.87c0-1.16-.56-2-1.55-2-1.21,0-1.71.76-1.71,2.12s.39,2.17,1.64,2.17C90.3,268.12,90.88,267.24,90.88,265.86Z"/><path class="cls-10" d="M96.77,266a2.35,2.35,0,0,1-2.26,2.63c-1.35,0-2.19-1.11-2.19-2.62a2.33,2.33,0,0,1,2.24-2.62C95.89,263.35,96.77,264.39,96.77,266Zm-3.92,0c0,1.19.64,2.15,1.7,2.15s1.69-.89,1.69-2.15-.6-2.15-1.71-2.15S92.85,264.77,92.85,266Z"/><path class="cls-10" d="M98,268.47V261.1h.5v7.37Z"/><path class="cls-10" d="M100.12,263.47c1,2.86,1.45,4,1.62,4.58h0c.2-.61.6-1.77,1.57-4.58h.52L102,268.76c-.53,1.47-.89,1.8-1.79,1.8a3.33,3.33,0,0,1-.46,0V270l.45,0c.72,0,1-.35,1.32-1.37l-1.91-5.22Z"/><path class="cls-10" d="M108.65,268.13c0,1.59-.71,2.43-2.16,2.43a1.75,1.75,0,0,1-2-1.48H105a1.39,1.39,0,0,0,1.47,1c1.3,0,1.66-.83,1.66-2.1v-.52a1.58,1.58,0,0,1-1.67,1c-1.17,0-2.07-1-2.07-2.5s1-2.62,2.14-2.62c1,0,1.46.48,1.6.88,0-.29,0-.64,0-.76h.47c0,.18,0,1,0,1.45ZM105,266c0,1.19.63,2.05,1.59,2.05,1.25,0,1.63-.83,1.63-2.13s-.4-2.05-1.6-2.05S105,264.81,105,266Z"/><path class="cls-10" d="M114.34,266a2.35,2.35,0,0,1-2.26,2.63c-1.35,0-2.19-1.11-2.19-2.62a2.33,2.33,0,0,1,2.24-2.62C113.46,263.35,114.34,264.39,114.34,266Zm-3.92,0c0,1.19.64,2.15,1.7,2.15s1.69-.89,1.69-2.15-.6-2.15-1.71-2.15S110.42,264.77,110.42,266Z"/><path class="cls-10" d="M115.58,264.73c0-.44,0-.86,0-1.26h.49c0,.16,0,.81,0,.95a1.63,1.63,0,0,1,1.66-1.07c.89,0,1.68.5,1.68,1.88v3.24h-.5v-3.16c0-.89-.37-1.47-1.24-1.47-1.19,0-1.6,1-1.6,2.08v2.55h-.5Z"/><path class="cls-10" d="M127.09,267.52a5.72,5.72,0,0,0,.07,1h-.48a3.29,3.29,0,0,1-.09-.77,1.64,1.64,0,0,1-1.64.89,1.49,1.49,0,0,1-1.66-1.5c0-1.1.85-1.6,2.35-1.6h1V265c0-.5-.15-1.17-1.29-1.17s-1.16.53-1.27.94h-.5a1.55,1.55,0,0,1,1.78-1.4c1.14,0,1.78.48,1.78,1.58Zm-.49-1.6h-1c-1.11,0-1.8.29-1.8,1.15a1,1,0,0,0,1.15,1.06c1.43,0,1.63-.95,1.63-2Z"/><path class="cls-10" d="M128.74,264.73c0-.44,0-.86,0-1.26h.49c0,.16,0,.81,0,.95a1.63,1.63,0,0,1,1.66-1.07c.89,0,1.68.5,1.68,1.88v3.24h-.5v-3.16c0-.89-.37-1.47-1.24-1.47-1.19,0-1.6,1-1.6,2.08v2.55h-.5Z"/><path class="cls-10" d="M134.22,264.73c0-.44,0-.86,0-1.26h.49c0,.16,0,.81,0,.95a1.63,1.63,0,0,1,1.66-1.07c.89,0,1.68.5,1.68,1.88v3.24h-.5v-3.16c0-.89-.37-1.47-1.24-1.47-1.19,0-1.6,1-1.6,2.08v2.55h-.5Z"/><path class="cls-10" d="M143.75,266a2.35,2.35,0,0,1-2.26,2.63c-1.35,0-2.19-1.11-2.19-2.62a2.33,2.33,0,0,1,2.24-2.62C142.87,263.35,143.75,264.39,143.75,266Zm-3.92,0c0,1.19.64,2.15,1.7,2.15s1.69-.89,1.69-2.15-.6-2.15-1.71-2.15S139.83,264.77,139.83,266Z"/><path class="cls-10" d="M144.24,263.47h.93v-1.56h.5v1.56h1.19v.47h-1.19v3.25c0,.56.12.88.6.88a1.89,1.89,0,0,0,.52-.06v.44a1.76,1.76,0,0,1-.62.09c-.64,0-1-.32-1-1.12v-3.48h-.93Z"/><path class="cls-10" d="M151.31,267.52a5.72,5.72,0,0,0,.07,1h-.48a3.29,3.29,0,0,1-.09-.77,1.64,1.64,0,0,1-1.64.89,1.49,1.49,0,0,1-1.66-1.5c0-1.1.85-1.6,2.35-1.6h.95V265c0-.5-.15-1.17-1.29-1.17s-1.16.53-1.27.94h-.5a1.55,1.55,0,0,1,1.78-1.4c1.14,0,1.78.48,1.78,1.58Zm-.49-1.6h-1c-1.11,0-1.8.29-1.8,1.15a1,1,0,0,0,1.15,1.06c1.43,0,1.63-.95,1.63-2Z"/><path class="cls-10" d="M152.16,263.47h.93v-1.56h.5v1.56h1.19v.47h-1.19v3.25c0,.56.12.88.6.88a1.89,1.89,0,0,0,.52-.06v.44a1.76,1.76,0,0,1-.62.09c-.64,0-1-.32-1-1.12v-3.48h-.93Z"/><path class="cls-10" d="M155.8,261.1h.5v1h-.5Zm0,2.37h.5v5h-.5Z"/><path class="cls-10" d="M162,266a2.35,2.35,0,0,1-2.26,2.63c-1.35,0-2.19-1.11-2.19-2.62a2.33,2.33,0,0,1,2.24-2.62C161.11,263.35,162,264.39,162,266Zm-3.92,0c0,1.19.64,2.15,1.7,2.15s1.69-.89,1.69-2.15-.6-2.15-1.71-2.15S158.07,264.77,158.07,266Z"/><path class="cls-10" d="M163.23,264.73c0-.44,0-.86,0-1.26h.49c0,.16,0,.81,0,.95a1.63,1.63,0,0,1,1.66-1.07c.89,0,1.68.5,1.68,1.88v3.24h-.5v-3.16c0-.89-.37-1.47-1.24-1.47-1.19,0-1.6,1-1.6,2.08v2.55h-.5Z"/><path class="cls-10" d="M168.68,267.09a1.32,1.32,0,0,0,1.42,1c.89,0,1.25-.41,1.25-1s-.24-.85-1.36-1.12c-1.29-.31-1.61-.7-1.61-1.36s.52-1.33,1.65-1.33a1.59,1.59,0,0,1,1.75,1.4h-.5a1.18,1.18,0,0,0-1.27-.94c-.87,0-1.12.43-1.12.83s.24.69,1.23.93c1.41.34,1.76.8,1.76,1.55,0,.91-.74,1.47-1.79,1.47a1.74,1.74,0,0,1-1.92-1.5Z"/><rect class="cls-17" x="230.97" y="145.42" width="110.58" height="78.59" transform="translate(470.98 -101.54) rotate(90)"/><rect class="cls-18" x="227.11" y="141.07" width="110.58" height="78.59" transform="translate(462.76 -102.04) rotate(90)"/><text class="cls-4" transform="translate(253.99 254.95)">@feat_info</text><path class="cls-10" d="M261.15,267.73v2.73h-.5V264.7c0-.41,0-.85,0-1.23h.49c0,.19,0,.49,0,.9a1.82,1.82,0,0,1,1.75-1c1.18,0,2,1,2,2.49,0,1.8-1,2.75-2.17,2.75A1.63,1.63,0,0,1,261.15,267.73Zm3.22-1.87c0-1.16-.56-2-1.55-2-1.2,0-1.7.76-1.7,2.12s.38,2.17,1.63,2.17C263.79,268.12,264.37,267.24,264.37,265.86Z"/><path class="cls-10" d="M270.26,266a2.35,2.35,0,0,1-2.26,2.63c-1.34,0-2.18-1.11-2.18-2.62s.79-2.62,2.23-2.62S270.26,264.39,270.26,266Zm-3.91,0c0,1.19.64,2.15,1.69,2.15s1.69-.89,1.69-2.15-.6-2.15-1.7-2.15S266.35,264.77,266.35,266Z"/><path class="cls-10" d="M271.54,261.1h.5v1h-.5Zm0,2.37h.5v5h-.5Z"/><path class="cls-10" d="M273.69,264.73c0-.44,0-.86,0-1.26h.49c0,.16,0,.81,0,.95a1.63,1.63,0,0,1,1.65-1.07c.89,0,1.68.5,1.68,1.88v3.24H277v-3.16c0-.89-.37-1.47-1.24-1.47-1.18,0-1.59,1-1.59,2.08v2.55h-.5Z"/><path class="cls-10" d="M278.39,263.47h.92v-1.56h.5v1.56H281v.47h-1.19v3.25c0,.56.12.88.6.88a1.89,1.89,0,0,0,.52-.06v.44a1.76,1.76,0,0,1-.62.09c-.64,0-1-.32-1-1.12v-3.48h-.92Z"/><path class="cls-10" d="M288.48,261.1V267c0,.48,0,.94,0,1.44H288c0-.12,0-.59,0-.84a1.64,1.64,0,0,1-1.68,1c-1.3,0-2.07-1.06-2.07-2.56s.85-2.68,2.2-2.68c1,0,1.4.43,1.55.75v-3ZM284.75,266c0,1.37.71,2.11,1.57,2.11,1.32,0,1.68-.91,1.68-2.27s-.31-2-1.59-2C285.42,263.82,284.75,264.61,284.75,266Z"/><path class="cls-10" d="M293.48,267.52a5.72,5.72,0,0,0,.07,1h-.48a3.29,3.29,0,0,1-.09-.77,1.64,1.64,0,0,1-1.64.89,1.48,1.48,0,0,1-1.65-1.5c0-1.1.84-1.6,2.34-1.6h1V265c0-.5-.15-1.17-1.29-1.17s-1.16.53-1.27.94h-.5a1.57,1.57,0,0,1,1.78-1.4c1.14,0,1.78.48,1.78,1.58Zm-.49-1.6h-1c-1.11,0-1.8.29-1.8,1.15a1,1,0,0,0,1.15,1.06c1.43,0,1.63-.95,1.63-2Z"/><path class="cls-10" d="M294.34,263.47h.92v-1.56h.5v1.56H297v.47h-1.19v3.25c0,.56.12.88.6.88a1.89,1.89,0,0,0,.52-.06v.44a1.76,1.76,0,0,1-.62.09c-.63,0-1-.32-1-1.12v-3.48h-.92Z"/><path class="cls-10" d="M301.4,267.52a5.72,5.72,0,0,0,.07,1H301a3.29,3.29,0,0,1-.09-.77,1.64,1.64,0,0,1-1.64.89,1.48,1.48,0,0,1-1.65-1.5c0-1.1.84-1.6,2.34-1.6h.95V265c0-.5-.15-1.17-1.29-1.17s-1.16.53-1.27.94h-.5a1.57,1.57,0,0,1,1.78-1.4c1.14,0,1.78.48,1.78,1.58Zm-.49-1.6h-1c-1.11,0-1.8.29-1.8,1.15a1,1,0,0,0,1.15,1.06c1.43,0,1.63-.95,1.63-2Z"/><path class="cls-10" d="M260.78,280.47v-4.53h-.86v-.47h.86v-.71c0-.84.24-1.76,1.35-1.76a2,2,0,0,1,.5.07v.48a2.64,2.64,0,0,0-.55-.06c-.58,0-.8.42-.8,1.29v.69h1.09v.47h-1.09v4.53Z"/><path class="cls-10" d="M263.27,278c0,1.29.65,2.09,1.61,2.09a1.41,1.41,0,0,0,1.44-.94h.51a1.92,1.92,0,0,1-2,1.41c-1.51,0-2.1-1.31-2.1-2.58,0-1.43.7-2.66,2.16-2.66a2.07,2.07,0,0,1,2,2.27c0,.14,0,.28,0,.41Zm3.16-.44a1.58,1.58,0,0,0-1.53-1.77c-1,0-1.49.72-1.61,1.77Z"/><path class="cls-10" d="M271.6,279.52a5.72,5.72,0,0,0,.07,1h-.48a3.29,3.29,0,0,1-.09-.77,1.63,1.63,0,0,1-1.64.89,1.49,1.49,0,0,1-1.65-1.5c0-1.1.85-1.6,2.35-1.6h.94V277c0-.5-.15-1.17-1.28-1.17s-1.16.53-1.27.94h-.5a1.55,1.55,0,0,1,1.78-1.4c1.13,0,1.77.48,1.77,1.58Zm-.49-1.6h-1c-1.1,0-1.79.29-1.79,1.15a1,1,0,0,0,1.15,1.06c1.42,0,1.62-.95,1.62-2Z"/><path class="cls-10" d="M272.46,275.47h.92v-1.56h.5v1.56h1.19v.47h-1.19v3.25c0,.56.12.88.6.88A1.89,1.89,0,0,0,275,280v.44a1.76,1.76,0,0,1-.62.09c-.63,0-1-.32-1-1.12v-3.48h-.92Z"/><path class="cls-10" d="M279.69,279c0,.49,0,1.27,0,1.46h-.48a8,8,0,0,1,0-.87,1.53,1.53,0,0,1-1.61,1c-.71,0-1.63-.28-1.63-1.81v-3.31h.48v3.19c0,.73.24,1.44,1.22,1.44s1.54-.63,1.54-2.06v-2.57h.5Z"/><path class="cls-10" d="M281.33,276.83v-1.36h.48c0,.16,0,.48,0,1.12a1.9,1.9,0,0,1,1.74-1.24v.54a1.81,1.81,0,0,0-1.74,2v2.6h-.5Z"/><path class="cls-10" d="M284.61,278c0,1.29.65,2.09,1.61,2.09a1.41,1.41,0,0,0,1.44-.94h.51a1.92,1.92,0,0,1-2,1.41c-1.51,0-2.1-1.31-2.1-2.58,0-1.43.7-2.66,2.16-2.66a2.07,2.07,0,0,1,2,2.27c0,.14,0,.28,0,.41Zm3.16-.44a1.58,1.58,0,0,0-1.53-1.77c-1,0-1.49.72-1.61,1.77Z"/><path class="cls-10" d="M292.12,276.73c0-.44,0-.86,0-1.26h.48a7.66,7.66,0,0,1,0,.95,1.62,1.62,0,0,1,1.65-1.07c.89,0,1.68.5,1.68,1.88v3.24h-.5v-3.16c0-.89-.37-1.47-1.24-1.47-1.18,0-1.59,1-1.59,2.08v2.55h-.5Z"/><path class="cls-10" d="M297.71,278c0,1.29.65,2.09,1.61,2.09a1.41,1.41,0,0,0,1.44-.94h.51a1.92,1.92,0,0,1-2,1.41c-1.51,0-2.1-1.31-2.1-2.58,0-1.43.7-2.66,2.16-2.66a2.07,2.07,0,0,1,2,2.27c0,.14,0,.28,0,.41Zm3.16-.44a1.58,1.58,0,0,0-1.53-1.77c-1,0-1.5.72-1.61,1.77Z"/><path class="cls-10" d="M302,275.47h.93v-1.56h.5v1.56h1.18v.47h-1.18v3.25c0,.56.12.88.59.88a1.85,1.85,0,0,0,.52-.06v.44a1.73,1.73,0,0,1-.61.09c-.64,0-1-.32-1-1.12v-3.48H302Z"/><path class="cls-10" d="M305.71,275.47c.75,2.58,1.17,4.06,1.25,4.5h0c.08-.4.58-2,1.36-4.5h.54c.93,3.09,1.21,4,1.3,4.37h0c.14-.55.37-1.3,1.29-4.37H312l-1.58,5h-.55c-.54-1.77-1.19-3.94-1.29-4.4h0c-.1.49-.67,2.28-1.32,4.4h-.6l-1.46-5Z"/><path class="cls-10" d="M317.08,278a2.35,2.35,0,0,1-2.26,2.63c-1.34,0-2.18-1.11-2.18-2.62s.78-2.62,2.23-2.62S317.08,276.39,317.08,278Zm-3.91,0c0,1.19.63,2.15,1.69,2.15s1.69-.89,1.69-2.15-.6-2.15-1.71-2.15S313.17,276.77,313.17,278Z"/><path class="cls-10" d="M318.33,276.83c0-.84,0-1.2,0-1.36h.48c0,.16,0,.48,0,1.12a1.88,1.88,0,0,1,1.73-1.24v.54a1.8,1.8,0,0,0-1.73,2v2.6h-.5Z"/><path class="cls-10" d="M322.06,278.05c.46-.49,1.86-1.91,2.53-2.58h.64l-2,2,2.23,3h-.62l-2-2.69-.83.8v1.89h-.5V273.1h.5Z"/><path class="cls-19" d="M135,94c-.08.25-.33.7-.41,1a1.71,1.71,0,0,0,.53.91c.31.34.78.65,1.19,1s.88.7,1.35,1a12.1,12.1,0,0,0,5.09,2.3,7.09,7.09,0,0,0,2.71,0,3.83,3.83,0,0,0,1.09-.54,5.61,5.61,0,0,0,1.05-.84c1.45-1.79-2-3.39-4.05-4.27a21.34,21.34,0,0,0-3.75-1.38,7.13,7.13,0,0,0-2.79-.27,3,3,0,0,0-2,1"/><path class="cls-19" d="M140,85.49c-.94.3-1.56,1.3-2.23,2.53s-1.4,1.34-1,2.23a2.68,2.68,0,0,0,2,1.66c4.78,1.52,7-1.81,9.12-4.08.19-.09,0-.64-.3-.82a18.07,18.07,0,0,0-3.6-2,6.92,6.92,0,0,0-3,0,3.38,3.38,0,0,1-1,.42"/><path class="cls-19" d="M131.92,90.17c-.83-1.43-4.46-4.43-6.17-5.26s-2.81,0-4.61.23-2,3.41-.46,4.5,1.66,2.1,2.71,2.61,2.74.17,4.45.09,5.09-.41,4.08-2.17"/><path class="cls-19" d="M132.42,104a1.26,1.26,0,0,1,.5,1.68c-.28.82-1.56,1.48-2.54,2-1.23.75-4,1.47-5.51.29-.53-.45-1.67-1.52-1.58-2,.18-.79,1.92-.89,2.52-1.4a3.9,3.9,0,0,1,2.76-1.18,8.67,8.67,0,0,1,2.21.25,7.71,7.71,0,0,1,1.64.39Z"/><path class="cls-19" d="M131.92,94.87c1,.61.8.72.89,1.14.18.61-.86,1.85-1.29,2.35a10.81,10.81,0,0,1-2.45,2c-1.75,1.07-3.6,2.92-6,1.22a7,7,0,0,1-1.06-1,3.1,3.1,0,0,1-.61-1c-.26-.57.18-1.31.44-1.83.62-1.21,2.46-2,4-2.56a10.77,10.77,0,0,1,1.66-.52c.61-.13,1.13-.33,1.66-.41a3.88,3.88,0,0,1,1.4,0c.35.15,1,.49,1.31.64Z"/><path class="cls-19" d="M118.45,81.05c-.86-.74-1.18-1.92-.77-2.34.8-.64,3.18-.84,4.41-.86a19.51,19.51,0,0,0,3.07,0c1.15-.18,1.87-.47,2.73.27,1.29,1.11,2,3.54,0,4.13-.77.21-2,.31-2.77.44-1,.25-2,.49-3,.66-2.08.33-2.49-1.28-3.58-2.25Z"/><path class="cls-19" d="M135.77,107.37h0c-3.41-.78,3.29-5.12,5.41-4.74s2,2.22,1.75,3.33c-.29,1.29-.35,2.7-.64,4a15.63,15.63,0,0,1-6.16-2.37Z"/><path class="cls-19" d="M109,95.7c.34.5-.09.67-.47,1.81s-1,2.67-1.42,4-.9,2.37-2,2.5a3.5,3.5,0,0,1-2.77-.15c-3-1.5-3.74-2.64-2.34-4.89a33.22,33.22,0,0,1,2.88-3.66c2.56-2.75,3.8-1.67,6,.25Z"/><path class="cls-19" d="M114.26,87.12c-1.36-2-7.47-2.63-7.24,0,.23,1.31-1.13,4-.19,5.19.69.84,2.7,1.89,3.68,2.57,1.52.9,9.28.55,10.68-.28,1.84-1.13-1.78-2.41-2.86-3.24a16.66,16.66,0,0,1-4.07-4.27"/><path class="cls-19" d="M115.58,105.82a12.59,12.59,0,0,1-3.81.43c-2-.26-2.06-1.47-2-2.59.31-1.46-.25-3.94,1-4.87a11.94,11.94,0,0,1,2.89-1.53c2.29-.41,4.58,2.81,5.22,3.84s-.24,3.69-3.34,4.72"/><path class="cls-19" d="M104.58,105.26a3.08,3.08,0,0,1,2.43.34,5.66,5.66,0,0,1,2.2,2.5c.78,1.12,1.18,3.29-.79,3.81a7.69,7.69,0,0,1-3.13.27c-1.07-.44-.84-1.66-1.42-2.26-.72-.78-1.31-1.48-1-2.34a3.21,3.21,0,0,1,.85-1.38c.22-.25.53-.77.89-.94Z"/><path class="cls-19" d="M118.28,108.19c-.85-.87-.47-.7-2.15-.53s-2.7-.08-3.34.61-.57.35-.68,2.36.66,3.25,2.14,3.25,5.65-2.73,4-5.69"/><path class="cls-19" d="M114,72.51c-1.1-.82-3.55-.36-4.8-.05-3.71.77-2.36,3.73-2.11,5.88a26.7,26.7,0,0,0,.54,3.49,3.15,3.15,0,0,0,3,2.1c3,.73,3.89-.85,4.24-1.88s.52-8.41-.86-9.54"/><path class="cls-19" d="M124.4,76.15c.21-.19.7-.5.91-.69a1.24,1.24,0,0,0,0-.91c-.1-.35-.37-.74-.55-1.16s-.44-.8-.71-1.18a8.05,8.05,0,0,0-3.49-3.15,6.84,6.84,0,0,0-2.51-.7,6.13,6.13,0,0,0-1.32.17,10,10,0,0,0-1.46.43c-2.38,1.12-.08,3.3,1.38,4.55a14.8,14.8,0,0,0,2.77,2.1,6.51,6.51,0,0,0,2.49.93,4.3,4.3,0,0,0,2.49-.39"/><path class="cls-19" d="M134.14,86.77c-1.4-.35-3.17-.71-3.94-1.33-1.54-1.23,2.14-5.26,2.77-6.18s.81-1.38,2.42-1.3a7.76,7.76,0,0,1,2.71.18c.66.25.15,1.2.14,1.86s-.19,4.64-1,5.36-1.84,1.74-3.11,1.41"/><path class="cls-19" d="M125.91,70.34c-1.19.38-1,.17-.7,1.27s-.11,1.7.86,2.23.48.42,3.24.84,4.44.14,4.42-.8-3.78-4-7.82-3.54"/><path class="cls-11" d="M313.75,96.55c-2.61-4.45-14-13.85-19.32-16.45-5.76-2.86-8.78,0-14.4.73-5.2,1-6.15,10.65-1.44,14.06s5.17,6.58,8.48,8.17c3.35,1.85,8.55.55,13.89.29,5-.25,16-1.28,12.79-6.8"/><circle class="cls-20" cx="266.92" cy="99.27" r="0.57"/><circle class="cls-20" cx="265.79" cy="105.76" r="0.57"/><circle class="cls-20" cx="271.98" cy="96.72" r="0.57"/><circle class="cls-20" cx="271.75" cy="94.31" r="0.57"/><circle class="cls-20" cx="266.36" cy="91.37" r="0.57"/><circle class="cls-20" cx="261.86" cy="95.44" r="0.57"/><circle class="cls-20" cx="276" cy="102.58" r="0.57"/><circle class="cls-20" cx="271.75" cy="106.89" r="0.57"/><circle class="cls-20" cx="267.16" cy="96.94" r="0.57"/><circle class="cls-20" cx="259.83" cy="90.66" r="0.57"/><circle class="cls-20" cx="268.85" cy="108.93" r="0.57"/><circle class="cls-20" cx="261.86" cy="99.27" r="0.57"/><circle class="cls-20" cx="280.9" cy="83.51" r="0.57"/><circle class="cls-20" cx="268.29" cy="91.93" r="0.57"/><circle class="cls-20" cx="284.92" cy="95.44" r="0.57"/><circle class="cls-20" cx="280.34" cy="92.22" r="0.57"/><circle class="cls-20" cx="286.05" cy="97.85" r="0.57"/><circle class="cls-20" cx="280.48" cy="93.74" r="0.57"/><circle class="cls-20" cx="276.85" cy="89.05" r="0.57"/><circle class="cls-20" cx="279.91" cy="84.07" r="0.57"/><circle class="cls-20" cx="284.29" cy="85.07" r="0.57"/><circle class="cls-20" cx="285.49" cy="87.49" r="0.57"/><circle class="cls-20" cx="273.17" cy="103.59" r="0.57"/><circle class="cls-20" cx="270.09" cy="103.59" r="0.57"/><circle class="cls-20" cx="270.66" cy="105.38" r="0.57"/><circle class="cls-20" cx="270.09" cy="97.51" r="0.57"/><circle class="cls-20" cx="268.29" cy="96.57" r="0.57"/><circle class="cls-20" cx="276" cy="98.08" r="0.57"/><circle class="cls-20" cx="274.3" cy="97.28" r="0.57"/><circle class="cls-20" cx="277.98" cy="102.58" r="0.57"/><circle class="cls-20" cx="275.43" cy="109.49" r="0.57"/><circle class="cls-20" cx="277.42" cy="91.65" r="0.57"/><circle class="cls-20" cx="289.95" cy="85.21" r="0.57"/><circle class="cls-20" cx="279.34" cy="87.3" r="0.57"/><circle class="cls-20" cx="286.05" cy="99.65" r="0.57"/><circle class="cls-20" cx="291.06" cy="88.76" r="0.57"/><circle class="cls-20" cx="282.9" cy="95.44" r="0.57"/><circle class="cls-20" cx="292.19" cy="96.38" r="0.57"/><circle class="cls-20" cx="303.39" cy="88.05" r="0.57"/><circle class="cls-20" cx="294.54" cy="96.72" r="0.57"/><circle class="cls-20" cx="296.13" cy="86.49" r="0.57"/><circle class="cls-20" cx="304.17" cy="99.65" r="0.57"/><circle class="cls-20" cx="288.46" cy="86.49" r="0.57"/><circle class="cls-20" cx="287.19" cy="81.97" r="0.57"/><circle class="cls-20" cx="302.26" cy="91.09" r="0.57"/><circle class="cls-20" cx="278.55" cy="86.49" r="0.57"/><circle class="cls-20" cx="288.46" cy="91.37" r="0.57"/><circle class="cls-20" cx="293.47" cy="84.5" r="0.57"/><circle class="cls-20" cx="290.22" cy="91.7" r="0.57"/><circle class="cls-20" cx="284.86" cy="90.09" r="0.57"/><circle class="cls-20" cx="289.4" cy="102.02" r="0.57"/><rect class="cls-21" x="89.89" y="133.12" width="78.59" height="110.58"/><rect class="cls-22" x="85.86" y="129.03" width="78.59" height="110.58"/><rect class="cls-23" x="82.16" y="125.08" width="78.59" height="110.58"/><rect class="cls-2" x="630.71" y="145.42" width="110.58" height="78.59" transform="translate(870.71 -501.28) rotate(90)"/><rect class="cls-3" x="626.84" y="141.07" width="110.58" height="78.59" transform="translate(862.5 -501.77) rotate(90)"/><text class="cls-4" transform="translate(643.72 254.95)">@largeImages</text><polygon class="cls-5" points="690.51 70.44 664.17 70.44 664.17 117.36 699.09 117.36 699.09 79.01 690.51 70.44"/><polyline class="cls-6" points="690.51 70.44 690.51 79.01 699.09 79.01"/><rect class="cls-7" x="669.81" y="101.13" width="34.14" height="14.57"/><path class="cls-8" d="M678.5,93.18h-5.56a9.68,9.68,0,0,1,.19-9.31l2.78,4.82h0Z"/><path class="cls-8" d="M676.13,88.31l-2.78-4.81A9.68,9.68,0,0,1,681.5,79l-2.78,4.82Z"/><path class="cls-8" d="M683.9,93.55l-2.78,4.81a9.64,9.64,0,0,1-8-4.81Z"/><path class="cls-8" d="M686.92,89.06l2.78,4.82a9.68,9.68,0,0,1-8.15,4.49l2.78-4.82Z"/><path class="cls-8" d="M679.15,83.83,681.93,79a9.66,9.66,0,0,1,8,4.81Z"/><path class="cls-8" d="M691.21,88.69a9.69,9.69,0,0,1-1.28,4.82l-5.38-9.31h5.56A9.68,9.68,0,0,1,691.21,88.69Z"/><path class="cls-9" d="M675.77,112.58v-1.29h.5v1.29Z"/><path class="cls-9" d="M678.38,106.08H676v-.5h5.26v.5h-2.36v6.5h-.55Z"/><path class="cls-9" d="M682.87,105.58v7h-.54v-7Z"/><path class="cls-9" d="M684.93,105.58h4.24v.5h-3.7v2.64h3.47v.5h-3.47v3.36h-.54Z"/><path class="cls-10" d="M646.51,268.47v-4.53h-.86v-.47h.86v-.71c0-.84.24-1.76,1.36-1.76a1.87,1.87,0,0,1,.49.07v.48a2.48,2.48,0,0,0-.54-.06c-.59,0-.81.42-.81,1.29v.69h1.09v.47H647v4.53Z"/><path class="cls-10" d="M652.67,267c0,.49,0,1.27,0,1.46h-.48a8,8,0,0,1,0-.87,1.53,1.53,0,0,1-1.61,1c-.72,0-1.64-.28-1.64-1.81v-3.31h.49v3.19c0,.73.23,1.44,1.22,1.44s1.54-.63,1.54-2.06v-2.57h.5Z"/><path class="cls-10" d="M654.31,268.47V261.1h.5v7.37Z"/><path class="cls-10" d="M656.45,268.47V261.1h.5v7.37Z"/><path class="cls-10" d="M661.19,264.83c0-.84,0-1.2,0-1.36h.49c0,.16,0,.48,0,1.12a1.89,1.89,0,0,1,1.74-1.24v.54a1.81,1.81,0,0,0-1.74,2v2.6h-.5Z"/><path class="cls-10" d="M664.46,266c0,1.29.66,2.09,1.62,2.09a1.41,1.41,0,0,0,1.44-.94H668a1.92,1.92,0,0,1-2,1.41c-1.52,0-2.11-1.31-2.11-2.58,0-1.43.71-2.66,2.17-2.66a2.07,2.07,0,0,1,2,2.27c0,.14,0,.28,0,.41Zm3.17-.44a1.58,1.58,0,0,0-1.53-1.77c-1,0-1.5.72-1.61,1.77Z"/><path class="cls-10" d="M669.49,267.09a1.32,1.32,0,0,0,1.42,1c.89,0,1.25-.41,1.25-1s-.24-.85-1.36-1.12c-1.29-.31-1.61-.7-1.61-1.36s.52-1.33,1.65-1.33a1.59,1.59,0,0,1,1.75,1.4h-.5a1.18,1.18,0,0,0-1.27-.94c-.87,0-1.12.43-1.12.83s.24.69,1.23.93c1.41.34,1.76.8,1.76,1.55,0,.91-.74,1.47-1.79,1.47a1.74,1.74,0,0,1-1.92-1.5Z"/><path class="cls-10" d="M676.53,261.1h.5v1h-.5Zm0,2.37h.5v5h-.5Z"/><path class="cls-10" d="M678.67,264.76c0-.43,0-.9,0-1.29h.49c0,.17,0,.6,0,.89a1.56,1.56,0,0,1,1.5-1,1.42,1.42,0,0,1,1.45,1,1.7,1.7,0,0,1,1.63-1c.76,0,1.56.44,1.56,1.83v3.29h-.5v-3.23c0-.67-.23-1.4-1.16-1.4s-1.41.78-1.41,1.75v2.88h-.49v-3.22c0-.73-.22-1.41-1.14-1.41s-1.44.86-1.44,1.88v2.75h-.5Z"/><path class="cls-10" d="M690.33,267.52a5.72,5.72,0,0,0,.07,1h-.48a3.29,3.29,0,0,1-.09-.77,1.64,1.64,0,0,1-1.64.89,1.49,1.49,0,0,1-1.66-1.5c0-1.1.85-1.6,2.35-1.6h1V265c0-.5-.15-1.17-1.29-1.17s-1.16.53-1.27.94h-.5a1.55,1.55,0,0,1,1.78-1.4c1.14,0,1.78.48,1.78,1.58Zm-.49-1.6h-1c-1.11,0-1.8.29-1.8,1.15a1,1,0,0,0,1.15,1.06c1.43,0,1.63-.95,1.63-2Z"/><path class="cls-10" d="M695.8,268.13c0,1.59-.71,2.43-2.16,2.43a1.75,1.75,0,0,1-2-1.48h.51a1.39,1.39,0,0,0,1.47,1c1.3,0,1.66-.83,1.66-2.1v-.52a1.58,1.58,0,0,1-1.67,1c-1.17,0-2.07-1-2.07-2.5s1-2.62,2.14-2.62c1,0,1.46.48,1.6.88,0-.29,0-.64,0-.76h.47c0,.18,0,1,0,1.45ZM692.11,266c0,1.19.63,2.05,1.59,2.05,1.25,0,1.63-.83,1.63-2.13s-.4-2.05-1.6-2.05S692.11,264.81,692.11,266Z"/><path class="cls-10" d="M697.55,266c0,1.29.66,2.09,1.62,2.09a1.41,1.41,0,0,0,1.44-.94h.51a1.92,1.92,0,0,1-2,1.41c-1.52,0-2.11-1.31-2.11-2.58,0-1.43.71-2.66,2.17-2.66a2.07,2.07,0,0,1,2,2.27c0,.14,0,.28,0,.41Zm3.17-.44a1.58,1.58,0,0,0-1.53-1.77c-1,0-1.5.72-1.61,1.77Z"/><path class="cls-10" d="M708.92,261.1V267c0,.48,0,.94,0,1.44h-.48c0-.12,0-.59,0-.84a1.64,1.64,0,0,1-1.68,1c-1.3,0-2.08-1.06-2.08-2.56s.85-2.68,2.21-2.68c1,0,1.4.43,1.55.75v-3ZM705.19,266c0,1.37.71,2.11,1.57,2.11,1.32,0,1.68-.91,1.68-2.27s-.31-2-1.59-2C705.86,263.82,705.19,264.61,705.19,266Z"/><path class="cls-10" d="M713.92,267.52a5.72,5.72,0,0,0,.07,1h-.48a3.29,3.29,0,0,1-.09-.77,1.64,1.64,0,0,1-1.64.89,1.49,1.49,0,0,1-1.66-1.5c0-1.1.85-1.6,2.35-1.6h.95V265c0-.5-.15-1.17-1.29-1.17s-1.16.53-1.27.94h-.5a1.55,1.55,0,0,1,1.78-1.4c1.14,0,1.78.48,1.78,1.58Zm-.49-1.6h-1c-1.11,0-1.8.29-1.8,1.15a1,1,0,0,0,1.15,1.06c1.43,0,1.63-.95,1.63-2Z"/><path class="cls-10" d="M714.77,263.47h.93v-1.56h.5v1.56h1.19v.47H716.2v3.25c0,.56.12.88.6.88a1.89,1.89,0,0,0,.52-.06v.44a1.76,1.76,0,0,1-.62.09c-.64,0-1-.32-1-1.12v-3.48h-.93Z"/><path class="cls-10" d="M721.84,267.52a5.72,5.72,0,0,0,.07,1h-.48a3.29,3.29,0,0,1-.09-.77,1.64,1.64,0,0,1-1.64.89,1.49,1.49,0,0,1-1.66-1.5c0-1.1.85-1.6,2.35-1.6h1V265c0-.5-.15-1.17-1.29-1.17s-1.16.53-1.27.94h-.5a1.55,1.55,0,0,1,1.78-1.4c1.14,0,1.78.48,1.78,1.58Zm-.49-1.6h-1c-1.11,0-1.8.29-1.8,1.15a1,1,0,0,0,1.15,1.06c1.43,0,1.63-.95,1.63-2Z"/><path class="cls-10" d="M646.38,273.1h.5v1h-.5Zm0,2.37h.5v5h-.5Z"/><path class="cls-10" d="M648.52,276.73c0-.44,0-.86,0-1.26H649c0,.16,0,.81,0,.95a1.63,1.63,0,0,1,1.66-1.07c.89,0,1.68.5,1.68,1.88v3.24h-.5v-3.16c0-.89-.37-1.47-1.24-1.47-1.19,0-1.6,1-1.6,2.08v2.55h-.5Z"/><path class="cls-10" d="M653.22,275.47h.93v-1.56h.5v1.56h1.19v.47h-1.19v3.25c0,.56.12.88.6.88a1.89,1.89,0,0,0,.52-.06v.44a1.76,1.76,0,0,1-.62.09c-.64,0-1-.32-1-1.12v-3.48h-.93Z"/><path class="cls-10" d="M656.91,278c0,1.29.66,2.09,1.62,2.09a1.41,1.41,0,0,0,1.44-.94h.51a1.92,1.92,0,0,1-2,1.41c-1.52,0-2.11-1.31-2.11-2.58,0-1.43.71-2.66,2.17-2.66a2.07,2.07,0,0,1,2,2.27c0,.14,0,.28,0,.41Zm3.17-.44a1.58,1.58,0,0,0-1.53-1.77c-1,0-1.5.72-1.61,1.77Z"/><path class="cls-10" d="M661.82,276.73c0-.44,0-.86,0-1.26h.49c0,.16,0,.81,0,.95a1.63,1.63,0,0,1,1.66-1.07c.89,0,1.68.5,1.68,1.88v3.24h-.5v-3.16c0-.89-.37-1.47-1.24-1.47-1.19,0-1.6,1-1.6,2.08v2.55h-.5Z"/><path class="cls-10" d="M667.27,279.09a1.32,1.32,0,0,0,1.42,1c.89,0,1.25-.41,1.25-1s-.24-.85-1.36-1.12c-1.29-.31-1.61-.7-1.61-1.36s.52-1.33,1.65-1.33a1.59,1.59,0,0,1,1.75,1.4h-.5a1.18,1.18,0,0,0-1.27-.94c-.87,0-1.12.43-1.12.83s.24.69,1.23.93c1.41.34,1.76.8,1.76,1.55,0,.91-.74,1.47-1.79,1.47a1.74,1.74,0,0,1-1.92-1.5Z"/><path class="cls-10" d="M671.71,273.1h.5v1h-.5Zm0,2.37h.5v5h-.5Z"/><path class="cls-10" d="M673.17,275.47h.93v-1.56h.5v1.56h1.19v.47H674.6v3.25c0,.56.12.88.6.88a1.89,1.89,0,0,0,.52-.06v.44a1.76,1.76,0,0,1-.62.09c-.64,0-1-.32-1-1.12v-3.48h-.93Z"/><path class="cls-10" d="M677,275.47c1,2.86,1.45,4,1.62,4.58h0c.2-.61.6-1.77,1.57-4.58h.52l-1.88,5.29c-.53,1.47-.89,1.8-1.79,1.8a3.33,3.33,0,0,1-.46,0V282l.45,0c.72,0,1-.35,1.32-1.37l-1.91-5.22Z"/><path class="cls-10" d="M688.12,273.1V279c0,.48,0,.94,0,1.44h-.48c0-.12,0-.59,0-.84a1.64,1.64,0,0,1-1.68,1c-1.3,0-2.08-1.06-2.08-2.56s.85-2.68,2.21-2.68c1,0,1.4.43,1.55.75v-3ZM684.39,278c0,1.37.71,2.11,1.57,2.11,1.32,0,1.68-.91,1.68-2.27s-.31-2-1.59-2C685.06,275.82,684.39,276.61,684.39,278Z"/><path class="cls-10" d="M693.12,279.52a5.72,5.72,0,0,0,.07,1h-.48a3.29,3.29,0,0,1-.09-.77,1.64,1.64,0,0,1-1.64.89,1.49,1.49,0,0,1-1.66-1.5c0-1.1.85-1.6,2.35-1.6h1V277c0-.5-.15-1.17-1.29-1.17s-1.16.53-1.27.94h-.5a1.55,1.55,0,0,1,1.78-1.4c1.14,0,1.78.48,1.78,1.58Zm-.49-1.6h-1c-1.11,0-1.8.29-1.8,1.15a1,1,0,0,0,1.15,1.06c1.43,0,1.63-.95,1.63-2Z"/><path class="cls-10" d="M694,275.47h.93v-1.56h.5v1.56h1.19v.47H695.4v3.25c0,.56.12.88.6.88a1.89,1.89,0,0,0,.52-.06v.44a1.76,1.76,0,0,1-.62.09c-.64,0-1-.32-1-1.12v-3.48H694Z"/><path class="cls-10" d="M701,279.52a5.72,5.72,0,0,0,.07,1h-.48a3.29,3.29,0,0,1-.09-.77,1.64,1.64,0,0,1-1.64.89,1.49,1.49,0,0,1-1.66-1.5c0-1.1.85-1.6,2.35-1.6h.95V277c0-.5-.15-1.17-1.29-1.17s-1.16.53-1.27.94h-.5a1.55,1.55,0,0,1,1.78-1.4c1.14,0,1.78.48,1.78,1.58Zm-.49-1.6h-1c-1.11,0-1.8.29-1.8,1.15a1,1,0,0,0,1.15,1.06c1.43,0,1.63-.95,1.63-2Z"/></svg>