<svg id="Layer_1" data-name="Layer 1" xmlns="http://www.w3.org/2000/svg" xmlns:xlink="http://www.w3.org/1999/xlink" viewBox="0 0 804.13 576.07"><defs><style>.cls-1,.cls-29,.cls-6{fill:#fff;}.cls-2{fill:#e1c3d7;}.cls-2,.cls-22,.cls-24,.cls-3,.cls-39,.cls-4,.cls-5{stroke:#fff;}.cls-15,.cls-16,.cls-17,.cls-18,.cls-19,.cls-2,.cls-20,.cls-21,.cls-22,.cls-24,.cls-29,.cls-3,.cls-35,.cls-38,.cls-39,.cls-4,.cls-5{stroke-miterlimit:10;}.cls-10,.cls-2,.cls-28,.cls-3,.cls-4,.cls-5,.cls-6,.cls-7,.cls-8,.cls-9{opacity:0.5;}.cls-3{fill:#e59cc4;}.cls-4{fill:#d683b7;}.cls-5{fill:#e0b3cd;}.cls-7{fill:#efd8e6;}.cls-8{fill:#f1d6e7;}.cls-9{fill:#e4b3d2;}.cls-10{fill:#e7bad7;}.cls-11{fill:url(#linear-gradient);}.cls-12{fill:url(#linear-gradient-2);}.cls-13{fill:url(#linear-gradient-3);}.cls-14{fill:url(#linear-gradient-4);}.cls-15,.cls-16,.cls-17,.cls-18,.cls-19,.cls-20,.cls-21,.cls-35,.cls-38{fill:none;}.cls-15{stroke:#000;}.cls-15,.cls-38{stroke-width:0.5px;}.cls-16{stroke:#636263;}.cls-16,.cls-17,.cls-35{stroke-width:1.25px;stroke-dasharray:5;}.cls-17{stroke:#e0d732;}.cls-18,.cls-19,.cls-20{stroke:#d3cbcd;}.cls-18,.cls-19,.cls-20,.cls-22,.cls-24{stroke-width:2px;}.cls-19{stroke-dasharray:11.88 11.88;}.cls-20{stroke-dasharray:12.27 12.27;}.cls-21,.cls-29{stroke:#231f20;}.cls-22,.cls-27{fill:#e88dbb;}.cls-23{font-size:12px;}.cls-23,.cls-32{fill:#231f20;}.cls-23,.cls-25{font-family:Consolas;}.cls-24,.cls-37,.cls-39{fill:#9cdaeb;}.cls-25{font-size:26px;fill:#8c8788;}.cls-26{fill:#43a1b7;}.cls-30{opacity:0.75;}.cls-31{fill:#6d6e71;}.cls-33{fill:#a99f34;}.cls-34{fill:#a8a0a0;}.cls-35{stroke:#ce93c1;}.cls-36{fill:#9376b5;}.cls-38{stroke:#a99fa0;}.cls-40{fill:#d3cbcd;}.cls-41{fill:#636263;}</style><linearGradient id="linear-gradient" x1="278.58" y1="301.1" x2="304.62" y2="301.1" gradientUnits="userSpaceOnUse"><stop offset="0.57" stop-color="#fff"/><stop offset="0.99" stop-color="#fff" stop-opacity="0"/></linearGradient><linearGradient id="linear-gradient-2" x1="-33.42" y1="-1785.43" x2="-8.36" y2="-1785.43" gradientTransform="translate(375.29 2087.04)" gradientUnits="userSpaceOnUse"><stop offset="0.59" stop-color="#fff"/><stop offset="0.99" stop-color="#fff" stop-opacity="0"/></linearGradient><linearGradient id="linear-gradient-3" x1="-918.87" y1="-583.55" x2="-895.04" y2="-583.55" gradientTransform="translate(1232.07 915.34)" gradientUnits="userSpaceOnUse"><stop offset="0.5" stop-color="#fff"/><stop offset="0.99" stop-color="#fff" stop-opacity="0"/></linearGradient><linearGradient id="linear-gradient-4" x1="1165.46" y1="-897.74" x2="1191.41" y2="-897.74" gradientTransform="translate(-855.85 1167.52)" gradientUnits="userSpaceOnUse"><stop offset="0.61" stop-color="#fff"/><stop offset="0.99" stop-color="#fff" stop-opacity="0"/></linearGradient></defs><rect class="cls-1" width="804.13" height="576.07"/><rect class="cls-2" x="304.76" y="282.64" width="18.56" height="18.56"/><rect class="cls-3" x="323.45" y="301.2" width="18.56" height="18.56"/><rect class="cls-4" x="304.76" y="301.2" width="18.56" height="18.56"/><rect class="cls-5" x="323.45" y="282.64" width="18.56" height="18.56"/><rect class="cls-6" x="304.76" y="319.57" width="18.56" height="18.56"/><rect class="cls-6" x="323.32" y="319.57" width="18.56" height="18.56"/><rect class="cls-7" x="341.87" y="301.01" width="18.56" height="18.56"/><rect class="cls-8" x="286.18" y="301.01" width="18.56" height="18.56"/><rect class="cls-9" x="286.18" y="282.45" width="18.56" height="18.56"/><rect class="cls-6" x="341.87" y="282.45" width="18.56" height="18.56"/><rect class="cls-5" x="304.76" y="263.85" width="18.56" height="18.56"/><rect class="cls-6" x="323.32" y="263.85" width="18.56" height="18.56"/><rect class="cls-6" x="286.18" y="263.89" width="18.56" height="18.56"/><rect class="cls-10" x="286.18" y="319.57" width="18.56" height="18.56"/><rect class="cls-6" x="341.87" y="263.89" width="18.56" height="18.56"/><rect class="cls-6" x="341.87" y="319.57" width="18.56" height="18.56"/><rect class="cls-11" x="278.58" y="263.97" width="26.04" height="74.27"/><rect class="cls-12" x="341.87" y="264.48" width="25.06" height="74.27" transform="translate(708.79 603.22) rotate(180)"/><rect class="cls-13" x="313.2" y="294.66" width="23.83" height="74.27" transform="translate(-6.68 656.91) rotate(-90)"/><rect class="cls-14" x="309.61" y="232.64" width="25.95" height="74.27" transform="translate(592.36 -52.81) rotate(90)"/><line class="cls-15" x1="304.74" y1="273.6" x2="304.74" y2="328.85"/><line class="cls-15" x1="341.87" y1="273.63" x2="341.87" y2="328.87"/><line class="cls-15" x1="323.32" y1="273.88" x2="323.32" y2="329.12"/><line class="cls-15" x1="350.19" y1="282.64" x2="295.32" y2="282.64"/><line class="cls-15" x1="350.17" y1="319.77" x2="295.29" y2="319.77"/><line class="cls-15" x1="349.92" y1="301.22" x2="295.04" y2="301.22"/><path class="cls-16" d="M339.85,49.81h-276c-17.21,0-31.15,13.12-31.15,29.3v446.2c0,16.19,13.94,29.31,31.15,29.31h203V263.85H371V79.11C371,62.93,357.06,49.81,339.85,49.81Z"/><path class="cls-17" d="M748.28,303.81H370.41v-34H280.52V554.21H748.28a29.21,29.21,0,0,0,29.11-29.3V333.11A29.21,29.21,0,0,0,748.28,303.81Z"/><polyline class="cls-18" points="784.34 553.37 784.34 559.37 778.34 559.37"/><line class="cls-19" x1="766.46" y1="559.37" x2="35.61" y2="559.37"/><polyline class="cls-18" points="29.66 559.37 23.66 559.37 23.66 553.37"/><line class="cls-20" x1="23.66" y1="541.1" x2="23.66" y2="56.44"/><polyline class="cls-18" points="23.66 50.31 23.66 44.31 29.66 44.31"/><line class="cls-19" x1="41.55" y1="44.31" x2="772.4" y2="44.31"/><polyline class="cls-18" points="778.34 44.31 784.34 44.31 784.34 50.31"/><line class="cls-20" x1="784.34" y1="62.58" x2="784.34" y2="547.23"/><rect class="cls-21" x="248.46" y="147.3" width="110.58" height="69.3" transform="translate(485.7 -121.8) rotate(90)"/><rect class="cls-21" x="197.47" y="334.95" width="48.99" height="158.24"/><rect class="cls-22" x="197.47" y="376.39" width="48.99" height="29.36"/><text class="cls-23" transform="translate(172.61 513.19)">@feat_metadata</text><text class="cls-23" transform="translate(81.89 513.14)">@expression</text><rect class="cls-24" x="292.46" y="136.63" width="22.59" height="69.3" transform="translate(475.03 -132.47) rotate(90)"/><text class="cls-23" transform="translate(286.18 513.14)">@spatial_grid</text><text class="cls-25" transform="translate(42.24 29.26)">aggregate data</text><path class="cls-26" d="M108.27,325.5a3.11,3.11,0,0,1-3.29,2.58c-2.22,0-3.5-1.58-3.5-4,0-2.21,1.29-4.06,3.6-4.06a2.93,2.93,0,0,1,3.19,2.63h-1.63a1.5,1.5,0,0,0-1.59-1.29c-1.19,0-1.87,1-1.87,2.66s.68,2.7,1.84,2.7a1.6,1.6,0,0,0,1.61-1.25Z"/><path class="cls-26" d="M111,324.39c0,1.31.66,2.35,1.86,2.35a1.52,1.52,0,0,0,1.63-1h1.67a3.22,3.22,0,0,1-3.35,2.38c-2.46,0-3.49-1.93-3.49-3.92,0-2.34,1.19-4.11,3.57-4.11,2.54,0,3.39,1.95,3.39,3.7,0,.25,0,.43,0,.64Zm3.61-1.09c0-1.1-.54-2-1.73-2s-1.73.84-1.84,2Z"/><path class="cls-26" d="M117.92,327.9v-11h1.66v11Z"/><path class="cls-26" d="M121.69,327.9v-11h1.67v11Z"/><path class="cls-26" d="M126.43,325.66a1.57,1.57,0,0,0,1.7,1.17c1,0,1.36-.4,1.36-1s-.34-.9-1.65-1.22c-2.32-.56-2.76-1.28-2.76-2.34s.8-2.22,2.91-2.22,2.93,1.19,3,2.25h-1.59c-.09-.41-.39-1-1.49-1-.92,0-1.2.43-1.2.87s.28.73,1.62,1.05c2.43.57,2.85,1.39,2.85,2.52,0,1.31-1,2.37-3.12,2.37s-3.1-1.06-3.28-2.42Z"/><path class="cls-27" d="M51.06,442.45H44.68v1.19H43.39v-1.19h-.82c-1.48,0-2.65-.64-2.65-2.32a3.82,3.82,0,0,1,.1-.91h1.36a2.65,2.65,0,0,0-.06.58c0,.72.37,1,1.37,1h.7v-1.45h1.29v1.45h6.38Z"/><path class="cls-27" d="M47.55,437.1c1.31,0,2.35-.66,2.35-1.86a1.54,1.54,0,0,0-1-1.64v-1.67a3.22,3.22,0,0,1,2.37,3.35c0,2.46-1.93,3.49-3.92,3.49-2.34,0-4.11-1.18-4.11-3.57s1.95-3.39,3.7-3.39a4.29,4.29,0,0,1,.64,0Zm-1.09-3.61c-1.1,0-2,.53-2,1.72s.84,1.73,2,1.84Z"/><path class="cls-27" d="M49.26,424.24a15.34,15.34,0,0,0,1.8-.1v1.58a3.61,3.61,0,0,1-.9.12,2.73,2.73,0,0,1-1.29,4.88c-1.73,0-2.52-1.37-2.52-3.63v-1.22h-.58c-.62,0-1.32.21-1.32,1.45s.53,1.33,1.11,1.45v1.59c-1.19-.1-2.36-.84-2.35-3.1,0-1.95.79-3,2.56-3Zm-1.84,1.62v1.08c0,1.43.41,2.1,1.35,2.1A1.2,1.2,0,0,0,50,427.71c0-1.63-1.12-1.85-2.35-1.85Z"/><path class="cls-27" d="M43.39,423.12v-1.27H41.2v-1.66h2.19v-1.61h1.29v1.61h4.2c.68,0,1-.18,1-.85a3.13,3.13,0,0,0,0-.59H51a4.13,4.13,0,0,1,.14,1.27c0,1.32-.69,1.83-2,1.83H44.68v1.27Z"/><path class="cls-27" d="M48.83,411l2.23,0v1.63c-.21,0-.65,0-1,.05a2.24,2.24,0,0,1,1.22,2.24c0,1.4-.77,2.54-2.83,2.54h-5v-1.65h4.68c.94,0,1.77-.3,1.77-1.42s-.67-1.71-2.42-1.71h-4V411Z"/><path class="cls-27" d="M45.47,408.84H43.39v-1.62c.19,0,.86-.05,1.47-.05a2.6,2.6,0,0,1-1.65-2.53h1.61c0,1.56.67,2.53,2.67,2.53h3.57v1.66Z"/><path class="cls-27" d="M47.55,402.25c1.31,0,2.35-.66,2.35-1.86a1.52,1.52,0,0,0-1-1.63v-1.67a3.22,3.22,0,0,1,2.37,3.35c0,2.46-1.93,3.49-3.92,3.49-2.34,0-4.11-1.19-4.11-3.57,0-2.54,1.95-3.39,3.7-3.39.25,0,.43,0,.64,0Zm-1.09-3.61c-1.1,0-2,.53-2,1.73s.84,1.73,2,1.84Z"/><path class="cls-27" d="M48.82,394.28a1.57,1.57,0,0,0,1.17-1.7c0-1-.4-1.36-1-1.36s-.9.34-1.22,1.65c-.56,2.32-1.28,2.76-2.34,2.76s-2.22-.8-2.22-2.91,1.2-2.93,2.25-3v1.59c-.41.09-1,.39-1,1.49,0,.92.43,1.2.87,1.2s.73-.28,1.05-1.62c.57-2.43,1.39-2.85,2.52-2.85,1.31,0,2.37,1,2.37,3.12s-1.06,3.09-2.42,3.28Z"/><path class="cls-26" d="M260,192.13a3.11,3.11,0,0,1,2.58,3.29c0,2.22-1.58,3.5-4,3.5-2.21,0-4.06-1.29-4.06-3.6a2.93,2.93,0,0,1,2.63-3.19v1.63a1.5,1.5,0,0,0-1.29,1.59c0,1.19,1,1.87,2.67,1.87s2.69-.68,2.69-1.84a1.6,1.6,0,0,0-1.25-1.61Z"/><path class="cls-26" d="M258.87,189.38c1.31,0,2.35-.66,2.35-1.86a1.52,1.52,0,0,0-1-1.63v-1.67a3.22,3.22,0,0,1,2.37,3.35c0,2.46-1.93,3.49-3.92,3.49-2.34,0-4.11-1.19-4.11-3.57,0-2.54,2-3.39,3.7-3.39.25,0,.43,0,.64,0Zm-1.08-3.61c-1.11,0-2,.54-2,1.73s.84,1.73,2,1.84Z"/><path class="cls-26" d="M262.38,182.48h-11v-1.66h11Z"/><path class="cls-26" d="M262.38,178.71h-11V177h11Z"/><path class="cls-26" d="M260.14,174a1.57,1.57,0,0,0,1.17-1.7c0-1-.4-1.36-1-1.36s-.89.34-1.21,1.65c-.57,2.32-1.29,2.76-2.35,2.76s-2.22-.8-2.22-2.91,1.2-2.93,2.25-3V171a1.32,1.32,0,0,0-1,1.49c0,.92.43,1.2.87,1.2s.73-.28,1.05-1.62c.57-2.43,1.39-2.85,2.52-2.85,1.31,0,2.37,1,2.37,3.12s-1.06,3.1-2.42,3.28Z"/><g class="cls-28"><rect class="cls-29" x="65.91" y="342.99" width="110.58" height="158.24"/><rect class="cls-22" x="65.91" y="384.44" width="110.58" height="28.72"/><rect class="cls-24" x="98.62" y="342.99" width="22.59" height="158.24"/></g><g class="cls-30"><rect class="cls-29" x="61.88" y="338.9" width="110.58" height="158.24"/><rect class="cls-22" x="61.88" y="380.35" width="110.58" height="28.72"/><rect class="cls-24" x="94.58" y="338.9" width="22.59" height="158.24"/></g><rect class="cls-29" x="58.19" y="334.95" width="110.58" height="158.24"/><rect class="cls-22" x="58.19" y="376.39" width="110.58" height="28.72"/><rect class="cls-24" x="90.89" y="334.95" width="22.59" height="158.24"/><rect class="cls-21" x="289.1" y="334.95" width="69.06" height="158.24"/><rect class="cls-22" x="289.1" y="376.39" width="69.06" height="29.36"/><path class="cls-31" d="M296.82,526.12c0,1.6-.71,2.44-2.16,2.44a1.75,1.75,0,0,1-2-1.49h.5a1.38,1.38,0,0,0,1.47,1c1.3,0,1.66-.84,1.66-2.11v-.52a1.58,1.58,0,0,1-1.67,1c-1.17,0-2.06-1-2.06-2.5s.95-2.62,2.13-2.62c1,0,1.46.48,1.6.88,0-.29,0-.64,0-.76h.47c0,.18,0,1,0,1.45Zm-3.69-2.18c0,1.19.63,2,1.59,2,1.25,0,1.63-.83,1.63-2.13s-.4-2.05-1.6-2.05S293.13,522.8,293.13,523.94Z"/><path class="cls-31" d="M298.46,522.82v-1.36h.48c0,.16,0,.48,0,1.12a1.89,1.89,0,0,1,1.74-1.24v.54a1.81,1.81,0,0,0-1.74,2v2.6h-.5Z"/><path class="cls-31" d="M301.63,519.1h.5v1h-.5Zm0,2.36h.5v5h-.5Z"/><path class="cls-31" d="M307.62,519.1V525c0,.48,0,.94,0,1.44h-.48c0-.12,0-.59,0-.84a1.64,1.64,0,0,1-1.68,1c-1.3,0-2.07-1.06-2.07-2.56s.84-2.68,2.2-2.68c1,0,1.4.43,1.55.75v-3Zm-3.73,4.9c0,1.37.71,2.11,1.57,2.11,1.32,0,1.68-.91,1.68-2.27s-.31-2-1.59-2C304.56,521.81,303.89,522.6,303.89,524Z"/><path class="cls-31" d="M315.29,525.51a5.72,5.72,0,0,0,.07,1h-.48a3.29,3.29,0,0,1-.09-.77,1.64,1.64,0,0,1-1.64.89,1.48,1.48,0,0,1-1.65-1.5c0-1.1.84-1.6,2.34-1.6h1V523c0-.5-.15-1.17-1.29-1.17s-1.16.53-1.27.94h-.5a1.55,1.55,0,0,1,1.78-1.4c1.14,0,1.78.48,1.78,1.58Zm-.49-1.6h-1c-1.11,0-1.8.29-1.8,1.15a1,1,0,0,0,1.15,1.06c1.43,0,1.63-1,1.63-2Z"/><path class="cls-31" d="M316.67,521.46c.81,2.29,1.37,3.85,1.56,4.49h0c.11-.37.67-1.86,1.64-4.49h.53l-1.89,5h-.6l-1.77-5Z"/><path class="cls-31" d="M321.5,524c0,1.29.66,2.09,1.62,2.09a1.41,1.41,0,0,0,1.44-.94h.51a1.92,1.92,0,0,1-2,1.41c-1.52,0-2.1-1.31-2.1-2.58,0-1.43.7-2.66,2.16-2.66a2.07,2.07,0,0,1,2,2.27c0,.14,0,.28,0,.41Zm3.17-.44a1.58,1.58,0,0,0-1.53-1.77c-1,0-1.5.72-1.6,1.77Z"/><path class="cls-31" d="M326.41,522.82c0-.84,0-1.2,0-1.36h.49c0,.16,0,.48,0,1.12a1.89,1.89,0,0,1,1.74-1.24v.54a1.81,1.81,0,0,0-1.74,2v2.6h-.5Z"/><path class="cls-31" d="M332.91,525.51a5.72,5.72,0,0,0,.07,1h-.48a3.29,3.29,0,0,1-.09-.77,1.64,1.64,0,0,1-1.64.89,1.48,1.48,0,0,1-1.65-1.5c0-1.1.84-1.6,2.34-1.6h1V523c0-.5-.15-1.17-1.29-1.17s-1.16.53-1.27.94h-.5a1.56,1.56,0,0,1,1.78-1.4c1.14,0,1.78.48,1.78,1.58Zm-.49-1.6h-1c-1.11,0-1.8.29-1.8,1.15a1,1,0,0,0,1.15,1.06c1.43,0,1.63-1,1.63-2Z"/><path class="cls-31" d="M338.38,526.12c0,1.6-.71,2.44-2.16,2.44a1.76,1.76,0,0,1-2-1.49h.51a1.38,1.38,0,0,0,1.47,1c1.3,0,1.66-.84,1.66-2.11v-.52a1.58,1.58,0,0,1-1.67,1c-1.17,0-2.06-1-2.06-2.5s.95-2.62,2.13-2.62c1,0,1.46.48,1.6.88,0-.29,0-.64,0-.76h.47c0,.18,0,1,0,1.45Zm-3.69-2.18c0,1.19.63,2,1.59,2,1.25,0,1.63-.83,1.63-2.13s-.4-2.05-1.6-2.05S334.69,522.8,334.69,523.94Z"/><path class="cls-31" d="M340.13,524c0,1.29.66,2.09,1.62,2.09a1.41,1.41,0,0,0,1.44-.94h.51a1.92,1.92,0,0,1-2,1.41c-1.52,0-2.1-1.31-2.1-2.58,0-1.43.7-2.66,2.16-2.66a2.07,2.07,0,0,1,2,2.27c0,.14,0,.28,0,.41Zm3.17-.44a1.58,1.58,0,0,0-1.53-1.77c-1,0-1.5.72-1.61,1.77Z"/><path class="cls-31" d="M349,519.1V525c0,.48,0,.94,0,1.44h-.48c0-.12,0-.59,0-.84a1.64,1.64,0,0,1-1.68,1c-1.3,0-2.08-1.06-2.08-2.56s.85-2.68,2.21-2.68c1,0,1.4.43,1.55.75v-3Zm-3.73,4.9c0,1.37.71,2.11,1.57,2.11,1.32,0,1.68-.91,1.68-2.27s-.31-2-1.59-2C345.89,521.81,345.22,522.6,345.22,524Z"/><path class="cls-31" d="M293.12,536c0,1.29.65,2.09,1.61,2.09a1.41,1.41,0,0,0,1.44-.94h.51a1.92,1.92,0,0,1-2,1.41c-1.51,0-2.1-1.31-2.1-2.58,0-1.43.7-2.66,2.16-2.66a2.07,2.07,0,0,1,2,2.27c0,.14,0,.28,0,.41Zm3.16-.44a1.58,1.58,0,0,0-1.53-1.77c-1,0-1.5.72-1.61,1.77Z"/><path class="cls-31" d="M298,533.46c.83,1.23,1.18,1.78,1.38,2.08h0l1.46-2.08h.57l-1.74,2.42,1.77,2.58h-.6l-1.48-2.18h0l-1.45,2.18h-.58l1.76-2.54-1.68-2.46Z"/><path class="cls-31" d="M302.83,537.72v2.74h-.5v-7h.48c0,.19,0,.49,0,.9a1.84,1.84,0,0,1,1.76-1c1.18,0,2,1,2,2.49,0,1.8-1,2.75-2.17,2.75A1.64,1.64,0,0,1,302.83,537.72Zm3.23-1.87c0-1.16-.56-2-1.55-2-1.21,0-1.71.76-1.71,2.12s.39,2.17,1.64,2.17C305.48,538.11,306.06,537.23,306.06,535.85Z"/><path class="cls-31" d="M307.84,534.82c0-.84,0-1.2,0-1.36h.49c0,.16,0,.48,0,1.12a1.89,1.89,0,0,1,1.74-1.24v.54a1.81,1.81,0,0,0-1.74,2v2.6h-.5Z"/><path class="cls-31" d="M311.12,536c0,1.29.65,2.09,1.61,2.09a1.41,1.41,0,0,0,1.44-.94h.51a1.92,1.92,0,0,1-2,1.41c-1.51,0-2.1-1.31-2.1-2.58,0-1.43.7-2.66,2.16-2.66a2.07,2.07,0,0,1,2,2.27c0,.14,0,.28,0,.41Zm3.16-.44a1.58,1.58,0,0,0-1.53-1.77c-1,0-1.5.72-1.61,1.77Z"/><path class="cls-31" d="M316.14,537.08a1.32,1.32,0,0,0,1.42,1c.89,0,1.25-.41,1.25-1s-.24-.85-1.36-1.12c-1.28-.31-1.61-.7-1.61-1.36s.52-1.33,1.65-1.33a1.59,1.59,0,0,1,1.75,1.4h-.5a1.18,1.18,0,0,0-1.27-.94c-.87,0-1.12.43-1.12.83s.24.69,1.23.93c1.41.34,1.76.8,1.76,1.55,0,.91-.74,1.47-1.79,1.47a1.75,1.75,0,0,1-1.92-1.5Z"/><path class="cls-31" d="M320.7,537.08a1.32,1.32,0,0,0,1.42,1c.89,0,1.25-.41,1.25-1s-.24-.85-1.36-1.12c-1.29-.31-1.61-.7-1.61-1.36s.52-1.33,1.65-1.33a1.59,1.59,0,0,1,1.75,1.4h-.5a1.18,1.18,0,0,0-1.27-.94c-.87,0-1.12.43-1.12.83s.24.69,1.23.93c1.41.34,1.76.8,1.76,1.55,0,.91-.74,1.47-1.79,1.47a1.74,1.74,0,0,1-1.92-1.5Z"/><path class="cls-31" d="M325.14,531.1h.5v1h-.5Zm0,2.36h.5v5h-.5Z"/><path class="cls-31" d="M331.33,536a2.35,2.35,0,0,1-2.26,2.63c-1.35,0-2.19-1.11-2.19-2.62a2.33,2.33,0,0,1,2.24-2.62C330.45,533.34,331.33,534.38,331.33,536Zm-3.92,0c0,1.19.64,2.15,1.7,2.15s1.69-.89,1.69-2.15-.6-2.15-1.71-2.15S327.41,534.76,327.41,536Z"/><path class="cls-31" d="M332.57,534.72c0-.44,0-.86,0-1.26h.49c0,.16,0,.81,0,.95a1.63,1.63,0,0,1,1.66-1.07c.89,0,1.68.5,1.68,1.88v3.24h-.5V535.3c0-.89-.37-1.47-1.24-1.47-1.19,0-1.6,1-1.6,2.08v2.55h-.5Z"/><path class="cls-31" d="M87.71,522.82c0-.84,0-1.2,0-1.36h.49c0,.16,0,.48,0,1.12A1.89,1.89,0,0,1,90,521.34v.54a1.81,1.81,0,0,0-1.74,2v2.6h-.5Z"/><path class="cls-31" d="M94.21,525.51a5.72,5.72,0,0,0,.07,1H93.8a3.29,3.29,0,0,1-.09-.77,1.64,1.64,0,0,1-1.64.89,1.49,1.49,0,0,1-1.66-1.5c0-1.1.85-1.6,2.35-1.6h.95V523c0-.5-.15-1.17-1.29-1.17s-1.16.53-1.27.94h-.5a1.55,1.55,0,0,1,1.78-1.4c1.14,0,1.78.48,1.78,1.58Zm-.49-1.6h-1c-1.11,0-1.8.29-1.8,1.15a1,1,0,0,0,1.15,1.06c1.43,0,1.63-1,1.63-2Z"/><path class="cls-31" d="M95.72,521.46c.74,2.58,1.17,4.06,1.25,4.5h0c.08-.4.58-2,1.36-4.5h.54c.93,3.09,1.21,4,1.3,4.37h0c.14-.55.37-1.3,1.28-4.37H102l-1.57,5h-.55c-.54-1.77-1.19-3.94-1.29-4.4h0c-.1.49-.67,2.28-1.32,4.4h-.6l-1.47-5Z"/><path class="cls-31" d="M109.59,519.1V525c0,.48,0,.94,0,1.44h-.48c0-.12,0-.59,0-.84a1.64,1.64,0,0,1-1.68,1c-1.3,0-2.08-1.06-2.08-2.56s.85-2.68,2.21-2.68c1,0,1.4.43,1.55.75v-3Zm-3.73,4.9c0,1.37.71,2.11,1.57,2.11,1.32,0,1.68-.91,1.68-2.27s-.31-2-1.59-2C106.53,521.81,105.86,522.6,105.86,524Z"/><path class="cls-31" d="M114.59,525.51a5.72,5.72,0,0,0,.07,1h-.48a3.29,3.29,0,0,1-.09-.77,1.64,1.64,0,0,1-1.64.89,1.49,1.49,0,0,1-1.66-1.5c0-1.1.85-1.6,2.35-1.6h1V523c0-.5-.15-1.17-1.29-1.17s-1.16.53-1.27.94H111a1.55,1.55,0,0,1,1.78-1.4c1.14,0,1.78.48,1.78,1.58Zm-.49-1.6h-1c-1.11,0-1.8.29-1.8,1.15a1,1,0,0,0,1.15,1.06c1.43,0,1.63-1,1.63-2Z"/><path class="cls-31" d="M115.44,521.46h.93V519.9h.5v1.56h1.19v.47h-1.19v3.25c0,.56.12.88.6.88A1.89,1.89,0,0,0,118,526v.44a1.76,1.76,0,0,1-.62.09c-.64,0-1-.32-1-1.12v-3.48h-.93Z"/><path class="cls-31" d="M122.51,525.51a5.72,5.72,0,0,0,.07,1h-.48a3.29,3.29,0,0,1-.09-.77,1.64,1.64,0,0,1-1.64.89,1.49,1.49,0,0,1-1.66-1.5c0-1.1.85-1.6,2.35-1.6h1V523c0-.5-.15-1.17-1.29-1.17s-1.16.53-1.27.94H119a1.55,1.55,0,0,1,1.78-1.4c1.14,0,1.78.48,1.78,1.58Zm-.49-1.6h-1c-1.11,0-1.8.29-1.8,1.15a1,1,0,0,0,1.15,1.06c1.43,0,1.63-1,1.63-2Z"/><path class="cls-31" d="M87.71,534.72c0-.44,0-.86,0-1.26h.49c0,.16,0,.81,0,.95a1.63,1.63,0,0,1,1.66-1.07c.89,0,1.68.5,1.68,1.88v3.24h-.5V535.3c0-.89-.37-1.47-1.24-1.47-1.19,0-1.6,1-1.6,2.08v2.55h-.5Z"/><path class="cls-31" d="M97.24,536A2.35,2.35,0,0,1,95,538.58c-1.35,0-2.19-1.11-2.19-2.62A2.33,2.33,0,0,1,95,533.34C96.36,533.34,97.24,534.38,97.24,536Zm-3.92,0c0,1.19.64,2.15,1.7,2.15s1.69-.89,1.69-2.15-.6-2.15-1.71-2.15S93.32,534.76,93.32,536Z"/><path class="cls-31" d="M98.48,534.82c0-.84,0-1.2,0-1.36H99c0,.16,0,.48,0,1.12a1.89,1.89,0,0,1,1.74-1.24v.54a1.81,1.81,0,0,0-1.74,2v2.6h-.5Z"/><path class="cls-31" d="M101.61,534.75c0-.43,0-.9,0-1.29h.49c0,.17,0,.6,0,.89a1.56,1.56,0,0,1,1.5-1,1.42,1.42,0,0,1,1.45,1,1.7,1.7,0,0,1,1.62-1c.77,0,1.57.44,1.57,1.83v3.29h-.5v-3.23c0-.67-.24-1.4-1.17-1.4s-1.4.78-1.4,1.75v2.88h-.49v-3.22c0-.73-.22-1.41-1.14-1.41s-1.44.86-1.44,1.88v2.75h-.5Z"/><path class="cls-31" d="M113.27,537.51a5.72,5.72,0,0,0,.07,1h-.48a3.29,3.29,0,0,1-.09-.77,1.64,1.64,0,0,1-1.64.89,1.49,1.49,0,0,1-1.66-1.5c0-1.1.85-1.6,2.35-1.6h1V535c0-.5-.15-1.17-1.29-1.17s-1.16.53-1.27.94h-.5a1.55,1.55,0,0,1,1.78-1.4c1.14,0,1.78.48,1.78,1.58Zm-.49-1.6h-1c-1.11,0-1.8.29-1.8,1.15a1,1,0,0,0,1.15,1.06c1.43,0,1.63-1,1.63-2Z"/><path class="cls-31" d="M114.92,538.46V531.1h.5v7.36Z"/><path class="cls-31" d="M117.06,531.1h.5v1h-.5Zm0,2.36h.5v5h-.5Z"/><path class="cls-31" d="M118.68,538l3.16-4.07h-3v-.47h3.58v.48l-3.12,4h3.23l-.12.47h-3.73Z"/><path class="cls-31" d="M123.64,536c0,1.29.66,2.09,1.62,2.09a1.41,1.41,0,0,0,1.44-.94h.51a1.92,1.92,0,0,1-2,1.41c-1.52,0-2.11-1.31-2.11-2.58,0-1.43.71-2.66,2.17-2.66a2.07,2.07,0,0,1,2,2.27c0,.14,0,.28,0,.41Zm3.17-.44a1.58,1.58,0,0,0-1.53-1.77c-1,0-1.5.72-1.61,1.77Z"/><path class="cls-31" d="M132.46,531.1V537c0,.48,0,.94,0,1.44H132c0-.12,0-.59,0-.84a1.64,1.64,0,0,1-1.68,1c-1.3,0-2.08-1.06-2.08-2.56s.85-2.68,2.21-2.68c1,0,1.4.43,1.55.75v-3Zm-3.73,4.9c0,1.37.71,2.11,1.57,2.11,1.32,0,1.68-.91,1.68-2.27s-.31-2-1.59-2C129.4,533.81,128.73,534.6,128.73,536Z"/><path class="cls-31" d="M140.56,531.1V537c0,.48,0,.94,0,1.44h-.48c0-.12,0-.59,0-.84a1.64,1.64,0,0,1-1.68,1c-1.3,0-2.08-1.06-2.08-2.56s.85-2.68,2.21-2.68c1,0,1.4.43,1.55.75v-3Zm-3.73,4.9c0,1.37.71,2.11,1.57,2.11,1.32,0,1.68-.91,1.68-2.27s-.31-2-1.59-2C137.5,533.81,136.83,534.6,136.83,536Z"/><path class="cls-31" d="M145.56,537.51a5.72,5.72,0,0,0,.07,1h-.48a3.29,3.29,0,0,1-.09-.77,1.64,1.64,0,0,1-1.64.89,1.49,1.49,0,0,1-1.66-1.5c0-1.1.85-1.6,2.35-1.6h.95V535c0-.5-.15-1.17-1.29-1.17s-1.16.53-1.27.94H142a1.55,1.55,0,0,1,1.78-1.4c1.14,0,1.78.48,1.78,1.58Zm-.49-1.6h-1c-1.11,0-1.8.29-1.8,1.15a1,1,0,0,0,1.15,1.06c1.43,0,1.63-1,1.63-2Z"/><path class="cls-31" d="M146.41,533.46h.93V531.9h.5v1.56H149v.47h-1.19v3.25c0,.56.12.88.6.88A1.89,1.89,0,0,0,149,538v.44a1.76,1.76,0,0,1-.62.09c-.64,0-1-.32-1-1.12v-3.48h-.93Z"/><path class="cls-31" d="M153.48,537.51a7.65,7.65,0,0,0,.06,1h-.47a3.29,3.29,0,0,1-.09-.77,1.64,1.64,0,0,1-1.64.89,1.49,1.49,0,0,1-1.66-1.5c0-1.1.85-1.6,2.35-1.6H153V535c0-.5-.15-1.17-1.29-1.17s-1.16.53-1.27.94h-.5a1.55,1.55,0,0,1,1.78-1.4c1.14,0,1.78.48,1.78,1.58Zm-.49-1.6h-1c-1.11,0-1.8.29-1.8,1.15a1,1,0,0,0,1.15,1.06c1.43,0,1.63-1,1.63-2Z"/><path class="cls-31" d="M87.71,549.08a1.32,1.32,0,0,0,1.42,1c.89,0,1.25-.41,1.25-1S90.14,548.3,89,548c-1.29-.31-1.61-.7-1.61-1.36s.52-1.33,1.65-1.33a1.59,1.59,0,0,1,1.75,1.4h-.5A1.18,1.18,0,0,0,89,545.8c-.87,0-1.12.43-1.12.83s.24.69,1.23.93c1.41.34,1.76.8,1.76,1.55,0,.91-.74,1.47-1.79,1.47a1.74,1.74,0,0,1-1.92-1.5Z"/><path class="cls-31" d="M95.83,549a1.92,1.92,0,0,1-1.94,1.59c-1.25,0-2.14-.93-2.14-2.6,0-1.37.73-2.64,2.2-2.64a1.79,1.79,0,0,1,1.88,1.6h-.51a1.35,1.35,0,0,0-1.38-1.13c-1.06,0-1.66.9-1.66,2.15s.56,2.15,1.61,2.15A1.41,1.41,0,0,0,95.32,549Z"/><path class="cls-31" d="M100.46,549.51a5.72,5.72,0,0,0,.07,1h-.48a3.29,3.29,0,0,1-.09-.77,1.64,1.64,0,0,1-1.64.89,1.49,1.49,0,0,1-1.66-1.5c0-1.1.85-1.6,2.35-1.6H100V547c0-.5-.15-1.17-1.29-1.17s-1.16.53-1.27.94h-.5a1.55,1.55,0,0,1,1.78-1.4c1.14,0,1.78.48,1.78,1.58Zm-.49-1.6H99c-1.11,0-1.8.29-1.8,1.15a1,1,0,0,0,1.15,1.06c1.43,0,1.63-1,1.63-2Z"/><path class="cls-31" d="M102.11,550.46V543.1h.5v7.36Z"/><path class="cls-31" d="M104.36,548c0,1.29.66,2.09,1.62,2.09a1.41,1.41,0,0,0,1.44-.94h.51a1.92,1.92,0,0,1-2,1.41c-1.52,0-2.11-1.31-2.11-2.58,0-1.43.71-2.66,2.17-2.66a2.07,2.07,0,0,1,2,2.27c0,.14,0,.28,0,.41Zm3.17-.44a1.58,1.58,0,0,0-1.53-1.77c-1,0-1.5.72-1.61,1.77Z"/><path class="cls-31" d="M113.18,543.1V549c0,.48,0,.94,0,1.44h-.48c0-.12,0-.59,0-.84a1.64,1.64,0,0,1-1.68,1c-1.3,0-2.08-1.06-2.08-2.56s.85-2.68,2.21-2.68c1,0,1.4.43,1.55.75v-3Zm-3.73,4.9c0,1.37.71,2.11,1.57,2.11,1.32,0,1.68-.91,1.68-2.27s-.31-2-1.59-2C110.12,545.81,109.45,546.6,109.45,548Z"/><path class="cls-31" d="M121.28,543.1V549c0,.48,0,.94,0,1.44h-.48c0-.12,0-.59,0-.84a1.64,1.64,0,0,1-1.68,1c-1.3,0-2.08-1.06-2.08-2.56s.85-2.68,2.21-2.68c1,0,1.4.43,1.55.75v-3Zm-3.73,4.9c0,1.37.71,2.11,1.57,2.11,1.32,0,1.67-.91,1.67-2.27s-.3-2-1.58-2C118.22,545.81,117.55,546.6,117.55,548Z"/><path class="cls-31" d="M126.28,549.51a5.72,5.72,0,0,0,.07,1h-.48a3.29,3.29,0,0,1-.09-.77,1.64,1.64,0,0,1-1.64.89,1.49,1.49,0,0,1-1.66-1.5c0-1.1.85-1.6,2.35-1.6h1V547c0-.5-.15-1.17-1.29-1.17s-1.16.53-1.27.94h-.5a1.55,1.55,0,0,1,1.78-1.4c1.14,0,1.78.48,1.78,1.58Zm-.49-1.6h-1c-1.11,0-1.8.29-1.8,1.15a1,1,0,0,0,1.15,1.06c1.43,0,1.63-1,1.63-2Z"/><path class="cls-31" d="M127.13,545.46h.93V543.9h.5v1.56h1.19v.47h-1.19v3.25c0,.56.12.88.6.88a1.89,1.89,0,0,0,.52-.06v.44a1.76,1.76,0,0,1-.62.09c-.64,0-1-.32-1-1.12v-3.48h-.93Z"/><path class="cls-31" d="M134.2,549.51a5.72,5.72,0,0,0,.07,1h-.48a3.29,3.29,0,0,1-.09-.77,1.64,1.64,0,0,1-1.64.89,1.49,1.49,0,0,1-1.66-1.5c0-1.1.85-1.6,2.35-1.6h.95V547c0-.5-.15-1.17-1.29-1.17s-1.16.53-1.27.94h-.5a1.55,1.55,0,0,1,1.78-1.4c1.14,0,1.78.48,1.78,1.58Zm-.49-1.6h-1c-1.11,0-1.8.29-1.8,1.15a1,1,0,0,0,1.15,1.06c1.43,0,1.63-1,1.63-2Z"/><path class="cls-32" d="M321,117.56a1.92,1.92,0,0,1,1.59,1.94c0,1.25-.93,2.14-2.6,2.14-1.37,0-2.64-.73-2.64-2.2a1.79,1.79,0,0,1,1.6-1.88v.51a1.35,1.35,0,0,0-1.13,1.38c0,1.06.9,1.66,2.15,1.66s2.15-.56,2.15-1.61a1.41,1.41,0,0,0-1.12-1.43Z"/><path class="cls-32" d="M320,116.24c1.29,0,2.09-.66,2.09-1.62a1.41,1.41,0,0,0-.94-1.44v-.51a1.92,1.92,0,0,1,1.41,2c0,1.52-1.31,2.11-2.58,2.11-1.43,0-2.66-.71-2.66-2.17a2.07,2.07,0,0,1,2.27-2H320Zm-.44-3.17a1.58,1.58,0,0,0-1.77,1.53c0,1,.72,1.5,1.77,1.61Z"/><path class="cls-32" d="M322.48,111.29h-7.37v-.5h7.37Z"/><path class="cls-32" d="M322.48,109.15h-7.37v-.5h7.37Z"/><path class="cls-32" d="M317.48,105.16v-.93h-1.56v-.5h1.56v-1.19H318v1.19h3.25c.56,0,.88-.12.88-.6a1.89,1.89,0,0,0-.06-.52h.44a1.76,1.76,0,0,1,.09.62c0,.64-.32,1-1.12,1H318v.93Z"/><path class="cls-32" d="M317.48,101.35c2.86-1,4-1.45,4.58-1.62h0l-4.58-1.57v-.52l5.29,1.88c1.48.53,1.81.89,1.81,1.79a3.33,3.33,0,0,1,0,.46h-.5a3.29,3.29,0,0,0,0-.45c0-.72-.35-1-1.38-1.32l-5.22,1.91Z"/><path class="cls-32" d="M321.74,96.07h2.74v.5h-7v-.49c.19,0,.49,0,.9,0a1.84,1.84,0,0,1-1-1.76c0-1.18,1-2,2.49-2,1.8,0,2.75,1,2.75,2.17A1.64,1.64,0,0,1,321.74,96.07Zm-1.87-3.23c-1.16,0-2,.56-2,1.55,0,1.21.76,1.71,2.12,1.71s2.17-.39,2.17-1.64C322.13,93.42,321.25,92.84,319.87,92.84Z"/><path class="cls-32" d="M320,90.89c1.29,0,2.09-.66,2.09-1.62a1.41,1.41,0,0,0-.94-1.44v-.51a1.92,1.92,0,0,1,1.41,2c0,1.52-1.31,2.11-2.58,2.11-1.43,0-2.66-.71-2.66-2.17a2.07,2.07,0,0,1,2.27-2H320Zm-.44-3.17a1.58,1.58,0,0,0-1.77,1.53c0,1,.72,1.5,1.77,1.61Z"/><path class="cls-32" d="M278.93,118.65a1.92,1.92,0,0,1,1.59,1.94c0,1.25-.93,2.14-2.6,2.14-1.37,0-2.64-.73-2.64-2.2a1.79,1.79,0,0,1,1.6-1.88v.51a1.35,1.35,0,0,0-1.13,1.38c0,1.06.9,1.66,2.15,1.66s2.15-.56,2.15-1.61a1.41,1.41,0,0,0-1.12-1.43Z"/><path class="cls-32" d="M278,117.33c1.29,0,2.09-.66,2.09-1.62a1.41,1.41,0,0,0-.94-1.44v-.51a1.92,1.92,0,0,1,1.41,2c0,1.52-1.31,2.11-2.58,2.11-1.43,0-2.66-.71-2.66-2.17a2.07,2.07,0,0,1,2.27-2H278Zm-.44-3.17a1.58,1.58,0,0,0-1.77,1.53c0,1,.72,1.5,1.77,1.61Z"/><path class="cls-32" d="M280.4,112.38H273v-.5h7.37Z"/><path class="cls-32" d="M280.4,110.24H273v-.5h7.37Z"/><path class="cls-32" d="M273.4,104.8h7v.54h-7Z"/><path class="cls-32" d="M273.4,102.74v-2.32a3.16,3.16,0,0,1,3.44-3.25,3.25,3.25,0,0,1,3.56,3.26v2.31Zm6.5-.54v-1.69c0-1.85-1.3-2.76-3-2.76a2.68,2.68,0,0,0-3,2.76v1.69Z"/><path class="cls-32" d="M332.6,122.06h-1.29v-.5h1.29Z"/><path class="cls-32" d="M332.6,117.76h-1.29v-.5h1.29Z"/><path class="cls-32" d="M332.6,113.46h-1.29V113h1.29Z"/><path class="cls-32" d="M206.28,331.11h-4.53V332h-.47v-.86h-.71c-.84,0-1.76-.24-1.76-1.36a1.87,1.87,0,0,1,.07-.49h.48a2.48,2.48,0,0,0-.06.54c0,.59.42.81,1.29.81h.69v-1.09h.47v1.09h4.53Z"/><path class="cls-32" d="M203.84,328.62c1.29,0,2.09-.66,2.09-1.62a1.41,1.41,0,0,0-.94-1.44v-.51a1.92,1.92,0,0,1,1.41,2c0,1.52-1.31,2.11-2.58,2.11-1.43,0-2.66-.71-2.66-2.17a2.07,2.07,0,0,1,2.27-2h.41Zm-.44-3.17a1.58,1.58,0,0,0-1.77,1.53c0,1,.72,1.5,1.77,1.61Z"/><path class="cls-32" d="M205.33,320.28a5.72,5.72,0,0,0,.95-.07v.48a3.29,3.29,0,0,1-.77.09,1.64,1.64,0,0,1,.89,1.64,1.49,1.49,0,0,1-1.5,1.66c-1.1,0-1.6-.85-1.6-2.35v-1h-.51c-.5,0-1.17.15-1.17,1.29s.53,1.16.94,1.27v.5a1.55,1.55,0,0,1-1.4-1.78c0-1.14.48-1.78,1.58-1.78Zm-1.6.49v1c0,1.11.29,1.8,1.15,1.8a1,1,0,0,0,1.06-1.15c0-1.43-.95-1.63-2-1.63Z"/><path class="cls-32" d="M201.28,319.43v-.93h-1.56V318h1.56v-1.19h.47V318H205c.56,0,.88-.12.88-.6a1.89,1.89,0,0,0-.06-.52h.44a1.76,1.76,0,0,1,.09.62c0,.64-.32,1-1.12,1h-3.48v.93Z"/><path class="cls-32" d="M202.54,313.19h-1.26v-.49c.16,0,.81,0,.95,0a1.63,1.63,0,0,1-1.07-1.66c0-.89.5-1.68,1.88-1.68h3.24v.5h-3.16c-.89,0-1.47.37-1.47,1.24,0,1.19,1,1.6,2.08,1.6h2.55v.5Z"/><path class="cls-32" d="M205.33,304.34a5.72,5.72,0,0,0,.95-.07v.48a3.29,3.29,0,0,1-.77.09,1.64,1.64,0,0,1,.89,1.64,1.49,1.49,0,0,1-1.5,1.66c-1.1,0-1.6-.85-1.6-2.35v-1h-.51c-.5,0-1.17.15-1.17,1.29s.53,1.16.94,1.27v.5a1.55,1.55,0,0,1-1.4-1.78c0-1.14.48-1.78,1.58-1.78Zm-1.6.49v1c0,1.11.29,1.8,1.15,1.8a1,1,0,0,0,1.06-1.15c0-1.43-.95-1.63-2-1.63Z"/><path class="cls-32" d="M202.57,302.69h-1.29v-.49c.17,0,.6,0,.89,0a1.56,1.56,0,0,1-1-1.5,1.42,1.42,0,0,1,1-1.45,1.7,1.7,0,0,1-1-1.63c0-.77.44-1.57,1.83-1.57h3.29v.5h-3.23c-.67,0-1.4.24-1.4,1.17s.78,1.41,1.75,1.41h2.88v.49h-3.22c-.73,0-1.41.22-1.41,1.14s.86,1.44,1.88,1.44h2.75v.5Z"/><path class="cls-32" d="M203.84,294.29c1.29,0,2.09-.66,2.09-1.62a1.41,1.41,0,0,0-.94-1.44v-.51a1.92,1.92,0,0,1,1.41,2c0,1.52-1.31,2.11-2.58,2.11-1.43,0-2.66-.71-2.66-2.17a2.07,2.07,0,0,1,2.27-2h.41Zm-.44-3.17a1.58,1.58,0,0,0-1.77,1.53c0,1,.72,1.5,1.77,1.61Z"/><path class="cls-32" d="M226.88,330.53h3.21a1.74,1.74,0,0,1-1-1.65c0-.71.36-1.69,1.94-1.69h3.18v.5h-3.08c-1,0-1.55.45-1.55,1.28,0,1,.61,1.56,1.84,1.56h2.79v.5h-7.37Z"/><path class="cls-32" d="M229.25,325.78c2.29-.81,3.85-1.37,4.49-1.56h0c-.37-.11-1.86-.67-4.49-1.64V322l5,1.89v.6l-5,1.78Z"/><path class="cls-32" d="M234.25,320.59h-4.53v.86h-.47v-.86h-.71c-.84,0-1.76-.24-1.76-1.36a1.87,1.87,0,0,1,.07-.49h.48a2.48,2.48,0,0,0-.06.54c0,.59.42.81,1.29.81h.69V319h.47v1.09h4.53Z"/><path class="cls-32" d="M217.1,330.82h-1.29v-.49c.17,0,.6,0,.89,0a1.56,1.56,0,0,1-1-1.5,1.42,1.42,0,0,1,1-1.45,1.7,1.7,0,0,1-1-1.63c0-.77.44-1.57,1.83-1.57h3.28v.5h-3.22c-.67,0-1.4.24-1.4,1.17s.78,1.41,1.75,1.41h2.87v.49h-3.21c-.73,0-1.41.22-1.41,1.14s.86,1.44,1.88,1.44h2.74v.5Z"/><path class="cls-32" d="M218.37,322.42c1.28,0,2.08-.66,2.08-1.62a1.41,1.41,0,0,0-.94-1.44v-.51a1.92,1.92,0,0,1,1.41,2c0,1.52-1.31,2.11-2.57,2.11-1.43,0-2.66-.71-2.66-2.17a2.07,2.07,0,0,1,2.27-2h.41Zm-.44-3.17a1.58,1.58,0,0,0-1.77,1.53c0,1,.72,1.5,1.77,1.61Z"/><path class="cls-32" d="M219.85,314.08a5.72,5.72,0,0,0,1-.07v.48a3.29,3.29,0,0,1-.77.09,1.64,1.64,0,0,1,.89,1.64,1.49,1.49,0,0,1-1.5,1.66c-1.09,0-1.59-.85-1.59-2.35v-.95h-.51c-.5,0-1.17.15-1.17,1.29s.53,1.16.94,1.27v.5a1.55,1.55,0,0,1-1.4-1.78c0-1.14.48-1.78,1.58-1.78Zm-1.6.49v1c0,1.11.29,1.8,1.15,1.8a1,1,0,0,0,1.06-1.15c0-1.43-1-1.63-2-1.63Z"/><path class="cls-32" d="M217.07,312.43h-1.26V312c.16,0,.81,0,.95,0a1.63,1.63,0,0,1-1.07-1.66c0-.89.5-1.68,1.88-1.68h3.23v.5h-3.15c-.89,0-1.47.37-1.47,1.24,0,1.19,1,1.6,2.07,1.6h2.55v.5Z"/><path class="cls-32" d="M218.37,304.24c1.28,0,2.08-.66,2.08-1.62a1.41,1.41,0,0,0-.94-1.44v-.51a1.92,1.92,0,0,1,1.41,2c0,1.52-1.31,2.11-2.57,2.11-1.43,0-2.66-.71-2.66-2.17a2.07,2.07,0,0,1,2.27-2h.41Zm-.44-3.17a1.58,1.58,0,0,0-1.77,1.53c0,1,.72,1.5,1.77,1.61Z"/><path class="cls-32" d="M215.81,299.36l2.08-1.39h0l-2.08-1.46v-.57l2.42,1.74,2.57-1.77v.6L218.63,298h0l2.17,1.46V300l-2.53-1.77L215.81,300Z"/><path class="cls-32" d="M220.06,294.52h2.74v.5h-7v-.49c.19,0,.49,0,.9,0a1.84,1.84,0,0,1-1-1.76c0-1.18,1-2,2.49-2,1.79,0,2.74,1,2.74,2.17A1.64,1.64,0,0,1,220.06,294.52Zm-1.86-3.23c-1.16,0-2,.56-2,1.55,0,1.21.76,1.71,2.12,1.71s2.16-.39,2.16-1.64C220.45,291.87,219.57,291.29,218.2,291.29Z"/><path class="cls-32" d="M217.17,289.51h-1.36V289c.16,0,.48,0,1.12,0a1.89,1.89,0,0,1-1.24-1.74h.54a1.81,1.81,0,0,0,2,1.74h2.59v.5Z"/><path class="cls-32" d="M218.37,286.24c1.28,0,2.08-.66,2.08-1.62a1.41,1.41,0,0,0-.94-1.44v-.51a1.92,1.92,0,0,1,1.41,2c0,1.52-1.31,2.11-2.57,2.11-1.43,0-2.66-.71-2.66-2.17a2.07,2.07,0,0,1,2.27-2h.41Zm-.44-3.17a1.58,1.58,0,0,0-1.77,1.53c0,1,.72,1.5,1.77,1.61Z"/><path class="cls-32" d="M219.42,281.21a1.32,1.32,0,0,0,1-1.42c0-.89-.41-1.25-1-1.25s-.85.24-1.12,1.36c-.31,1.29-.7,1.61-1.36,1.61s-1.33-.52-1.33-1.65a1.59,1.59,0,0,1,1.4-1.75v.5a1.18,1.18,0,0,0-.94,1.27c0,.87.43,1.12.83,1.12s.69-.24.93-1.23c.34-1.41.8-1.76,1.55-1.76.9,0,1.46.74,1.46,1.79a1.74,1.74,0,0,1-1.5,1.92Z"/><path class="cls-32" d="M219.42,276.65a1.32,1.32,0,0,0,1-1.42c0-.89-.41-1.25-1-1.25s-.85.24-1.12,1.36c-.31,1.29-.7,1.61-1.36,1.61s-1.33-.52-1.33-1.65a1.59,1.59,0,0,1,1.4-1.75v.5a1.18,1.18,0,0,0-.94,1.27c0,.87.43,1.12.83,1.12s.69-.24.93-1.23c.34-1.41.8-1.76,1.55-1.76.9,0,1.46.74,1.46,1.79a1.74,1.74,0,0,1-1.5,1.92Z"/><path class="cls-32" d="M213.44,272.21v-.5h1v.5Zm2.37,0v-.5h5v.5Z"/><path class="cls-32" d="M218.29,266a2.35,2.35,0,0,1,2.63,2.26c0,1.35-1.11,2.19-2.61,2.19a2.33,2.33,0,0,1-2.62-2.24C215.69,266.9,216.73,266,218.29,266Zm0,3.92c1.19,0,2.14-.64,2.14-1.7s-.89-1.69-2.14-1.69-2.15.6-2.15,1.71S217.11,269.94,218.31,269.94Z"/><path class="cls-32" d="M217.07,264.78h-1.26v-.49c.16,0,.81,0,.95,0a1.63,1.63,0,0,1-1.07-1.66c0-.89.5-1.68,1.88-1.68h3.23v.5h-3.15c-.89,0-1.47.37-1.47,1.24,0,1.19,1,1.6,2.07,1.6h2.55v.5Z"/><path class="cls-32" d="M243.85,330.43h-1.29v-.5h1.29Z"/><path class="cls-32" d="M243.85,326.13h-1.29v-.5h1.29Z"/><path class="cls-32" d="M243.85,321.83h-1.29v-.5h1.29Z"/><path class="cls-32" d="M289.92,122.66v-.93h-1.55v-.5h1.55V120h.47v1.19h3.25c.56,0,.88-.12.88-.6a1.89,1.89,0,0,0-.06-.52h.44a1.76,1.76,0,0,1,.09.62c0,.64-.32,1-1.12,1h-3.48v.93Z"/><path class="cls-32" d="M292.41,115a2.35,2.35,0,0,1,2.63,2.26c0,1.35-1.11,2.19-2.62,2.19a2.33,2.33,0,0,1-2.62-2.24C289.8,115.91,290.84,115,292.41,115Zm0,3.92c1.19,0,2.15-.64,2.15-1.7s-.89-1.69-2.15-1.69-2.15.6-2.15,1.71S291.22,119,292.42,119Z"/><path class="cls-32" d="M289.92,114.54v-.93h-1.55v-.5h1.55v-1.19h.47v1.19h3.25c.56,0,.88-.12.88-.6a1.89,1.89,0,0,0-.06-.52h.44a1.76,1.76,0,0,1,.09.62c0,.64-.32,1-1.12,1h-3.48v.93Z"/><path class="cls-32" d="M294,107.47a5.72,5.72,0,0,0,.95-.07v.48a3.29,3.29,0,0,1-.77.09,1.64,1.64,0,0,1,.89,1.64,1.49,1.49,0,0,1-1.5,1.66c-1.1,0-1.6-.85-1.6-2.35v-1h-.51c-.5,0-1.17.15-1.17,1.29s.53,1.16.94,1.27v.5a1.55,1.55,0,0,1-1.4-1.78c0-1.14.48-1.78,1.58-1.78Zm-1.6.49v1c0,1.11.29,1.8,1.15,1.8a1,1,0,0,0,1.06-1.15c0-1.43-.95-1.63-2-1.63Z"/><path class="cls-32" d="M294.92,105.82h-7.36v-.5h7.36Z"/><path class="cls-32" d="M292.48,101c1.29,0,2.09-.66,2.09-1.62a1.41,1.41,0,0,0-.94-1.44V97.4a1.92,1.92,0,0,1,1.41,2c0,1.52-1.31,2.11-2.58,2.11-1.43,0-2.66-.71-2.66-2.17a2.07,2.07,0,0,1,2.27-2h.41ZM292,97.8a1.58,1.58,0,0,0-1.77,1.53c0,1,.72,1.5,1.77,1.61Z"/><path class="cls-32" d="M289.92,96.09,292,94.7h0l-2.08-1.46v-.57l2.42,1.74,2.58-1.77v.6l-2.18,1.48h0l2.18,1.46v.58L292.38,95l-2.46,1.69Z"/><path class="cls-32" d="M294.18,91.25h2.74v.5h-7v-.49c.19,0,.49,0,.9,0a1.84,1.84,0,0,1-1-1.76c0-1.18,1-2,2.49-2,1.8,0,2.75,1,2.75,2.17A1.64,1.64,0,0,1,294.18,91.25ZM292.31,88c-1.16,0-2,.56-2,1.55,0,1.21.76,1.71,2.12,1.71s2.17-.39,2.17-1.64C294.57,88.6,293.69,88,292.31,88Z"/><path class="cls-32" d="M291.28,86.24h-1.36v-.49c.16,0,.48,0,1.12,0A1.89,1.89,0,0,1,289.8,84h.54a1.81,1.81,0,0,0,2,1.74h2.6v.5Z"/><path class="cls-32" d="M292.48,83c1.29,0,2.09-.66,2.09-1.62a1.41,1.41,0,0,0-.94-1.44V79.4a1.92,1.92,0,0,1,1.41,2c0,1.52-1.31,2.11-2.58,2.11-1.43,0-2.66-.71-2.66-2.17a2.07,2.07,0,0,1,2.27-2h.41ZM292,79.8a1.58,1.58,0,0,0-1.77,1.53c0,1,.72,1.5,1.77,1.61Z"/><path class="cls-32" d="M293.54,77.94a1.32,1.32,0,0,0,1-1.42c0-.89-.41-1.25-1-1.25s-.85.24-1.12,1.36c-.31,1.29-.7,1.61-1.36,1.61s-1.33-.52-1.33-1.65a1.59,1.59,0,0,1,1.4-1.75v.5a1.18,1.18,0,0,0-.94,1.27c0,.87.43,1.12.83,1.12s.69-.24.93-1.23c.34-1.41.8-1.76,1.55-1.76.91,0,1.47.74,1.47,1.79a1.74,1.74,0,0,1-1.5,1.92Z"/><path class="cls-32" d="M293.54,73.38a1.32,1.32,0,0,0,1-1.42c0-.89-.41-1.25-1-1.25s-.85.24-1.12,1.36c-.31,1.29-.7,1.61-1.36,1.61s-1.33-.52-1.33-1.65a1.59,1.59,0,0,1,1.4-1.75v.5a1.18,1.18,0,0,0-.94,1.27c0,.87.43,1.12.83,1.12s.69-.24.93-1.23c.34-1.41.8-1.76,1.55-1.76.91,0,1.47.74,1.47,1.79a1.74,1.74,0,0,1-1.5,1.92Z"/><path class="cls-32" d="M287.56,68.94v-.5h1v.5Zm2.36,0v-.5h5v.5Z"/><path class="cls-32" d="M292.41,62.75A2.35,2.35,0,0,1,295,65c0,1.35-1.11,2.19-2.62,2.19A2.33,2.33,0,0,1,289.8,65C289.8,63.63,290.84,62.75,292.41,62.75Zm0,3.92c1.19,0,2.15-.64,2.15-1.7s-.89-1.69-2.15-1.69-2.15.6-2.15,1.71S291.22,66.67,292.42,66.67Z"/><path class="cls-32" d="M291.18,61.51h-1.26V61c.16,0,.81,0,.95,0a1.63,1.63,0,0,1-1.07-1.66c0-.89.5-1.68,1.88-1.68h3.24v.5h-3.16c-.89,0-1.47.37-1.47,1.24,0,1.19,1,1.6,2.08,1.6h2.55v.5Z"/><g class="cls-30"><rect class="cls-29" x="612.08" y="415.13" width="110.58" height="78.59" transform="translate(1121.79 -212.95) rotate(90)"/><rect class="cls-24" x="656.07" y="403.83" width="22.59" height="78.59" transform="translate(1110.49 -224.24) rotate(90)"/></g><rect class="cls-21" x="464.94" y="423.17" width="110.58" height="53.8" transform="translate(970.29 -70.16) rotate(90)"/><rect class="cls-24" x="508.93" y="411.87" width="22.59" height="53.8" transform="translate(959 -81.45) rotate(90)"/><text class="cls-23" transform="translate(481.87 524.65)">@spatial_locs</text><text class="cls-23" transform="translate(619.48 524.65)">@spatial_network</text><path class="cls-33" d="M454.26,312.64h3.66c2,0,3.54,1.06,3.54,3.14s-1.49,3.29-3.72,3.29H456v4.55h-1.69Zm1.69,5.07h1.68c1.31,0,2.12-.51,2.12-1.91,0-1.22-.82-1.79-2.06-1.79H456Z"/><path class="cls-33" d="M464.58,312v4.46a2.37,2.37,0,0,1,2.27-1.21c1.3,0,2.46.72,2.46,2.85v5.49h-1.62v-5.21c0-1.06-.37-1.74-1.44-1.74s-1.67.8-1.67,2.25v4.7H463V312Z"/><path class="cls-33" d="M472.08,315.43c1.05,3.61,1.67,5.66,1.83,6.62h0c.22-1,.93-3.62,1.81-6.62h1.66L474.67,324c-.81,2.53-1.61,2.91-3,2.91a4.88,4.88,0,0,1-.73-.06v-1.37a5.07,5.07,0,0,0,.68,0c.85,0,1.16-.61,1.46-1.62l-2.79-8.46Z"/><path class="cls-33" d="M479.59,321.19a1.47,1.47,0,0,0,1.58,1.34c.93,0,1.34-.47,1.34-1.1s-.46-1-1.72-1.37c-2-.6-2.53-1.31-2.53-2.45s.7-2.33,2.81-2.33,2.8,1.15,2.88,2.41h-1.6a1.23,1.23,0,0,0-1.35-1.18c-.75,0-1.13.38-1.13,1s.31.84,1.56,1.19c2,.58,2.71,1.3,2.71,2.61,0,1.58-1.22,2.49-3,2.49s-3-.89-3.12-2.57Z"/><path class="cls-33" d="M485.67,315.43h1.63v8.19h-1.63Zm0-3.4h1.63v1.82h-1.63Z"/><path class="cls-33" d="M495.58,320.93a3.1,3.1,0,0,1-3.26,2.84c-2.35,0-3.38-1.62-3.38-4.26,0-2.41,1.17-4.23,3.49-4.23a3,3,0,0,1,3.15,2.88h-1.65c-.1-.73-.46-1.57-1.53-1.57-1.27,0-1.8,1.18-1.8,2.89,0,2,.62,3,1.77,3s1.39-.75,1.59-1.54Z"/><path class="cls-33" d="M503,321.75a18.05,18.05,0,0,0,.1,1.87H501.6a5.39,5.39,0,0,1-.11-1.09,2.29,2.29,0,0,1-2.29,1.23,2.32,2.32,0,0,1-2.55-2.46c0-1.39.93-2.65,3.65-2.65h1.05v-.78c0-.69-.19-1.38-1.35-1.38a1.27,1.27,0,0,0-1.45,1.29H497c.09-1.3.83-2.51,3.08-2.51,1.78,0,2.92.7,2.92,2.54Zm-1.56-1.95h-1.07c-1.67,0-2,.69-2,1.39a1.2,1.2,0,0,0,1.31,1.28c1.39,0,1.8-.94,1.8-2.45Z"/><path class="cls-33" d="M505.09,323.62V312h1.63v11.59Z"/><path class="cls-33" d="M513.81,320.5a2,2,0,0,0,2.15,1.92c1.24,0,1.88-.62,1.88-1.67s-.55-1.6-2.26-2.17c-2.27-.74-3.12-1.55-3.12-3.14,0-1.81,1.36-2.95,3.38-2.95,2.43,0,3.38,1.43,3.48,3h-1.66a1.71,1.71,0,0,0-1.85-1.67c-1.12,0-1.66.58-1.66,1.46s.54,1.31,2.14,1.83c2.57.85,3.28,1.88,3.28,3.46,0,1.79-1.19,3.19-3.68,3.19-2.33,0-3.61-1.28-3.75-3.26Z"/><path class="cls-33" d="M522.75,322.78v4h-1.63v-9c0-1.11,0-1.87,0-2.39h1.59c0,.25,0,.76,0,1.18a2.4,2.4,0,0,1,2.35-1.33c1.7,0,2.92,1.36,2.92,4.13s-1.39,4.35-3.25,4.35A2.09,2.09,0,0,1,522.75,322.78Zm3.59-3.32c0-1.92-.68-2.8-1.81-2.8-1.43,0-1.85,1-1.85,2.87s.31,2.87,1.78,2.87C525.67,322.4,526.34,321.35,526.34,319.46Z"/><path class="cls-33" d="M535.42,321.75a15.56,15.56,0,0,0,.11,1.87h-1.47a7.38,7.38,0,0,1-.11-1.09,2.28,2.28,0,0,1-2.29,1.23,2.32,2.32,0,0,1-2.55-2.46c0-1.39.93-2.65,3.65-2.65h1v-.78c0-.69-.19-1.38-1.35-1.38a1.27,1.27,0,0,0-1.45,1.29h-1.58c.09-1.3.82-2.51,3.08-2.51,1.77,0,2.91.7,2.91,2.54Zm-1.56-1.95h-1.07c-1.66,0-2,.69-2,1.39a1.2,1.2,0,0,0,1.31,1.28c1.39,0,1.79-.94,1.79-2.45Z"/><path class="cls-33" d="M543.71,320.93a3.11,3.11,0,0,1-3.26,2.84c-2.35,0-3.39-1.62-3.39-4.26,0-2.41,1.17-4.23,3.49-4.23a2.94,2.94,0,0,1,3.15,2.88h-1.64c-.1-.73-.46-1.57-1.53-1.57-1.28,0-1.8,1.18-1.8,2.89,0,2,.61,3,1.76,3s1.39-.75,1.59-1.54Z"/><path class="cls-33" d="M546.47,319.88c0,1.37.49,2.56,1.8,2.56a1.57,1.57,0,0,0,1.6-1.22h1.6a3.15,3.15,0,0,1-3.25,2.55c-2.57,0-3.4-2-3.4-4.26s1-4.23,3.47-4.23,3.29,1.94,3.29,3.94c0,.1,0,.55,0,.66Zm3.5-1.15c0-1.19-.45-2.16-1.7-2.16-1.43,0-1.72,1.35-1.77,2.16Z"/><line class="cls-15" x1="651.09" y1="379.32" x2="653.68" y2="369.22"/><line class="cls-15" x1="664.02" y1="376.97" x2="653.68" y2="369.22"/><line class="cls-15" x1="651.09" y1="379.32" x2="664.02" y2="376.97"/><line class="cls-15" x1="641.93" y1="384.26" x2="651.09" y2="379.32"/><line class="cls-15" x1="653.68" y1="369.22" x2="657.67" y2="360.99"/><line class="cls-15" x1="664.02" y1="376.97" x2="669.66" y2="358.41"/><line class="cls-15" x1="657.67" y1="360.99" x2="664.02" y2="376.97"/><line class="cls-15" x1="669.66" y1="358.41" x2="657.67" y2="360.99"/><line class="cls-15" x1="679.77" y1="380.73" x2="669.66" y2="358.41"/><line class="cls-15" x1="664.02" y1="376.97" x2="679.77" y2="380.73"/><line class="cls-15" x1="657.67" y1="360.99" x2="650.15" y2="338.9"/><line class="cls-15" x1="641.69" y1="351.36" x2="650.15" y2="338.9"/><line class="cls-15" x1="657.67" y1="360.99" x2="641.69" y2="351.36"/><path class="cls-34" d="M641.93,384.76a.5.5,0,0,0,0-1,.5.5,0,0,0,0,1Z"/><path class="cls-34" d="M651.09,379.82a.5.5,0,0,0,0-1,.5.5,0,0,0,0,1Z"/><path class="cls-34" d="M653.68,369.72a.5.5,0,0,0,0-1,.5.5,0,0,0,0,1Z"/><path class="cls-34" d="M657.67,361.49a.5.5,0,0,0,0-1,.5.5,0,0,0,0,1Z"/><path class="cls-34" d="M641.69,351.86a.5.5,0,0,0,0-1,.5.5,0,0,0,0,1Z"/><path class="cls-34" d="M650.15,339.4a.5.5,0,0,0,0-1,.5.5,0,0,0,0,1Z"/><path class="cls-34" d="M669.66,358.91a.5.5,0,0,0,0-1,.5.5,0,0,0,0,1Z"/><path class="cls-34" d="M664,377.47a.5.5,0,0,0,0-1,.5.5,0,0,0,0,1Z"/><path class="cls-34" d="M679.77,381.23a.5.5,0,0,0,0-1,.5.5,0,0,0,0,1Z"/><circle class="cls-27" cx="641.69" cy="384.52" r="1.83"/><circle class="cls-27" cx="679.77" cy="380.73" r="1.83"/><circle class="cls-27" cx="664.02" cy="376.97" r="1.83"/><circle class="cls-27" cx="651.09" cy="379.32" r="1.83"/><circle class="cls-27" cx="653.91" cy="369.22" r="1.83"/><circle class="cls-27" cx="669.66" cy="358.41" r="1.83"/><circle class="cls-27" cx="657.67" cy="360.99" r="1.83"/><circle class="cls-27" cx="650.15" cy="338.9" r="1.83"/><circle class="cls-27" cx="641.69" cy="351.36" r="1.83"/><rect class="cls-29" x="607.88" y="410.77" width="110.58" height="78.59" transform="translate(1113.23 -213.1) rotate(90)"/><rect class="cls-24" x="651.87" y="399.48" width="22.59" height="78.59" transform="translate(1101.94 -224.39) rotate(90)"/><path class="cls-31" d="M499.58,536.79a1.32,1.32,0,0,0,1.42,1c.89,0,1.25-.41,1.25-1s-.24-.85-1.36-1.12c-1.29-.31-1.61-.7-1.61-1.36s.52-1.33,1.65-1.33a1.59,1.59,0,0,1,1.75,1.4h-.5a1.18,1.18,0,0,0-1.27-.94c-.87,0-1.12.43-1.12.83s.24.69,1.23.93c1.41.34,1.76.8,1.76,1.55,0,.91-.74,1.47-1.79,1.47a1.74,1.74,0,0,1-1.92-1.5Z"/><path class="cls-31" d="M504.45,537.43v2.74H504V534.4c0-.41,0-.85,0-1.23h.49c0,.19,0,.49,0,.9a1.84,1.84,0,0,1,1.76-1c1.18,0,2,1,2,2.49,0,1.8-1,2.75-2.17,2.75A1.64,1.64,0,0,1,504.45,537.43Zm3.23-1.87c0-1.16-.56-2-1.55-2-1.21,0-1.71.76-1.71,2.12s.39,2.17,1.64,2.17C507.1,537.82,507.68,536.94,507.68,535.56Z"/><path class="cls-31" d="M512.89,537.22a5.72,5.72,0,0,0,.07.95h-.48a3.29,3.29,0,0,1-.09-.77,1.64,1.64,0,0,1-1.64.89,1.49,1.49,0,0,1-1.66-1.5c0-1.1.85-1.6,2.35-1.6h.95v-.51c0-.5-.15-1.17-1.29-1.17s-1.16.53-1.27.94h-.5a1.55,1.55,0,0,1,1.78-1.4c1.14,0,1.78.48,1.78,1.58Zm-.49-1.6h-1c-1.11,0-1.8.29-1.8,1.15a1,1,0,0,0,1.15,1.06c1.43,0,1.63-1,1.63-2Z"/><path class="cls-31" d="M513.74,533.17h.93v-1.56h.5v1.56h1.19v.47h-1.19v3.25c0,.56.12.88.6.88a1.89,1.89,0,0,0,.52-.06v.44a1.76,1.76,0,0,1-.62.09c-.64,0-1-.32-1-1.12v-3.48h-.93Z"/><path class="cls-31" d="M517.38,530.8h.5v1h-.5Zm0,2.37h.5v5h-.5Z"/><path class="cls-31" d="M522.88,537.22a5.72,5.72,0,0,0,.07.95h-.48a3.29,3.29,0,0,1-.09-.77,1.64,1.64,0,0,1-1.64.89,1.49,1.49,0,0,1-1.66-1.5c0-1.1.85-1.6,2.35-1.6h1v-.51c0-.5-.15-1.17-1.29-1.17s-1.16.53-1.27.94h-.5a1.55,1.55,0,0,1,1.78-1.4c1.14,0,1.78.48,1.78,1.58Zm-.49-1.6h-1c-1.11,0-1.8.29-1.8,1.15a1,1,0,0,0,1.15,1.06c1.43,0,1.63-1,1.63-2Z"/><path class="cls-31" d="M524.53,538.17V530.8h.5v7.37Z"/><path class="cls-31" d="M503.26,548.7a1.92,1.92,0,0,1-1.94,1.59c-1.25,0-2.14-.93-2.14-2.6,0-1.37.73-2.64,2.2-2.64a1.79,1.79,0,0,1,1.88,1.6h-.51a1.35,1.35,0,0,0-1.38-1.13c-1.06,0-1.66.9-1.66,2.15s.56,2.15,1.61,2.15a1.41,1.41,0,0,0,1.43-1.12Z"/><path class="cls-31" d="M508.52,547.66a2.35,2.35,0,0,1-2.26,2.63c-1.35,0-2.19-1.11-2.19-2.62a2.33,2.33,0,0,1,2.24-2.62C507.64,545.05,508.52,546.09,508.52,547.66Zm-3.92,0c0,1.19.64,2.15,1.7,2.15s1.69-.89,1.69-2.15-.6-2.15-1.71-2.15S504.6,546.47,504.6,547.67Z"/><path class="cls-31" d="M513.87,547.66a2.35,2.35,0,0,1-2.26,2.63c-1.35,0-2.19-1.11-2.19-2.62a2.33,2.33,0,0,1,2.24-2.62C513,545.05,513.87,546.09,513.87,547.66Zm-3.92,0c0,1.19.64,2.15,1.7,2.15s1.69-.89,1.69-2.15-.6-2.15-1.71-2.15S510,546.47,510,547.67Z"/><path class="cls-31" d="M515.11,546.53c0-.84,0-1.2,0-1.36h.49c0,.16,0,.48,0,1.12a1.89,1.89,0,0,1,1.74-1.24v.54a1.81,1.81,0,0,0-1.74,2v2.6h-.5Z"/><path class="cls-31" d="M522.13,542.8v5.93c0,.48,0,.94,0,1.44h-.48c0-.12,0-.59,0-.84a1.64,1.64,0,0,1-1.68,1c-1.3,0-2.08-1.06-2.08-2.56s.85-2.68,2.21-2.68c1,0,1.4.43,1.55.75v-3Zm-3.73,4.91c0,1.37.71,2.11,1.57,2.11,1.32,0,1.68-.91,1.68-2.27s-.31-2-1.59-2C519.07,545.52,518.4,546.31,518.4,547.71Z"/><path class="cls-31" d="M523.77,542.8h.5v1h-.5Zm0,2.37h.5v5h-.5Z"/><path class="cls-31" d="M525.91,546.43c0-.44,0-.86,0-1.26h.49c0,.16,0,.81,0,1a1.63,1.63,0,0,1,1.66-1.07c.89,0,1.68.5,1.68,1.88v3.24h-.5V547c0-.89-.37-1.47-1.24-1.47-1.19,0-1.6,1-1.6,2.08v2.55h-.5Z"/><path class="cls-31" d="M534.76,549.22a5.72,5.72,0,0,0,.07.95h-.48a3.29,3.29,0,0,1-.09-.77,1.64,1.64,0,0,1-1.64.89,1.49,1.49,0,0,1-1.66-1.5c0-1.1.85-1.6,2.35-1.6h1v-.51c0-.5-.15-1.17-1.29-1.17s-1.16.53-1.27.94h-.5a1.55,1.55,0,0,1,1.78-1.4c1.14,0,1.78.48,1.78,1.58Zm-.49-1.6h-1c-1.11,0-1.8.29-1.8,1.15a1,1,0,0,0,1.15,1.06c1.43,0,1.63-1,1.63-2Z"/><path class="cls-31" d="M535.61,545.17h.93v-1.56h.5v1.56h1.19v.47H537v3.25c0,.56.12.88.6.88a1.89,1.89,0,0,0,.52-.06v.44a1.76,1.76,0,0,1-.62.09c-.64,0-1-.32-1-1.12v-3.48h-.93Z"/><path class="cls-31" d="M539.3,547.73c0,1.29.66,2.09,1.62,2.09a1.41,1.41,0,0,0,1.44-.94h.51a1.92,1.92,0,0,1-2,1.41c-1.52,0-2.11-1.31-2.11-2.58,0-1.43.71-2.66,2.17-2.66a2.07,2.07,0,0,1,2,2.27c0,.14,0,.28,0,.41Zm3.17-.44a1.58,1.58,0,0,0-1.53-1.77c-1,0-1.5.72-1.61,1.77Z"/><path class="cls-31" d="M544.33,548.79a1.32,1.32,0,0,0,1.42,1c.89,0,1.25-.41,1.25-1s-.24-.85-1.36-1.12c-1.29-.31-1.61-.7-1.61-1.36s.52-1.33,1.65-1.33a1.59,1.59,0,0,1,1.75,1.4h-.5a1.18,1.18,0,0,0-1.27-.94c-.87,0-1.12.43-1.12.83s.24.69,1.23.93c1.41.34,1.76.8,1.76,1.55,0,.91-.74,1.47-1.79,1.47a1.74,1.74,0,0,1-1.92-1.5Z"/><path class="cls-31" d="M630.69,537.15v2.74h-.5v-5.77c0-.41,0-.85,0-1.23h.49c0,.19,0,.49,0,.9a1.84,1.84,0,0,1,1.76-1c1.18,0,2,1,2,2.49,0,1.8-1,2.75-2.17,2.75A1.64,1.64,0,0,1,630.69,537.15Zm3.23-1.87c0-1.16-.56-2-1.55-2-1.21,0-1.71.76-1.71,2.12s.39,2.17,1.64,2.17C633.34,537.54,633.92,536.66,633.92,535.28Z"/><path class="cls-31" d="M636.2,530.53v3.2a1.74,1.74,0,0,1,1.65-1c.71,0,1.69.36,1.69,1.94v3.18H639v-3.08c0-1-.45-1.55-1.28-1.55-1,0-1.56.61-1.56,1.84v2.79h-.5v-7.36Z"/><path class="cls-31" d="M641,532.89c1,2.86,1.45,4,1.62,4.58h0c.2-.61.6-1.77,1.57-4.58h.52l-1.88,5.29c-.53,1.48-.89,1.81-1.79,1.81a3.33,3.33,0,0,1-.46,0v-.5a3.29,3.29,0,0,0,.45,0c.72,0,1-.35,1.32-1.38l-1.91-5.22Z"/><path class="cls-31" d="M645.83,536.51a1.32,1.32,0,0,0,1.42,1c.89,0,1.25-.41,1.25-1s-.24-.85-1.36-1.12c-1.29-.31-1.61-.7-1.61-1.36s.52-1.33,1.65-1.33a1.59,1.59,0,0,1,1.75,1.4h-.5a1.18,1.18,0,0,0-1.27-.94c-.87,0-1.12.43-1.12.83s.24.69,1.23.93c1.41.34,1.76.8,1.76,1.55,0,.91-.74,1.47-1.79,1.47a1.74,1.74,0,0,1-1.92-1.5Z"/><path class="cls-31" d="M650.27,530.53h.5v1h-.5Zm0,2.36h.5v5h-.5Z"/><path class="cls-31" d="M656.08,536.42a1.91,1.91,0,0,1-1.93,1.59c-1.25,0-2.14-.93-2.14-2.6,0-1.37.73-2.64,2.2-2.64a1.77,1.77,0,0,1,1.87,1.6h-.5a1.35,1.35,0,0,0-1.38-1.13c-1.06,0-1.66.9-1.66,2.15s.56,2.15,1.61,2.15a1.41,1.41,0,0,0,1.43-1.12Z"/><path class="cls-31" d="M660.72,536.94a5.72,5.72,0,0,0,.07.95h-.48a3.29,3.29,0,0,1-.09-.77,1.64,1.64,0,0,1-1.64.89,1.49,1.49,0,0,1-1.66-1.5c0-1.1.85-1.6,2.35-1.6h1v-.51c0-.5-.15-1.17-1.29-1.17s-1.16.53-1.27.94h-.5a1.55,1.55,0,0,1,1.78-1.4c1.14,0,1.78.48,1.78,1.58Zm-.49-1.6h-1c-1.11,0-1.8.29-1.8,1.15a1,1,0,0,0,1.15,1.06c1.43,0,1.63-.95,1.63-2Z"/><path class="cls-31" d="M662.37,537.89v-7.36h.5v7.36Z"/><path class="cls-31" d="M667.11,534.15c0-.44,0-.86,0-1.26h.49c0,.16,0,.81,0,1a1.63,1.63,0,0,1,1.66-1.07c.89,0,1.67.5,1.67,1.88v3.24h-.5v-3.16c0-.89-.36-1.47-1.23-1.47-1.19,0-1.6,1-1.6,2.08v2.55h-.5Z"/><path class="cls-31" d="M672.7,535.45c0,1.29.66,2.09,1.62,2.09a1.41,1.41,0,0,0,1.44-.94h.5a1.9,1.9,0,0,1-2,1.41c-1.52,0-2.11-1.31-2.11-2.58,0-1.43.71-2.66,2.17-2.66a2.06,2.06,0,0,1,2,2.27v.41Zm3.17-.44a1.58,1.58,0,0,0-1.53-1.77c-1,0-1.5.72-1.61,1.77Z"/><path class="cls-31" d="M676.94,532.89h.93v-1.55h.5v1.55h1.19v.47h-1.19v3.25c0,.56.12.88.6.88a1.89,1.89,0,0,0,.52-.06v.44a1.76,1.76,0,0,1-.62.09c-.64,0-1-.32-1-1.12v-3.48h-.93Z"/><path class="cls-31" d="M680.71,532.89c.74,2.58,1.17,4.06,1.25,4.5h0c.08-.4.58-2,1.36-4.5h.54c.92,3.09,1.2,4,1.29,4.37h0c.14-.55.37-1.3,1.29-4.37H687l-1.58,5h-.55c-.54-1.77-1.19-3.94-1.28-4.4h0c-.1.49-.66,2.28-1.31,4.4h-.6l-1.47-5Z"/><path class="cls-31" d="M692.07,535.38a2.35,2.35,0,0,1-2.25,2.63c-1.35,0-2.19-1.11-2.19-2.62a2.33,2.33,0,0,1,2.24-2.62C691.2,532.77,692.07,533.81,692.07,535.38Zm-3.91,0c0,1.19.64,2.15,1.7,2.15s1.68-.89,1.68-2.15-.59-2.15-1.7-2.15S688.16,534.19,688.16,535.39Z"/><path class="cls-31" d="M693.32,534.25c0-.84,0-1.2,0-1.36h.49c0,.16,0,.48,0,1.12a1.89,1.89,0,0,1,1.74-1.24v.54a1.81,1.81,0,0,0-1.74,2v2.6h-.5Z"/><path class="cls-31" d="M697.06,535.47c.46-.49,1.86-1.91,2.52-2.58h.64l-2,2,2.22,3h-.62l-2-2.69-.82.8v1.89h-.5v-7.36h.5Z"/><path class="cls-31" d="M630.3,547.45c0,1.29.66,2.09,1.62,2.09a1.41,1.41,0,0,0,1.44-.94h.51a1.92,1.92,0,0,1-2,1.41c-1.52,0-2.11-1.31-2.11-2.58,0-1.43.71-2.66,2.17-2.66a2.07,2.07,0,0,1,2,2.27c0,.14,0,.28,0,.41Zm3.17-.44a1.58,1.58,0,0,0-1.53-1.77c-1,0-1.5.72-1.61,1.77Z"/><path class="cls-31" d="M635,549.89V548.6h.5v1.29Z"/><path class="cls-31" d="M640.73,549.55c0,1.6-.71,2.44-2.16,2.44a1.76,1.76,0,0,1-2-1.49h.51a1.38,1.38,0,0,0,1.47,1c1.3,0,1.66-.84,1.66-2.11v-.52a1.58,1.58,0,0,1-1.67,1c-1.17,0-2.07-.95-2.07-2.5s1-2.62,2.14-2.62c1,0,1.46.48,1.6.88,0-.29,0-.64,0-.76h.47c0,.18,0,1,0,1.45ZM637,547.37c0,1.19.63,2,1.59,2,1.25,0,1.63-.83,1.63-2.13s-.4-2-1.6-2S637,546.23,637,547.37Z"/><path class="cls-31" d="M642,549.89V548.6h.5v1.29Z"/><path class="cls-31" d="M650.39,542.53v5.92c0,.48,0,.94,0,1.44h-.48c0-.12,0-.59,0-.84a1.64,1.64,0,0,1-1.68,1c-1.3,0-2.08-1.06-2.08-2.56s.85-2.68,2.21-2.68c1,0,1.4.43,1.55.75v-3Zm-3.73,4.9c0,1.37.71,2.11,1.57,2.11,1.32,0,1.68-.91,1.68-2.27s-.31-2-1.59-2C647.33,545.24,646.66,546,646.66,547.43Z"/><path class="cls-31" d="M652.14,547.45c0,1.29.66,2.09,1.62,2.09a1.41,1.41,0,0,0,1.44-.94h.51a1.92,1.92,0,0,1-2,1.41c-1.52,0-2.11-1.31-2.11-2.58,0-1.43.71-2.66,2.17-2.66a2.07,2.07,0,0,1,2,2.27c0,.14,0,.28,0,.41Zm3.17-.44a1.58,1.58,0,0,0-1.53-1.77c-1,0-1.5.72-1.61,1.77Z"/><path class="cls-31" d="M657.09,549.89v-7.36h.5v7.36Z"/><path class="cls-31" d="M662.59,548.94a5.72,5.72,0,0,0,.07.95h-.48a3.29,3.29,0,0,1-.09-.77,1.64,1.64,0,0,1-1.64.89,1.49,1.49,0,0,1-1.66-1.5c0-1.1.85-1.6,2.35-1.6h1v-.51c0-.5-.15-1.17-1.29-1.17s-1.16.53-1.27.94H659a1.55,1.55,0,0,1,1.78-1.4c1.14,0,1.78.48,1.78,1.58Zm-.49-1.6h-1c-1.11,0-1.8.29-1.8,1.15a1,1,0,0,0,1.15,1.06c1.43,0,1.63-.95,1.63-2Z"/><path class="cls-31" d="M667.92,548.43v1.46h-.47a6,6,0,0,1,0-.87,1.53,1.53,0,0,1-1.61,1c-.72,0-1.64-.28-1.64-1.81v-3.31h.49v3.19c0,.73.23,1.44,1.22,1.44s1.54-.63,1.54-2.06v-2.57h.5Z"/><path class="cls-31" d="M669.56,546.15c0-.44,0-.86,0-1.26H670c0,.16,0,.81,0,1a1.63,1.63,0,0,1,1.66-1.07c.89,0,1.68.5,1.68,1.88v3.24h-.5v-3.16c0-.89-.37-1.47-1.24-1.47-1.19,0-1.6,1-1.6,2.08v2.55h-.5Z"/><path class="cls-31" d="M678.41,548.94a5.72,5.72,0,0,0,.07.95H678a3.29,3.29,0,0,1-.09-.77,1.64,1.64,0,0,1-1.64.89,1.49,1.49,0,0,1-1.66-1.5c0-1.1.85-1.6,2.35-1.6h.95v-.51c0-.5-.15-1.17-1.29-1.17s-1.16.53-1.27.94h-.5a1.55,1.55,0,0,1,1.78-1.4c1.14,0,1.78.48,1.78,1.58Zm-.49-1.6h-1c-1.11,0-1.8.29-1.8,1.15a1,1,0,0,0,1.15,1.06c1.43,0,1.63-.95,1.63-2Z"/><path class="cls-31" d="M679.88,544.89c1,2.86,1.45,4,1.62,4.58h0c.2-.61.6-1.77,1.57-4.58h.51l-1.87,5.29c-.53,1.48-.89,1.81-1.79,1.81a3.33,3.33,0,0,1-.46,0v-.5a3.29,3.29,0,0,0,.45,0c.72,0,1-.35,1.32-1.38l-1.91-5.22Z"/><path class="cls-31" d="M683.34,551a6.36,6.36,0,0,0,.7-2.42h.5a6.26,6.26,0,0,1-.75,2.42Z"/><path class="cls-31" d="M688.93,547.47c.46-.49,1.86-1.91,2.53-2.58h.63l-2,2,2.22,3h-.61l-2-2.69-.83.8v1.89h-.5v-7.36h.5Z"/><path class="cls-31" d="M693.28,549.89v-7h.8c1.09,1.67,3.64,5.58,4.09,6.34h0c-.06-1,0-2,0-3.18V542.9h.54v7h-.74c-1-1.62-3.63-5.69-4.13-6.45h0c.05.91,0,1.93,0,3.2v3.25Z"/><path class="cls-31" d="M700.74,549.89v-7h.8c1.09,1.67,3.64,5.58,4.09,6.34h0c-.06-1,0-2,0-3.18V542.9h.55v7h-.74c-1-1.62-3.63-5.69-4.13-6.45h0c0,.91,0,1.93,0,3.2v3.25Z"/><path class="cls-32" d="M309.11,121.91h-7.37v-.5h7.37Z"/><path class="cls-32" d="M306.67,119.66c1.29,0,2.09-.66,2.09-1.62a1.41,1.41,0,0,0-.94-1.44v-.51a1.92,1.92,0,0,1,1.41,2c0,1.52-1.31,2.11-2.58,2.11-1.43,0-2.66-.71-2.66-2.17a2.07,2.07,0,0,1,2.27-2h.41Zm-.44-3.17a1.58,1.58,0,0,0-1.77,1.53c0,1,.72,1.5,1.77,1.61Z"/><path class="cls-32" d="M301.74,114.7v-.5h1v.5Zm2.37,0v-.5h5v.5Z"/><path class="cls-32" d="M301.74,108.7h7.37v.48c-.12,0-.59,0-.84,0a1.64,1.64,0,0,1,1,1.68c0,1.3-1.06,2.08-2.56,2.08s-2.68-.85-2.68-2.21c0-1,.43-1.4.75-1.55h-3Zm4.91,3.73c1.37,0,2.11-.71,2.11-1.57,0-1.32-.91-1.68-2.27-1.68s-2,.31-2,1.59C304.46,111.76,305.25,112.43,306.65,112.43Z"/><path class="cls-32" d="M306.67,107c1.29,0,2.09-.66,2.09-1.62a1.41,1.41,0,0,0-.94-1.44v-.51a1.92,1.92,0,0,1,1.41,2c0,1.52-1.31,2.11-2.58,2.11-1.43,0-2.66-.71-2.66-2.17a2.07,2.07,0,0,1,2.27-2h.41Zm-.44-3.17a1.58,1.58,0,0,0-1.77,1.53c0,1,.72,1.5,1.77,1.61Z"/><path class="cls-32" d="M305.37,102h-1.26v-.49c.16,0,.81,0,.95,0A1.63,1.63,0,0,1,304,99.88c0-.89.5-1.68,1.88-1.68h3.24v.5H306c-.89,0-1.47.37-1.47,1.24,0,1.19,1,1.6,2.08,1.6h2.55v.5Z"/><path class="cls-32" d="M307.64,90.28a1.92,1.92,0,0,1,1.59,1.94c0,1.25-.93,2.14-2.6,2.14-1.37,0-2.64-.73-2.64-2.2a1.79,1.79,0,0,1,1.6-1.88v.51a1.35,1.35,0,0,0-1.13,1.38c0,1.06.9,1.66,2.15,1.66s2.15-.56,2.15-1.61a1.41,1.41,0,0,0-1.12-1.43Z"/><path class="cls-32" d="M309.11,89.12h-7.37v-.5h7.37Z"/><path class="cls-32" d="M307.65,83.24h1.46v.48a8,8,0,0,1-.87,0,1.53,1.53,0,0,1,1,1.61c0,.72-.28,1.64-1.81,1.64h-3.31V86.5h3.19c.73,0,1.44-.23,1.44-1.22s-.63-1.54-2.06-1.54h-2.57v-.5Z"/><path class="cls-32" d="M307.73,81.66a1.32,1.32,0,0,0,1-1.42c0-.89-.41-1.25-1-1.25s-.85.24-1.12,1.36c-.31,1.29-.7,1.61-1.36,1.61S304,81.44,304,80.31a1.59,1.59,0,0,1,1.4-1.75v.5a1.18,1.18,0,0,0-.94,1.27c0,.87.43,1.12.83,1.12s.69-.24.93-1.23c.34-1.41.8-1.76,1.55-1.76.91,0,1.47.74,1.47,1.79a1.74,1.74,0,0,1-1.5,1.92Z"/><path class="cls-32" d="M304.11,78v-.93h-1.56v-.5h1.56V75.38h.47v1.19h3.25c.56,0,.88-.12.88-.6a1.89,1.89,0,0,0-.06-.52h.43a1.55,1.55,0,0,1,.09.62c0,.64-.31,1-1.11,1h-3.48V78Z"/><path class="cls-32" d="M306.67,74.31c1.29,0,2.09-.66,2.09-1.62a1.41,1.41,0,0,0-.94-1.44v-.51a1.92,1.92,0,0,1,1.41,2c0,1.52-1.31,2.11-2.58,2.11-1.43,0-2.66-.71-2.66-2.17a2.07,2.07,0,0,1,2.27-2h.41Zm-.44-3.17a1.58,1.58,0,0,0-1.77,1.53c0,1,.72,1.5,1.77,1.61Z"/><path class="cls-32" d="M305.47,69.4h-1.36v-.49c.16,0,.48,0,1.12,0A1.89,1.89,0,0,1,304,67.16h.54a1.81,1.81,0,0,0,2,1.74h2.6v.5Z"/><rect class="cls-35" x="400.64" y="49.81" width="376.75" height="246.76" rx="33.7"/><g class="cls-28"><rect class="cls-29" x="425.77" y="150.08" width="110.58" height="78.59" transform="translate(670.43 -291.69) rotate(90)"/><rect class="cls-24" x="469.77" y="138.79" width="22.59" height="78.59" transform="translate(659.14 -302.98) rotate(90)"/></g><g class="cls-30"><rect class="cls-29" x="422.6" y="146.65" width="110.58" height="78.59" transform="translate(663.83 -291.94) rotate(90)"/><rect class="cls-24" x="466.59" y="135.36" width="22.59" height="78.59" transform="translate(652.54 -303.23) rotate(90)"/></g><text class="cls-23" transform="translate(415.78 257.25)">@dimension_reduction</text><path class="cls-36" d="M462.33,62.13h-4.59v3.62h5.07l-.22,1.41h-6.5v-11h6.45v1.43h-4.8V60.7h4.59Z"/><path class="cls-36" d="M465.57,59c.91,1.64,1.36,2.41,1.59,2.87h0c.3-.53.88-1.51,1.66-2.87h1.74l-2.47,3.89,2.48,4.29h-1.86c-.8-1.52-1.36-2.51-1.62-3h0c-.22.43-.86,1.66-1.63,3H463.7l2.43-4L463.76,59Z"/><path class="cls-36" d="M473.28,66.32v4h-1.62V61.37c0-1.12,0-1.88,0-2.39h1.6c0,.24,0,.75,0,1.17a2.38,2.38,0,0,1,2.34-1.33c1.7,0,2.92,1.36,2.92,4.13s-1.38,4.35-3.25,4.35A2.1,2.1,0,0,1,473.28,66.32ZM476.87,63c0-1.91-.68-2.8-1.8-2.8-1.44,0-1.86,1-1.86,2.87s.31,2.87,1.78,2.87C476.2,65.94,476.87,64.89,476.87,63Z"/><path class="cls-36" d="M480.18,61.75c0-1.32,0-2.28,0-2.77h1.6c0,.33,0,.81,0,1.53a2.54,2.54,0,0,1,2.48-1.67v1.7c-1.69,0-2.45.85-2.45,2.6v4h-1.64Z"/><path class="cls-36" d="M486.64,63.42c0,1.37.48,2.56,1.8,2.56A1.55,1.55,0,0,0,490,64.77h1.61a3.16,3.16,0,0,1-3.26,2.54c-2.57,0-3.39-2-3.39-4.26s1-4.23,3.47-4.23,3.28,1.94,3.28,3.94c0,.11,0,.55,0,.66Zm3.49-1.15c0-1.19-.45-2.16-1.7-2.16-1.42,0-1.71,1.35-1.76,2.16Z"/><path class="cls-36" d="M494.35,64.74a1.45,1.45,0,0,0,1.57,1.33c.94,0,1.35-.47,1.35-1.1s-.47-1-1.73-1.37c-2-.59-2.52-1.31-2.52-2.45s.7-2.33,2.81-2.33,2.8,1.15,2.88,2.41h-1.6a1.23,1.23,0,0,0-1.35-1.17c-.76,0-1.13.37-1.13,1s.31.83,1.56,1.18c2,.58,2.7,1.3,2.7,2.62,0,1.57-1.21,2.49-3,2.49s-3-.9-3.13-2.57Z"/><path class="cls-36" d="M501.5,64.74a1.46,1.46,0,0,0,1.58,1.33c.93,0,1.34-.47,1.34-1.1s-.46-1-1.73-1.37c-2-.59-2.52-1.31-2.52-2.45s.7-2.33,2.81-2.33,2.8,1.15,2.88,2.41h-1.6a1.23,1.23,0,0,0-1.35-1.17c-.75,0-1.13.37-1.13,1s.31.83,1.56,1.18c2,.58,2.71,1.3,2.71,2.62,0,1.57-1.22,2.49-3,2.49s-3-.9-3.13-2.57Z"/><path class="cls-36" d="M507.58,59h1.63v8.18h-1.63Zm0-3.41h1.63v1.82h-1.63Z"/><path class="cls-36" d="M517.93,63c0,2.5-1.07,4.36-3.58,4.36s-3.51-1.93-3.51-4.32,1.16-4.17,3.6-4.17S517.93,60.55,517.93,63Zm-5.42,0c0,1.87.64,3,1.9,3s1.85-1.13,1.85-3-.61-2.81-1.89-2.81S512.51,61.23,512.51,63Z"/><path class="cls-36" d="M519.56,61.53c0-1.7,0-2.19,0-2.55h1.59a8.27,8.27,0,0,1,.06,1.14,2.35,2.35,0,0,1,2.25-1.3c1.53,0,2.49.91,2.49,2.91v5.43h-1.64V62c0-1.05-.31-1.82-1.39-1.82s-1.7.81-1.7,2.38v4.57h-1.63Z"/><path class="cls-36" d="M532.84,64.05A2,2,0,0,0,535,66c1.24,0,1.88-.62,1.88-1.67s-.55-1.6-2.27-2.17c-2.26-.74-3.11-1.55-3.11-3.14,0-1.81,1.36-2.95,3.38-2.95,2.43,0,3.38,1.43,3.48,3h-1.66a1.72,1.72,0,0,0-1.85-1.68c-1.12,0-1.66.58-1.66,1.47s.54,1.3,2.14,1.83c2.57.84,3.28,1.87,3.28,3.45,0,1.79-1.19,3.19-3.68,3.19-2.33,0-3.61-1.28-3.75-3.25Z"/><path class="cls-36" d="M541.78,66.32v4h-1.63V61.37c0-1.12,0-1.88,0-2.39h1.59c0,.24,0,.75,0,1.17a2.39,2.39,0,0,1,2.35-1.33c1.7,0,2.92,1.36,2.92,4.13s-1.39,4.35-3.25,4.35A2.08,2.08,0,0,1,541.78,66.32ZM545.37,63c0-1.91-.68-2.8-1.81-2.8-1.43,0-1.85,1-1.85,2.87s.31,2.87,1.78,2.87C544.7,65.94,545.37,64.89,545.37,63Z"/><path class="cls-36" d="M554.45,65.3a15.39,15.39,0,0,0,.11,1.86h-1.47a7.37,7.37,0,0,1-.11-1.08,2.62,2.62,0,0,1-4.84-1.24c0-1.39.93-2.64,3.65-2.64h1.05v-.77c0-.7-.19-1.39-1.35-1.39A1.28,1.28,0,0,0,550,61.33h-1.58c.09-1.3.82-2.51,3.08-2.51,1.77,0,2.91.7,2.91,2.55Zm-1.56-2h-1.07c-1.66,0-2,.69-2,1.39A1.2,1.2,0,0,0,551.1,66c1.39,0,1.79-.94,1.79-2.45Z"/><path class="cls-36" d="M562.74,64.47a3.1,3.1,0,0,1-3.26,2.84c-2.35,0-3.39-1.61-3.39-4.26,0-2.4,1.17-4.23,3.49-4.23a2.94,2.94,0,0,1,3.15,2.88h-1.64c-.1-.73-.46-1.57-1.54-1.57-1.27,0-1.79,1.18-1.79,2.89,0,2,.61,3,1.76,3s1.39-.75,1.59-1.54Z"/><path class="cls-36" d="M565.5,63.42c0,1.37.49,2.56,1.8,2.56a1.57,1.57,0,0,0,1.6-1.21h1.6a3.16,3.16,0,0,1-3.25,2.54c-2.57,0-3.4-2-3.4-4.26s1-4.23,3.47-4.23,3.28,1.94,3.28,3.94c0,.11,0,.55,0,.66Zm3.5-1.15c0-1.19-.46-2.16-1.71-2.16-1.42,0-1.71,1.35-1.76,2.16Z"/><line class="cls-15" x1="459.23" y1="74.24" x2="459.23" y2="119.41"/><path d="M459.23,71.82a12,12,0,0,1-1.9,3.42l1.9-.69,1.9.69A12,12,0,0,1,459.23,71.82Z"/><path d="M459.23,121.82a12.27,12.27,0,0,0-1.9-3.42l1.9.69,1.9-.69A12.27,12.27,0,0,0,459.23,121.82Z"/><line class="cls-15" x1="453.33" y1="113.76" x2="498.5" y2="113.76"/><path d="M450.91,113.76a12,12,0,0,1,3.42,1.9l-.69-1.9.69-1.9A12,12,0,0,1,450.91,113.76Z"/><path d="M500.91,113.76a12.27,12.27,0,0,0-3.42,1.9l.69-1.9-.69-1.9A12.27,12.27,0,0,0,500.91,113.76Z"/><circle class="cls-27" cx="465.83" cy="102.27" r="1.98"/><circle class="cls-27" cx="471.33" cy="100.69" r="1.98"/><circle class="cls-27" cx="474.93" cy="106.89" r="1.98"/><circle class="cls-37" cx="486" cy="86.75" r="1.98"/><circle class="cls-37" cx="493.65" cy="88.52" r="1.98"/><circle class="cls-37" cx="494.97" cy="83.18" r="1.98"/><circle class="cls-37" cx="476.91" cy="90.2" r="1.98"/><circle class="cls-37" cx="490.11" cy="80.94" r="1.98"/><circle class="cls-37" cx="481.14" cy="78.96" r="1.98"/><circle class="cls-37" cx="499.42" cy="80.94" r="1.98"/><rect class="cls-29" x="418.86" y="142.66" width="110.58" height="78.59" transform="translate(656.1 -292.2) rotate(90)"/><rect class="cls-24" x="462.86" y="131.37" width="22.59" height="78.59" transform="translate(644.81 -303.49) rotate(90)"/><path class="cls-31" d="M436.24,267.78c0,1.29.66,2.09,1.62,2.09a1.41,1.41,0,0,0,1.44-.94h.51a1.92,1.92,0,0,1-2,1.41c-1.52,0-2.11-1.31-2.11-2.58,0-1.43.71-2.66,2.17-2.66a2.07,2.07,0,0,1,2,2.27c0,.14,0,.28,0,.41Zm3.17-.44a1.58,1.58,0,0,0-1.53-1.77c-1,0-1.5.72-1.61,1.77Z"/><path class="cls-31" d="M440.93,270.22v-1.29h.5v1.29Z"/><path class="cls-31" d="M446.67,269.88c0,1.6-.71,2.44-2.16,2.44a1.76,1.76,0,0,1-2-1.49h.51a1.38,1.38,0,0,0,1.47,1c1.3,0,1.66-.84,1.66-2.11v-.52a1.58,1.58,0,0,1-1.67,1c-1.17,0-2.07-1-2.07-2.5s1-2.62,2.14-2.62c1,0,1.46.48,1.6.88,0-.29,0-.64,0-.76h.47c0,.18,0,1,0,1.45ZM443,267.7c0,1.19.63,2.05,1.59,2.05,1.25,0,1.63-.83,1.63-2.13s-.4-2.05-1.6-2.05S443,266.56,443,267.7Z"/><path class="cls-31" d="M448,270.22v-1.29h.5v1.29Z"/><path class="cls-31" d="M452.63,263.22h2.5a1.92,1.92,0,0,1,2.16,1.95,2,2,0,0,1-2.23,2h-1.88v3.05h-.55Zm.55,3.45h1.93c1.13,0,1.6-.6,1.6-1.48a1.4,1.4,0,0,0-1.56-1.47h-2Z"/><path class="cls-31" d="M464.09,268.35a2.56,2.56,0,0,1-2.63,1.95c-2,0-3.07-1.6-3.07-3.57s1-3.61,3.08-3.61a2.45,2.45,0,0,1,2.63,2h-.54a2,2,0,0,0-2.12-1.51c-1.74,0-2.47,1.59-2.47,3.1s.72,3.08,2.51,3.08a2.05,2.05,0,0,0,2.07-1.45Z"/><path class="cls-31" d="M466.25,267.8l-.89,2.42h-.55l2.57-7H468l2.68,7h-.59l-.91-2.42Zm2.77-.5c-.78-2.08-1.18-3.08-1.32-3.55h0c-.17.53-.62,1.77-1.25,3.55Z"/><path class="cls-31" d="M471.36,271.36a6.36,6.36,0,0,0,.7-2.42h.5a6.26,6.26,0,0,1-.75,2.42Z"/><path class="cls-31" d="M475.7,265.22h.93v-1.56h.5v1.56h1.19v.47h-1.19v3.25c0,.56.12.88.6.88a1.89,1.89,0,0,0,.52-.06v.44a1.76,1.76,0,0,1-.62.09c-.64,0-1-.32-1-1.12v-3.48h-.93Z"/><path class="cls-31" d="M481.52,267.42v.49H479v-.49Z"/><path class="cls-31" d="M483.15,268.34a1.8,1.8,0,0,0,2,1.48c1.28,0,1.77-.64,1.77-1.4s-.35-1.28-1.89-1.66-2.12-.85-2.12-1.86.67-1.78,2.17-1.78a2.05,2.05,0,0,1,2.28,1.79h-.56a1.56,1.56,0,0,0-1.75-1.29c-1,0-1.56.47-1.56,1.25s.46,1.07,1.75,1.39c2,.49,2.26,1.28,2.26,2.12,0,1-.75,1.92-2.37,1.92a2.24,2.24,0,0,1-2.52-2Z"/><path class="cls-31" d="M489,270.22v-7h.8c1.09,1.68,3.65,5.59,4.09,6.35h0c-.06-1-.05-2-.05-3.18v-3.17h.55v7h-.74c-1-1.62-3.64-5.69-4.14-6.46h0c.05.92,0,1.94,0,3.21v3.25Z"/><path class="cls-31" d="M500.58,266.78H497v2.94h3.91l-.08.5h-4.37v-7h4.29v.5H497v2.56h3.57Z"/><path class="cls-31" d="M501.73,271.36a6.36,6.36,0,0,0,.7-2.42h.5a6.26,6.26,0,0,1-.75,2.42Z"/><path class="cls-31" d="M507.5,263.22v4.24c0,1.86,1.05,2.34,2,2.34,1.17,0,2-.49,2-2.34v-4.24h.55v4.21c0,2.19-1.16,2.87-2.61,2.87a2.44,2.44,0,0,1-2.58-2.78v-4.3Z"/><path class="cls-31" d="M520.21,267c0-1.37,0-2.68,0-3.38h0c-.28.94-1.7,4.39-2.59,6.6h-.53c-.67-1.71-2.14-5.55-2.46-6.61h0c0,.8.07,2.43.07,3.63v3h-.54v-7H515c1,2.4,2.17,5.54,2.43,6.33h0c.16-.51,1.56-4,2.54-6.33h.8v7h-.54Z"/><path class="cls-31" d="M523.43,267.8l-.89,2.42H522l2.57-7h.64l2.68,7h-.59l-.91-2.42Zm2.77-.5c-.78-2.08-1.18-3.08-1.32-3.55h0c-.17.53-.62,1.77-1.25,3.55Z"/><path class="cls-31" d="M529.12,263.22h2.5a1.92,1.92,0,0,1,2.16,1.95,2,2,0,0,1-2.23,2h-1.88v3.05h-.55Zm.55,3.45h1.93c1.13,0,1.6-.6,1.6-1.48a1.4,1.4,0,0,0-1.56-1.47h-2Z"/><g class="cls-28"><rect class="cls-29" x="663.64" y="155.73" width="110.58" height="69.3" transform="translate(909.31 -528.56) rotate(90)"/><rect class="cls-24" x="707.64" y="144.43" width="22.59" height="69.3" transform="translate(898.01 -539.85) rotate(90)"/></g><text class="cls-23" transform="translate(651.86 257.25)">@spatial_enrichment</text><path class="cls-32" d="M688,121.21a1.32,1.32,0,0,0,1-1.42c0-.89-.42-1.25-1-1.25s-.85.24-1.12,1.36c-.31,1.29-.7,1.61-1.36,1.61s-1.33-.52-1.33-1.65a1.59,1.59,0,0,1,1.4-1.75v.5a1.18,1.18,0,0,0-.94,1.27c0,.87.43,1.12.83,1.12s.69-.24.93-1.23c.34-1.41.8-1.75,1.55-1.75.91,0,1.47.73,1.47,1.78a1.74,1.74,0,0,1-1.5,1.92Z"/><path class="cls-32" d="M682,116.77v-.5h1v.5Zm2.37,0v-.5h5v.5Z"/><path class="cls-32" d="M689,110.82c1.59,0,2.43.7,2.43,2.15a1.76,1.76,0,0,1-1.49,2v-.51a1.38,1.38,0,0,0,1-1.47c0-1.3-.83-1.65-2.1-1.65h-.52a1.56,1.56,0,0,1,1,1.66c0,1.17-.94,2.07-2.49,2.07s-2.62-1-2.62-2.14c0-1,.48-1.45.88-1.59l-.76,0v-.47l1.45,0Zm-2.18,3.68c1.19,0,2-.63,2-1.59,0-1.25-.83-1.63-2.13-1.63s-2,.41-2,1.6S685.68,114.5,686.82,114.5Z"/><path class="cls-32" d="M685.6,109.17h-1.26v-.49c.16,0,.81,0,.95,0a1.63,1.63,0,0,1-1.07-1.66c0-.89.5-1.67,1.88-1.67h3.23v.49h-3.15c-.89,0-1.47.37-1.47,1.24,0,1.19,1,1.6,2.08,1.6h2.54v.5Z"/><path class="cls-32" d="M688.39,100.32a7.45,7.45,0,0,0,.94-.06v.47a2.7,2.7,0,0,1-.76.09,1.64,1.64,0,0,1,.89,1.64,1.49,1.49,0,0,1-1.5,1.66c-1.1,0-1.6-.85-1.6-2.35v-1h-.51c-.5,0-1.17.16-1.17,1.29s.53,1.16.94,1.27v.5a1.55,1.55,0,0,1-1.4-1.78c0-1.14.48-1.78,1.58-1.78Zm-1.6.5v1c0,1.11.29,1.8,1.15,1.8a1,1,0,0,0,1.06-1.15c0-1.42-1-1.62-2-1.62Z"/><path class="cls-32" d="M684.34,99.47v-.93h-1.56V98h1.56V96.86h.47V98h3.25c.56,0,.88-.12.88-.6a2.22,2.22,0,0,0-.06-.51h.44a2,2,0,0,1,.09.61c0,.64-.33,1-1.12,1h-3.48v.93Z"/><path class="cls-32" d="M687.88,92.24h1.45v.48a7.69,7.69,0,0,1-.86,0,1.55,1.55,0,0,1,1,1.61c0,.71-.29,1.63-1.81,1.63h-3.31v-.49h3.19c.73,0,1.43-.23,1.43-1.22s-.62-1.53-2.05-1.53h-2.57v-.5Z"/><path class="cls-32" d="M685.7,90.59h-1.36v-.49c.16,0,.48,0,1.12,0a1.89,1.89,0,0,1-1.24-1.73h.54a1.8,1.8,0,0,0,2,1.73h2.59v.5Z"/><path class="cls-32" d="M686.9,87.32c1.29,0,2.09-.66,2.09-1.62a1.4,1.4,0,0,0-.94-1.43v-.51a1.92,1.92,0,0,1,1.41,2c0,1.51-1.31,2.1-2.58,2.1-1.43,0-2.66-.71-2.66-2.17a2.07,2.07,0,0,1,2.27-2h.41Zm-.44-3.16a1.58,1.58,0,0,0-1.77,1.53c0,1,.72,1.49,1.77,1.6Z"/><path class="cls-32" d="M689.33,78.77h-5.94a4.47,4.47,0,0,1,.77,1.48h-.47a5.46,5.46,0,0,0-1-1.57v-.43h6.62Z"/><g class="cls-30"><rect class="cls-29" x="659.73" y="151.69" width="110.58" height="69.3" transform="translate(901.35 -528.67) rotate(90)"/><rect class="cls-24" x="703.72" y="140.4" width="22.59" height="69.3" transform="translate(890.06 -539.97) rotate(90)"/></g><rect class="cls-29" x="656.02" y="147.3" width="110.58" height="69.3" transform="translate(893.26 -529.35) rotate(90)"/><rect class="cls-24" x="700.01" y="136.01" width="22.59" height="69.3" transform="translate(881.96 -540.65) rotate(90)"/><path class="cls-31" d="M673.68,267.5c0,1.29.66,2.09,1.62,2.09a1.41,1.41,0,0,0,1.44-.94h.51a1.92,1.92,0,0,1-2,1.41c-1.52,0-2.11-1.31-2.11-2.58,0-1.43.71-2.66,2.17-2.66a2.07,2.07,0,0,1,2,2.27c0,.14,0,.28,0,.41Zm3.17-.44a1.58,1.58,0,0,0-1.53-1.77c-1,0-1.5.72-1.61,1.77Z"/><path class="cls-31" d="M678.37,269.94v-1.29h.5v1.29Z"/><path class="cls-31" d="M684.11,269.6c0,1.6-.71,2.44-2.16,2.44a1.76,1.76,0,0,1-2-1.49h.51a1.38,1.38,0,0,0,1.47,1c1.3,0,1.66-.84,1.66-2.11v-.52a1.58,1.58,0,0,1-1.67,1c-1.17,0-2.07-.95-2.07-2.5s1-2.62,2.14-2.62c1,0,1.46.48,1.6.88,0-.29,0-.64,0-.76h.47c0,.18,0,1,0,1.45Zm-3.69-2.18c0,1.19.63,2.05,1.59,2.05,1.25,0,1.63-.83,1.63-2.13s-.4-2-1.6-2S680.42,266.28,680.42,267.42Z"/><path class="cls-31" d="M685.39,269.94v-1.29h.5v1.29Z"/><path class="cls-31" d="M690.07,262.94h2.5a1.92,1.92,0,0,1,2.16,1.95,2,2,0,0,1-2.23,2h-1.88v3.05h-.55Zm.55,3.45h1.93c1.13,0,1.6-.6,1.6-1.48a1.4,1.4,0,0,0-1.56-1.47h-2Z"/><path class="cls-31" d="M696.16,267.52l-.89,2.42h-.55l2.57-7h.64l2.68,7H700l-.91-2.42Zm2.77-.5c-.78-2.08-1.18-3.08-1.32-3.55h0c-.17.53-.62,1.77-1.25,3.55Z"/><path class="cls-31" d="M707.14,269.94h-.45a5.26,5.26,0,0,1-.07-1.12,2.27,2.27,0,0,1-2.26,1.2c-2,0-3-1.53-3-3.52s1.1-3.65,3.15-3.65a2.5,2.5,0,0,1,2.73,2.07h-.54a2.08,2.08,0,0,0-2.21-1.58c-1.75,0-2.55,1.36-2.55,3.13,0,1.6.77,3,2.48,3s2.24-1.14,2.24-2.69v-.08h-2.26v-.5h2.78Z"/><path class="cls-31" d="M713.06,266.5h-3.57v2.94h3.91l-.08.5H709v-7h4.29v.5h-3.75V266h3.57Z"/><path class="cls-31" d="M717.33,267.5c0,1.29.66,2.09,1.62,2.09a1.41,1.41,0,0,0,1.44-.94h.51a1.92,1.92,0,0,1-2,1.41c-1.52,0-2.11-1.31-2.11-2.58,0-1.43.71-2.66,2.17-2.66a2.07,2.07,0,0,1,2,2.27c0,.14,0,.28,0,.41Zm3.17-.44a1.58,1.58,0,0,0-1.53-1.77c-1,0-1.5.72-1.61,1.77Z"/><path class="cls-31" d="M722.24,266.2c0-.44,0-.86,0-1.26h.49c0,.16,0,.81,0,.95a1.63,1.63,0,0,1,1.66-1.07c.89,0,1.68.5,1.68,1.88v3.24h-.5v-3.16c0-.89-.37-1.47-1.24-1.47-1.19,0-1.6,1-1.6,2.08v2.55h-.5Z"/><path class="cls-31" d="M727.72,266.3c0-.84,0-1.2,0-1.36h.49c0,.16,0,.48,0,1.12a1.89,1.89,0,0,1,1.74-1.24v.54a1.81,1.81,0,0,0-1.74,2v2.6h-.5Z"/><path class="cls-31" d="M730.88,262.57h.5v1h-.5Zm0,2.37h.5v5h-.5Z"/><path class="cls-31" d="M736.7,268.47a1.92,1.92,0,0,1-1.94,1.59c-1.25,0-2.14-.93-2.14-2.6,0-1.37.73-2.64,2.2-2.64a1.79,1.79,0,0,1,1.88,1.6h-.51a1.35,1.35,0,0,0-1.38-1.13c-1.06,0-1.66.9-1.66,2.15s.56,2.15,1.61,2.15a1.41,1.41,0,0,0,1.43-1.12Z"/><path class="cls-31" d="M738.36,262.57v3.21a1.74,1.74,0,0,1,1.65-1c.71,0,1.69.36,1.69,1.94v3.18h-.5v-3.08c0-1-.45-1.55-1.28-1.55-1,0-1.56.61-1.56,1.84v2.79h-.5v-7.37Z"/><path class="cls-31" d="M743.34,266.23c0-.43,0-.9,0-1.29h.49c0,.17,0,.6,0,.89a1.56,1.56,0,0,1,1.5-1,1.42,1.42,0,0,1,1.45,1,1.7,1.7,0,0,1,1.63-1c.77,0,1.57.44,1.57,1.83v3.29h-.5v-3.23c0-.67-.24-1.4-1.17-1.4s-1.41.78-1.41,1.75v2.88h-.49v-3.22c0-.73-.22-1.41-1.14-1.41s-1.44.86-1.44,1.88v2.75h-.5Z"/><path class="cls-31" d="M751.74,267.5c0,1.29.66,2.09,1.62,2.09a1.41,1.41,0,0,0,1.44-.94h.51a1.92,1.92,0,0,1-2,1.41c-1.52,0-2.11-1.31-2.11-2.58,0-1.43.71-2.66,2.17-2.66a2.07,2.07,0,0,1,2,2.27c0,.14,0,.28,0,.41Zm3.17-.44a1.58,1.58,0,0,0-1.53-1.77c-1,0-1.5.72-1.61,1.77Z"/><path class="cls-31" d="M756.65,266.2c0-.44,0-.86,0-1.26h.49c0,.16,0,.81,0,.95a1.63,1.63,0,0,1,1.66-1.07c.89,0,1.68.5,1.68,1.88v3.24H760v-3.16c0-.89-.37-1.47-1.24-1.47-1.19,0-1.6,1-1.6,2.08v2.55h-.5Z"/><path class="cls-31" d="M761.35,264.94h.93v-1.56h.5v1.56H764v.47h-1.19v3.25c0,.56.12.88.6.88a1.89,1.89,0,0,0,.52-.06v.44a1.76,1.76,0,0,1-.62.09c-.64,0-1-.32-1-1.12v-3.48h-.93Z"/><path class="cls-31" d="M764.64,271.08a6.36,6.36,0,0,0,.7-2.42h.5a6.26,6.26,0,0,1-.75,2.42Z"/><path class="cls-31" d="M673.57,280.56a1.32,1.32,0,0,0,1.42,1c.89,0,1.25-.41,1.25-1s-.24-.85-1.36-1.12c-1.29-.31-1.61-.7-1.61-1.36s.52-1.33,1.65-1.33a1.59,1.59,0,0,1,1.75,1.4h-.5a1.18,1.18,0,0,0-1.27-.94c-.87,0-1.12.43-1.12.83s.24.69,1.23.93c1.41.34,1.76.8,1.76,1.55,0,.91-.74,1.47-1.79,1.47a1.74,1.74,0,0,1-1.92-1.5Z"/><path class="cls-31" d="M678.44,281.2v2.74h-.5v-5.77c0-.41,0-.85,0-1.23h.49c0,.19,0,.49,0,.9a1.84,1.84,0,0,1,1.76-1c1.18,0,2,1,2,2.49,0,1.8-1,2.75-2.17,2.75A1.64,1.64,0,0,1,678.44,281.2Zm3.23-1.87c0-1.16-.56-2-1.55-2-1.21,0-1.71.76-1.71,2.12s.39,2.17,1.64,2.17C681.09,281.59,681.67,280.71,681.67,279.33Z"/><path class="cls-31" d="M687.56,279.43a2.35,2.35,0,0,1-2.26,2.63c-1.35,0-2.19-1.11-2.19-2.62a2.33,2.33,0,0,1,2.24-2.62C686.68,276.82,687.56,277.86,687.56,279.43Zm-3.92,0c0,1.19.64,2.15,1.7,2.15s1.69-.89,1.69-2.15-.6-2.15-1.71-2.15S683.64,278.24,683.64,279.44Z"/><path class="cls-31" d="M688.05,276.94H689v-1.56h.5v1.56h1.19v.47h-1.19v3.25c0,.56.12.88.6.88a1.89,1.89,0,0,0,.52-.06v.44a1.76,1.76,0,0,1-.62.09c-.64,0-1-.32-1-1.12v-3.48h-.93Z"/><path class="cls-31" d="M698.15,274.57v5.93c0,.48,0,.94,0,1.44h-.48c0-.12,0-.59,0-.84a1.64,1.64,0,0,1-1.68,1c-1.3,0-2.08-1.06-2.08-2.56s.85-2.68,2.21-2.68c1,0,1.4.43,1.55.75v-3Zm-3.73,4.91c0,1.37.71,2.11,1.57,2.11,1.32,0,1.68-.91,1.68-2.27s-.31-2-1.59-2C695.09,277.29,694.42,278.08,694.42,279.48Z"/><path class="cls-31" d="M699.9,279.5c0,1.29.66,2.09,1.62,2.09a1.41,1.41,0,0,0,1.44-.94h.51a1.92,1.92,0,0,1-2,1.41c-1.52,0-2.11-1.31-2.11-2.58,0-1.43.71-2.66,2.17-2.66a2.07,2.07,0,0,1,2,2.27c0,.14,0,.28,0,.41Zm3.17-.44a1.58,1.58,0,0,0-1.53-1.77c-1,0-1.5.72-1.61,1.77Z"/><path class="cls-31" d="M708.54,280.47a1.92,1.92,0,0,1-1.94,1.59c-1.25,0-2.14-.93-2.14-2.6,0-1.37.73-2.64,2.2-2.64a1.79,1.79,0,0,1,1.88,1.6H708a1.35,1.35,0,0,0-1.38-1.13c-1.06,0-1.66.9-1.66,2.15s.56,2.15,1.61,2.15a1.41,1.41,0,0,0,1.43-1.12Z"/><path class="cls-31" d="M713.8,279.43a2.35,2.35,0,0,1-2.26,2.63c-1.35,0-2.19-1.11-2.19-2.62a2.33,2.33,0,0,1,2.24-2.62C712.92,276.82,713.8,277.86,713.8,279.43Zm-3.92,0c0,1.19.64,2.15,1.7,2.15s1.69-.89,1.69-2.15-.6-2.15-1.71-2.15S709.88,278.24,709.88,279.44Z"/><path class="cls-31" d="M715,278.2c0-.44,0-.86,0-1.26h.49c0,.16,0,.81,0,.95a1.63,1.63,0,0,1,1.66-1.07c.89,0,1.68.5,1.68,1.88v3.24h-.5v-3.16c0-.89-.37-1.47-1.24-1.47-1.19,0-1.6,1-1.6,2.08v2.55H715Z"/><path class="cls-31" d="M720.29,276.94c.81,2.29,1.37,3.85,1.56,4.49h0c.11-.37.67-1.86,1.64-4.49H724l-1.89,5h-.6l-1.78-5Z"/><path class="cls-31" d="M729.06,279.43a2.35,2.35,0,0,1-2.26,2.63c-1.35,0-2.19-1.11-2.19-2.62a2.33,2.33,0,0,1,2.24-2.62C728.18,276.82,729.06,277.86,729.06,279.43Zm-3.92,0c0,1.19.64,2.15,1.7,2.15s1.69-.89,1.69-2.15-.6-2.15-1.71-2.15S725.14,278.24,725.14,279.44Z"/><path class="cls-31" d="M730.3,281.94v-7.37h.5v7.37Z"/><path class="cls-31" d="M736.18,280.48c0,.49,0,1.27,0,1.46h-.48a8,8,0,0,1,0-.87,1.53,1.53,0,0,1-1.61,1c-.72,0-1.64-.28-1.64-1.81v-3.31h.49v3.19c0,.73.23,1.44,1.22,1.44s1.54-.63,1.54-2.06v-2.57h.5Z"/><path class="cls-31" d="M737.19,276.94h.93v-1.56h.5v1.56h1.19v.47h-1.19v3.25c0,.56.12.88.6.88a1.89,1.89,0,0,0,.52-.06v.44a1.76,1.76,0,0,1-.62.09c-.64,0-1-.32-1-1.12v-3.48h-.93Z"/><path class="cls-31" d="M740.83,274.57h.5v1h-.5Zm0,2.37h.5v5h-.5Z"/><path class="cls-31" d="M747,279.43a2.35,2.35,0,0,1-2.26,2.63c-1.35,0-2.19-1.11-2.19-2.62a2.33,2.33,0,0,1,2.24-2.62C746.14,276.82,747,277.86,747,279.43Zm-3.92,0c0,1.19.64,2.15,1.7,2.15s1.69-.89,1.69-2.15-.6-2.15-1.71-2.15S743.1,278.24,743.1,279.44Z"/><path class="cls-31" d="M748.26,278.2c0-.44,0-.86,0-1.26h.49c0,.16,0,.81,0,.95a1.63,1.63,0,0,1,1.66-1.07c.89,0,1.68.5,1.68,1.88v3.24h-.5v-3.16c0-.89-.37-1.47-1.24-1.47-1.19,0-1.6,1-1.6,2.08v2.55h-.5Z"/><text class="cls-23" transform="translate(560 257.25)">@nn_network</text><line class="cls-15" x1="578.32" y1="73.04" x2="578.32" y2="118.22"/><path d="M578.32,70.63a12,12,0,0,1-1.91,3.42l1.91-.69,1.9.69A12,12,0,0,1,578.32,70.63Z"/><path d="M578.32,120.63a12,12,0,0,0-1.91-3.42l1.91.69,1.9-.69A12,12,0,0,0,578.32,120.63Z"/><line class="cls-15" x1="572.41" y1="112.56" x2="617.59" y2="112.56"/><path d="M570,112.56a12.4,12.4,0,0,1,3.42,1.91l-.69-1.91.69-1.9A12.13,12.13,0,0,1,570,112.56Z"/><path d="M620,112.56a12.26,12.26,0,0,0-3.42,1.91l.69-1.91-.69-1.9A12,12,0,0,0,620,112.56Z"/><path class="cls-38" d="M590.42,99.5l3.59,6.2-9.09-4.62,5.5-1.58L596,89l4.23-11.24,4.86,7.79,7.65,1.76L614.05,82l4.45-2.24h-9.3"/><line class="cls-38" x1="605.09" y1="85.56" x2="609.2" y2="79.75"/><line class="cls-38" x1="600.23" y1="77.77" x2="609.2" y2="79.75"/><line class="cls-38" x1="605.09" y1="85.56" x2="596" y2="89.01"/><line class="cls-38" x1="609.2" y1="79.75" x2="614.05" y2="81.99"/><line class="cls-38" x1="612.74" y1="87.32" x2="609.2" y2="79.75"/><circle class="cls-37" cx="584.92" cy="101.08" r="1.98"/><circle class="cls-37" cx="590.42" cy="99.5" r="1.98"/><circle class="cls-37" cx="594.01" cy="105.7" r="1.98"/><circle class="cls-37" cx="605.09" cy="85.56" r="1.98"/><circle class="cls-37" cx="612.74" cy="87.32" r="1.98"/><circle class="cls-37" cx="614.05" cy="81.99" r="1.98"/><circle class="cls-37" cx="596" cy="89.01" r="1.98"/><circle class="cls-37" cx="609.2" cy="79.75" r="1.98"/><circle class="cls-37" cx="600.23" cy="77.77" r="1.98"/><circle class="cls-37" cx="618.5" cy="79.75" r="1.98"/><g class="cls-30"><rect class="cls-21" x="545" y="130.16" width="110.58" height="111.58" transform="translate(786.23 -414.34) rotate(90)"/><rect class="cls-39" x="602.37" y="130.16" width="22.59" height="111.58" transform="translate(1227.33 371.89) rotate(180)"/><rect class="cls-24" x="588.99" y="118.86" width="22.59" height="111.58" transform="translate(774.94 -425.63) rotate(90)"/></g><rect class="cls-29" x="541.4" y="126.66" width="110.58" height="111.58" transform="translate(779.14 -414.24) rotate(90)"/><rect class="cls-24" x="598.78" y="126.66" width="22.59" height="111.58" transform="translate(1220.14 364.9) rotate(180)"/><rect class="cls-24" x="585.4" y="115.37" width="22.59" height="111.58" transform="translate(767.85 -425.53) rotate(90)"/><path class="cls-31" d="M561.86,267.5c0,1.29.66,2.09,1.62,2.09a1.41,1.41,0,0,0,1.44-.94h.5a1.9,1.9,0,0,1-2,1.41c-1.52,0-2.11-1.31-2.11-2.58,0-1.43.71-2.66,2.17-2.66a2.06,2.06,0,0,1,2,2.27v.41Zm3.17-.44a1.58,1.58,0,0,0-1.53-1.77c-1,0-1.5.72-1.61,1.77Z"/><path class="cls-31" d="M566.74,264.94c.83,1.23,1.19,1.78,1.39,2.08h0l1.46-2.08h.57l-1.74,2.42,1.77,2.58h-.6l-1.48-2.18h0c-.19.29-.64,1-1.46,2.18h-.58l1.77-2.54-1.69-2.46Z"/><path class="cls-31" d="M571.58,269.2v2.74h-.5v-5.77c0-.41,0-.85,0-1.23h.49c0,.19,0,.49,0,.9a1.84,1.84,0,0,1,1.76-1c1.18,0,2,1,2,2.49,0,1.8-1,2.75-2.16,2.75A1.64,1.64,0,0,1,571.58,269.2Zm3.23-1.87c0-1.16-.56-2-1.55-2-1.21,0-1.71.76-1.71,2.12s.39,2.17,1.64,2.17C574.23,269.59,574.81,268.71,574.81,267.33Z"/><path class="cls-31" d="M576.59,266.3c0-.84,0-1.2,0-1.36h.49c0,.16,0,.48,0,1.12a1.89,1.89,0,0,1,1.74-1.24v.54a1.81,1.81,0,0,0-1.74,2v2.6h-.5Z"/><path class="cls-31" d="M579.86,267.5c0,1.29.66,2.09,1.62,2.09a1.41,1.41,0,0,0,1.44-.94h.5a1.9,1.9,0,0,1-2,1.41c-1.52,0-2.11-1.31-2.11-2.58,0-1.43.71-2.66,2.17-2.66a2.06,2.06,0,0,1,2,2.27v.41Zm3.17-.44a1.58,1.58,0,0,0-1.53-1.77c-1,0-1.5.72-1.61,1.77Z"/><path class="cls-31" d="M584.89,268.56a1.32,1.32,0,0,0,1.42,1c.89,0,1.25-.41,1.25-1s-.24-.85-1.36-1.12c-1.29-.31-1.61-.7-1.61-1.36s.52-1.33,1.65-1.33a1.59,1.59,0,0,1,1.75,1.4h-.5a1.18,1.18,0,0,0-1.27-.94c-.87,0-1.12.43-1.12.83s.24.69,1.23.93c1.41.34,1.75.8,1.75,1.55,0,.91-.73,1.47-1.78,1.47a1.74,1.74,0,0,1-1.92-1.5Z"/><path class="cls-31" d="M589.45,268.56a1.32,1.32,0,0,0,1.42,1c.88,0,1.25-.41,1.25-1s-.24-.85-1.36-1.12c-1.29-.31-1.61-.7-1.61-1.36s.52-1.33,1.65-1.33a1.59,1.59,0,0,1,1.74,1.4H592a1.16,1.16,0,0,0-1.26-.94c-.87,0-1.12.43-1.12.83s.24.69,1.23.93c1.4.34,1.75.8,1.75,1.55,0,.91-.73,1.47-1.78,1.47a1.74,1.74,0,0,1-1.92-1.5Z"/><path class="cls-31" d="M593.89,262.57h.5v1h-.5Zm0,2.37h.5v5h-.5Z"/><path class="cls-31" d="M600.07,267.43a2.35,2.35,0,0,1-2.25,2.63c-1.35,0-2.19-1.11-2.19-2.62a2.33,2.33,0,0,1,2.24-2.62C599.2,264.82,600.07,265.86,600.07,267.43Zm-3.91,0c0,1.19.64,2.15,1.7,2.15s1.68-.89,1.68-2.15-.59-2.15-1.7-2.15S596.16,266.24,596.16,267.44Z"/><path class="cls-31" d="M601.32,266.2c0-.44,0-.86,0-1.26h.49c0,.16,0,.81,0,.95a1.63,1.63,0,0,1,1.66-1.07c.89,0,1.67.5,1.67,1.88v3.24h-.49v-3.16c0-.89-.37-1.47-1.24-1.47-1.19,0-1.6,1-1.6,2.08v2.55h-.5Z"/><path class="cls-31" d="M609.4,266.2c0-.44,0-.86,0-1.26h.49c0,.16,0,.81,0,.95a1.63,1.63,0,0,1,1.66-1.07c.89,0,1.67.5,1.67,1.88v3.24h-.49v-3.16c0-.89-.37-1.47-1.24-1.47-1.19,0-1.6,1-1.6,2.08v2.55h-.5Z"/><path class="cls-31" d="M615,267.5c0,1.29.66,2.09,1.62,2.09a1.4,1.4,0,0,0,1.43-.94h.51a1.92,1.92,0,0,1-2,1.41c-1.51,0-2.1-1.31-2.1-2.58,0-1.43.71-2.66,2.17-2.66a2.07,2.07,0,0,1,2,2.27c0,.14,0,.28,0,.41Zm3.16-.44c0-1-.55-1.77-1.52-1.77s-1.5.72-1.61,1.77Z"/><path class="cls-31" d="M619.23,264.94h.93v-1.56h.5v1.56h1.18v.47h-1.18v3.25c0,.56.12.88.59.88a1.81,1.81,0,0,0,.52-.06v.44a1.7,1.7,0,0,1-.61.09c-.64,0-1-.32-1-1.12v-3.48h-.93Z"/><path class="cls-31" d="M623,264.94c.74,2.58,1.17,4.06,1.25,4.5h0c.08-.4.58-2,1.36-4.5h.54c.93,3.09,1.21,4,1.3,4.37h0c.14-.55.37-1.3,1.29-4.37h.53l-1.58,5h-.55c-.54-1.77-1.19-3.94-1.29-4.4h0c-.1.49-.67,2.28-1.31,4.4h-.61l-1.46-5Z"/><path class="cls-31" d="M634.36,267.43a2.35,2.35,0,0,1-2.26,2.63c-1.34,0-2.18-1.11-2.18-2.62s.79-2.62,2.23-2.62S634.36,265.86,634.36,267.43Zm-3.91,0c0,1.19.63,2.15,1.69,2.15s1.69-.89,1.69-2.15-.6-2.15-1.7-2.15S630.45,266.24,630.45,267.44Z"/><path class="cls-31" d="M635.61,266.3c0-.84,0-1.2,0-1.36h.48c0,.16,0,.48,0,1.12a1.89,1.89,0,0,1,1.73-1.24v.54a1.8,1.8,0,0,0-1.73,2v2.6h-.5Z"/><path class="cls-31" d="M639.35,267.52c.46-.49,1.86-1.91,2.52-2.58h.64l-2,2,2.22,3h-.62l-2-2.69-.82.8v1.89h-.5v-7.37h.5Z"/><path class="cls-31" d="M561.86,279.5c0,1.29.66,2.09,1.62,2.09a1.41,1.41,0,0,0,1.44-.94h.5a1.9,1.9,0,0,1-2,1.41c-1.52,0-2.11-1.31-2.11-2.58,0-1.43.71-2.66,2.17-2.66a2.06,2.06,0,0,1,2,2.27v.41Zm3.17-.44a1.58,1.58,0,0,0-1.53-1.77c-1,0-1.5.72-1.61,1.77Z"/><path class="cls-31" d="M566.55,281.94v-1.29h.5v1.29Z"/><path class="cls-31" d="M572.29,281.6c0,1.6-.71,2.44-2.16,2.44a1.76,1.76,0,0,1-2-1.49h.51a1.38,1.38,0,0,0,1.47,1c1.3,0,1.66-.84,1.66-2.11v-.52a1.58,1.58,0,0,1-1.67,1c-1.17,0-2.07-.95-2.07-2.5s1-2.62,2.14-2.62c1,0,1.46.48,1.6.88,0-.29,0-.64,0-.76h.47c0,.18,0,1,0,1.45Zm-3.69-2.18c0,1.19.63,2.05,1.59,2.05,1.25,0,1.63-.83,1.63-2.13s-.4-2-1.6-2S568.6,278.28,568.6,279.42Z"/><path class="cls-31" d="M573.57,281.94v-1.29h.5v1.29Z"/><path class="cls-31" d="M578.59,279.52c.46-.49,1.86-1.91,2.53-2.58h.63l-2,2,2.22,3h-.61l-2-2.69-.83.8v1.89h-.5v-7.37h.5Z"/><path class="cls-31" d="M582.94,281.94v-7h.8c1.09,1.68,3.64,5.59,4.09,6.35h0c-.06-1,0-2,0-3.18v-3.17h.54v7h-.74c-1-1.62-3.63-5.69-4.13-6.46h0c0,.92,0,1.94,0,3.21v3.25Z"/><path class="cls-31" d="M590.4,281.94v-7h.8c1.09,1.68,3.64,5.59,4.08,6.35h0c-.06-1,0-2,0-3.18v-3.17h.55v7h-.74c-1-1.62-3.63-5.69-4.13-6.46h0c.05.92,0,1.94,0,3.21v3.25Z"/><path class="cls-31" d="M596.79,283.08a6.36,6.36,0,0,0,.7-2.42h.5a6.26,6.26,0,0,1-.75,2.42Z"/><path class="cls-31" d="M601.88,280.56a1.32,1.32,0,0,0,1.42,1c.89,0,1.25-.41,1.25-1s-.24-.85-1.36-1.12c-1.29-.31-1.61-.7-1.61-1.36s.52-1.33,1.65-1.33a1.59,1.59,0,0,1,1.75,1.4h-.5a1.18,1.18,0,0,0-1.27-.94c-.87,0-1.12.43-1.12.83s.24.69,1.23.93c1.41.34,1.76.8,1.76,1.55,0,.91-.74,1.47-1.79,1.47a1.74,1.74,0,0,1-1.92-1.5Z"/><path class="cls-31" d="M606.48,281.94v-7h.8c1.09,1.68,3.64,5.59,4.08,6.35h0c-.06-1,0-2,0-3.18v-3.17h.55v7h-.74c-1-1.62-3.63-5.69-4.13-6.46h0c0,.92,0,1.94,0,3.21v3.25Z"/><path class="cls-31" d="M613.94,281.94v-7h.8c1.09,1.68,3.64,5.59,4.08,6.35h0c-.06-1-.05-2-.05-3.18v-3.17h.55v7h-.74c-1-1.62-3.63-5.69-4.13-6.46h0c0,.92,0,1.94,0,3.21v3.25Z"/><path class="cls-32" d="M717.41,121.52a1.33,1.33,0,0,0,1-1.42c0-.89-.41-1.25-1-1.25s-.84.24-1.11,1.36c-.31,1.29-.7,1.61-1.36,1.61s-1.33-.52-1.33-1.65a1.59,1.59,0,0,1,1.4-1.75v.5a1.18,1.18,0,0,0-.94,1.27c0,.87.43,1.12.83,1.12s.69-.24.93-1.23c.34-1.41.8-1.76,1.54-1.76.91,0,1.47.74,1.47,1.79a1.74,1.74,0,0,1-1.49,1.92Z"/><path class="cls-32" d="M711.42,117.08v-.5h1v.5Zm2.37,0v-.5h5v.5Z"/><path class="cls-32" d="M718.44,111.12c1.6,0,2.44.71,2.44,2.16a1.76,1.76,0,0,1-1.49,2v-.51a1.38,1.38,0,0,0,1-1.47c0-1.3-.84-1.66-2.11-1.66h-.51a1.59,1.59,0,0,1,1,1.67c0,1.17-.95,2.07-2.49,2.07s-2.62-1-2.62-2.14c0-1,.48-1.46.88-1.6l-.76,0v-.47l1.45,0Zm-2.17,3.69c1.19,0,2-.63,2-1.59,0-1.25-.82-1.63-2.12-1.63s-2.05.4-2.05,1.6S715.13,114.81,716.27,114.81Z"/><path class="cls-32" d="M715.05,109.48h-1.26V109c.16,0,.81,0,1,0a1.63,1.63,0,0,1-1.07-1.66c0-.89.5-1.68,1.88-1.68h3.23v.5h-3.15c-.89,0-1.47.37-1.47,1.24,0,1.19,1,1.6,2.08,1.6h2.54v.5Z"/><path class="cls-32" d="M717.83,100.63a5.72,5.72,0,0,0,.95-.07V101a3.29,3.29,0,0,1-.77.09,1.64,1.64,0,0,1,.89,1.64,1.49,1.49,0,0,1-1.49,1.66c-1.1,0-1.6-.85-1.6-2.35v-1h-.51c-.5,0-1.17.15-1.17,1.29s.53,1.16.94,1.27v.5a1.55,1.55,0,0,1-1.4-1.78c0-1.14.48-1.78,1.58-1.78Zm-1.59.49v1c0,1.11.29,1.8,1.14,1.8a1,1,0,0,0,1.06-1.15c0-1.43-.94-1.63-2-1.63Z"/><path class="cls-32" d="M713.79,99.78v-.93h-1.56v-.5h1.56V97.16h.47v1.19h3.24c.56,0,.88-.12.88-.6a1.89,1.89,0,0,0-.06-.52h.44a1.76,1.76,0,0,1,.09.62c0,.64-.32,1-1.12,1h-3.47v.93Z"/><path class="cls-32" d="M717.33,92.54h1.45V93a7.94,7.94,0,0,1-.86,0,1.54,1.54,0,0,1,1,1.61c0,.72-.28,1.64-1.81,1.64h-3.3V95.8H717c.73,0,1.43-.23,1.43-1.22s-.62-1.54-2-1.54h-2.57v-.5Z"/><path class="cls-32" d="M715.15,90.9h-1.36v-.49c.16,0,.48,0,1.12,0a1.89,1.89,0,0,1-1.24-1.74h.54a1.81,1.81,0,0,0,2,1.74h2.59v.5Z"/><path class="cls-32" d="M716.35,87.63c1.28,0,2.08-.66,2.08-1.62a1.41,1.41,0,0,0-.93-1.44v-.5a1.9,1.9,0,0,1,1.4,2c0,1.52-1.31,2.11-2.57,2.11-1.43,0-2.66-.71-2.66-2.17a2.07,2.07,0,0,1,2.27-2h.41Zm-.44-3.17A1.58,1.58,0,0,0,714.14,86c0,1,.72,1.5,1.77,1.61Z"/><path class="cls-32" d="M713.69,80.16a1.8,1.8,0,0,1-1.6-1.93,1.65,1.65,0,0,1,1.65-1.84,1.37,1.37,0,0,1,1.38.92h0a1.65,1.65,0,0,1,1.71-1.22,2,2,0,0,1,2,2.16,2,2,0,0,1-1.74,2.13v-.52a1.6,1.6,0,0,0,1.26-1.65,1.44,1.44,0,0,0-1.55-1.57c-1,0-1.47.69-1.47,1.66v.39h-.46v-.31c0-1-.42-1.45-1.2-1.45a1.16,1.16,0,0,0-1.17,1.32,1.3,1.3,0,0,0,1.12,1.41Z"/><path class="cls-32" d="M702.83,121.52a1.32,1.32,0,0,0,1-1.42c0-.89-.41-1.25-1-1.25s-.85.24-1.12,1.36c-.31,1.29-.7,1.61-1.36,1.61s-1.33-.52-1.33-1.65a1.59,1.59,0,0,1,1.4-1.75v.5a1.18,1.18,0,0,0-.94,1.27c0,.87.43,1.12.83,1.12s.69-.24.93-1.23c.34-1.41.8-1.76,1.55-1.76.91,0,1.47.74,1.47,1.79a1.74,1.74,0,0,1-1.5,1.92Z"/><path class="cls-32" d="M696.84,117.08v-.5h1v.5Zm2.37,0v-.5h5v.5Z"/><path class="cls-32" d="M703.87,111.12c1.6,0,2.44.71,2.44,2.16a1.76,1.76,0,0,1-1.49,2v-.51a1.38,1.38,0,0,0,1-1.47c0-1.3-.84-1.66-2.11-1.66h-.52a1.58,1.58,0,0,1,1,1.67c0,1.17-1,2.07-2.5,2.07s-2.62-1-2.62-2.14c0-1,.48-1.46.88-1.6l-.76,0v-.47l1.45,0Zm-2.18,3.69c1.19,0,2-.63,2-1.59,0-1.25-.83-1.63-2.13-1.63s-2.05.4-2.05,1.6S700.55,114.81,701.69,114.81Z"/><path class="cls-32" d="M700.47,109.48h-1.26V109c.16,0,.81,0,.95,0a1.63,1.63,0,0,1-1.07-1.66c0-.89.5-1.68,1.88-1.68h3.24v.5h-3.16c-.89,0-1.47.37-1.47,1.24,0,1.19,1,1.6,2.08,1.6h2.55v.5Z"/><path class="cls-32" d="M703.26,100.63a5.72,5.72,0,0,0,1-.07V101a3.29,3.29,0,0,1-.77.09,1.64,1.64,0,0,1,.89,1.64,1.49,1.49,0,0,1-1.5,1.66c-1.1,0-1.6-.85-1.6-2.35v-1h-.51c-.5,0-1.17.15-1.17,1.29s.53,1.16.94,1.27v.5a1.55,1.55,0,0,1-1.4-1.78c0-1.14.48-1.78,1.58-1.78Zm-1.6.49v1c0,1.11.29,1.8,1.15,1.8a1,1,0,0,0,1.06-1.15c0-1.43-1-1.63-2-1.63Z"/><path class="cls-32" d="M699.21,99.78v-.93h-1.56v-.5h1.56V97.16h.47v1.19h3.25c.56,0,.88-.12.88-.6a1.89,1.89,0,0,0-.06-.52h.44a1.76,1.76,0,0,1,.09.62c0,.64-.32,1-1.12,1h-3.48v.93Z"/><path class="cls-32" d="M702.75,92.54h1.46V93a8,8,0,0,1-.87,0,1.53,1.53,0,0,1,1,1.61c0,.72-.28,1.64-1.81,1.64h-3.31V95.8h3.19c.73,0,1.44-.23,1.44-1.22S703.21,93,701.78,93h-2.57v-.5Z"/><path class="cls-32" d="M700.57,90.9h-1.36v-.49c.16,0,.48,0,1.12,0a1.89,1.89,0,0,1-1.24-1.74h.54a1.81,1.81,0,0,0,2,1.74h2.6v.5Z"/><path class="cls-32" d="M701.77,87.63c1.29,0,2.09-.66,2.09-1.62a1.41,1.41,0,0,0-.94-1.44v-.5a1.9,1.9,0,0,1,1.41,2c0,1.52-1.31,2.11-2.58,2.11-1.43,0-2.66-.71-2.66-2.17a2.07,2.07,0,0,1,2.27-2h.41Zm-.44-3.17A1.58,1.58,0,0,0,699.56,86c0,1,.72,1.5,1.77,1.61Z"/><path class="cls-32" d="M704.21,80.47h0c-.82,0-1.84-.7-2.86-2-.89-1.14-1.16-1.43-2-1.43A1.24,1.24,0,0,0,698,78.38c0,.9.43,1.37,1.39,1.54v.51a1.94,1.94,0,0,1-1.87-2.05,1.74,1.74,0,0,1,1.79-1.9c1,0,1.36.43,2.36,1.65a5,5,0,0,0,2.06,1.76V76.21l.49.09Z"/><path class="cls-32" d="M736.38,117.23H735.1v-.5h1.28Z"/><path class="cls-32" d="M736.38,112.94H735.1v-.5h1.28Z"/><path class="cls-32" d="M736.38,108.64H735.1v-.5h1.28Z"/><path class="cls-40" d="M109.2,164.2h0a13.51,13.51,0,0,0-13.51,13.52V309.61H109.2V177.72h57.49V164.2Z"/><text class="cls-23" transform="translate(259.1 254.78)">@cell_metadata</text><path class="cls-41" d="M76.19,59.8h3.45c2.92,0,4.73,1.87,4.73,5.24,0,3.61-1.7,5.74-4.88,5.74h-3.3Zm1.69,9.62h1.56c2.18,0,3.19-1.56,3.19-4.35,0-2.48-1.11-3.89-3.17-3.89H77.88Z"/><path class="cls-41" d="M91.89,68.92A15.39,15.39,0,0,0,92,70.78H90.53a7.22,7.22,0,0,1-.11-1.08,2.29,2.29,0,0,1-2.29,1.23,2.33,2.33,0,0,1-2.55-2.47c0-1.39.93-2.64,3.65-2.64h1v-.77c0-.7-.19-1.39-1.34-1.39A1.28,1.28,0,0,0,87.48,65H85.9c.09-1.3.82-2.51,3.08-2.51,1.77,0,2.91.7,2.91,2.55Zm-1.56-2H89.26c-1.66,0-2,.69-2,1.39a1.2,1.2,0,0,0,1.31,1.28c1.39,0,1.79-.94,1.79-2.45Z"/><path class="cls-41" d="M92.91,62.6h1.22V60.32h1.63V62.6h1.52v1.31H95.76v4.8c0,.61.14.88.81.88a3.28,3.28,0,0,0,.56,0v1.18a3.62,3.62,0,0,1-1.14.15c-1.3,0-1.86-.51-1.86-1.92v-5H92.91Z"/><path class="cls-41" d="M104.37,68.92a15.39,15.39,0,0,0,.11,1.86H103a7.22,7.22,0,0,1-.11-1.08,2.29,2.29,0,0,1-2.29,1.23,2.33,2.33,0,0,1-2.55-2.47c0-1.39.93-2.64,3.65-2.64h1.05v-.77c0-.7-.19-1.39-1.34-1.39A1.28,1.28,0,0,0,100,65H98.38c.09-1.3.82-2.51,3.08-2.51,1.77,0,2.91.7,2.91,2.55Zm-1.56-2h-1.07c-1.66,0-2,.69-2,1.39A1.2,1.2,0,0,0,101,69.62c1.39,0,1.79-.94,1.79-2.45Z"/><path class="cls-41" d="M112,59.8v11h-1.68v-11Z"/><path class="cls-41" d="M114.14,65.15c0-1.69,0-2.19,0-2.55h1.59a10.26,10.26,0,0,1,.06,1.14,2.34,2.34,0,0,1,2.25-1.3c1.52,0,2.49.91,2.49,2.91v5.43h-1.64V65.65c0-1-.32-1.82-1.39-1.82s-1.7.81-1.7,2.38v4.57h-1.63Z"/><path class="cls-41" d="M124.26,69.94v4h-1.63V65c0-1.12,0-1.88,0-2.39h1.59c0,.24,0,.75,0,1.17a2.4,2.4,0,0,1,2.35-1.33c1.7,0,2.92,1.36,2.92,4.13s-1.39,4.35-3.25,4.35A2.09,2.09,0,0,1,124.26,69.94Zm3.59-3.32c0-1.91-.68-2.8-1.81-2.8-1.43,0-1.85,1-1.85,2.87s.31,2.87,1.78,2.87C127.18,69.56,127.85,68.51,127.85,66.62Z"/><path class="cls-41" d="M137.39,68.44c0,1.09,0,1.94,0,2.34h-1.58a9.17,9.17,0,0,1-.07-1.13,2.26,2.26,0,0,1-2.24,1.28c-1.34,0-2.41-.72-2.41-2.76V62.6h1.63v5.26c0,1,.3,1.68,1.34,1.68s1.66-.64,1.66-2.28V62.6h1.64Z"/><path class="cls-41" d="M138.63,62.6h1.21V60.32h1.63V62.6H143v1.31h-1.52v4.8c0,.61.14.88.81.88a3.28,3.28,0,0,0,.56,0v1.18a3.62,3.62,0,0,1-1.14.15c-1.3,0-1.86-.51-1.86-1.92v-5h-1.21Z"/><path class="cls-41" d="M157.09,64.09,154.58,68c-1.24,1.92-2,2.9-3.84,2.9a2.89,2.89,0,0,1-3.1-3c0-1.34.71-2.35,2.73-3.42,1.6-.87,2.08-1.47,2.08-2.33a1.15,1.15,0,0,0-1.18-1.28,1.17,1.17,0,0,0-1.17,1.32,2.78,2.78,0,0,0,1.07,2l6.5,6.59h-2.19L149.85,65a3.83,3.83,0,0,1-1.27-2.69,2.53,2.53,0,0,1,2.71-2.61,2.42,2.42,0,0,1,2.62,2.48c0,1.47-.89,2.24-2.6,3.18-1.56.85-2,1.51-2,2.46a1.56,1.56,0,0,0,1.59,1.69c1.12,0,1.64-.67,2.58-2.19l1.95-3.19Z"/><path class="cls-41" d="M171.12,66.35c0-2,0-4.11.07-5.3h-.06c-.48,2.07-1.8,6.52-2.8,9.73h-1.52c-.75-2.74-2.1-7.62-2.58-9.76h-.06c.08,1.28.13,3.69.13,5.58v4.18h-1.57v-11h2.52c.94,3,2.09,7.14,2.42,8.7h0c.22-1.23,1.64-5.67,2.61-8.7h2.45v11h-1.63Z"/><path class="cls-41" d="M176.06,67c0,1.37.49,2.56,1.8,2.56a1.57,1.57,0,0,0,1.6-1.21h1.6a3.16,3.16,0,0,1-3.25,2.54c-2.57,0-3.4-2-3.4-4.25s1-4.24,3.47-4.24,3.28,1.94,3.28,3.94c0,.11,0,.56,0,.66Zm3.5-1.15c0-1.19-.46-2.16-1.7-2.16-1.43,0-1.72,1.35-1.77,2.16Z"/><path class="cls-41" d="M181.89,62.6h1.22V60.32h1.62V62.6h1.52v1.31h-1.52v4.8c0,.61.15.88.81.88a3.48,3.48,0,0,0,.57,0v1.18a3.71,3.71,0,0,1-1.15.15c-1.3,0-1.85-.51-1.85-1.92v-5h-1.22Z"/><path class="cls-41" d="M193.34,68.92a17.74,17.74,0,0,0,.11,1.86H192a5.29,5.29,0,0,1-.11-1.08A2.63,2.63,0,0,1,187,68.46c0-1.39.93-2.64,3.65-2.64h1.06v-.77c0-.7-.19-1.39-1.35-1.39A1.27,1.27,0,0,0,188.94,65h-1.59c.09-1.3.83-2.51,3.08-2.51,1.77,0,2.91.7,2.91,2.55Zm-1.55-2h-1.08c-1.66,0-2,.69-2,1.39A1.2,1.2,0,0,0,190,69.62c1.39,0,1.8-.94,1.8-2.45Z"/><path class="cls-41" d="M201.85,59.19v9.4c0,.86,0,1.7,0,2.19h-1.59a9.93,9.93,0,0,1-.06-1.08A2.14,2.14,0,0,1,198,70.93c-2,0-3-1.69-3-4.25s1.18-4.24,3.3-4.24c1.22,0,1.76.46,2,.86V59.19Zm-5.22,7.45c0,1.88.66,2.92,1.83,2.92,1.5,0,1.82-1.12,1.82-3,0-2.08-.47-2.76-1.74-2.76S196.63,64.75,196.63,66.64Z"/><path class="cls-41" d="M209.76,68.92a15.39,15.39,0,0,0,.11,1.86H208.4a7.22,7.22,0,0,1-.11-1.08,2.62,2.62,0,0,1-4.84-1.24c0-1.39.93-2.64,3.65-2.64h1.05v-.77c0-.7-.19-1.39-1.35-1.39A1.28,1.28,0,0,0,205.35,65h-1.58c.09-1.3.82-2.51,3.08-2.51,1.77,0,2.91.7,2.91,2.55Zm-1.56-2h-1.07c-1.66,0-2,.69-2,1.39a1.2,1.2,0,0,0,1.31,1.28c1.39,0,1.79-.94,1.79-2.45Z"/><path class="cls-41" d="M210.78,62.6H212V60.32h1.63V62.6h1.52v1.31h-1.52v4.8c0,.61.14.88.81.88a3.36,3.36,0,0,0,.56,0v1.18a3.62,3.62,0,0,1-1.14.15c-1.3,0-1.86-.51-1.86-1.92v-5h-1.22Z"/><path class="cls-41" d="M222.24,68.92a15.39,15.39,0,0,0,.11,1.86h-1.47a7.22,7.22,0,0,1-.11-1.08,2.62,2.62,0,0,1-4.84-1.24c0-1.39.93-2.64,3.65-2.64h1v-.77c0-.7-.19-1.39-1.35-1.39A1.28,1.28,0,0,0,217.83,65h-1.58c.09-1.3.82-2.51,3.08-2.51,1.77,0,2.91.7,2.91,2.55Zm-1.56-2h-1.07c-1.66,0-2,.69-2,1.39a1.2,1.2,0,0,0,1.31,1.28c1.39,0,1.79-.94,1.79-2.45Z"/><path class="cls-40" d="M423.64,164.05H345.42v13.51h32.76V432.49h0A13.52,13.52,0,0,0,391.7,446h33V432.49h-33V177.56h34V164.05Z"/><rect class="cls-40" x="259.1" y="384.11" width="27.08" height="13.51"/><line class="cls-15" x1="503.44" y1="335.18" x2="503.44" y2="390.42"/><line class="cls-15" x1="540.57" y1="335.21" x2="540.57" y2="390.45"/><line class="cls-15" x1="522.02" y1="335.46" x2="522.02" y2="390.7"/><line class="cls-15" x1="548.9" y1="344.22" x2="494.02" y2="344.22"/><line class="cls-15" x1="548.87" y1="381.35" x2="493.99" y2="381.35"/><line class="cls-15" x1="548.62" y1="362.8" x2="493.74" y2="362.8"/><circle class="cls-27" cx="523.96" cy="374.35" r="1.83"/><circle class="cls-27" cx="511.04" cy="376.7" r="1.83"/><circle class="cls-27" cx="513.86" cy="366.59" r="1.83"/><circle class="cls-27" cx="529.6" cy="355.78" r="1.83"/><circle class="cls-27" cx="517.62" cy="358.37" r="1.83"/><circle class="cls-27" cx="510.1" cy="336.27" r="1.83"/><circle class="cls-27" cx="501.64" cy="348.73" r="1.83"/><circle class="cls-27" cx="501.64" cy="381.89" r="1.83"/><circle class="cls-27" cx="539.71" cy="378.11" r="1.83"/><rect class="cls-40" x="166.69" y="164.2" width="81.64" height="13.51"/><rect class="cls-40" x="397.09" y="432.49" width="81.64" height="13.51"/></svg>